<mxfile host="app.diagrams.net" agent="Mozilla/5.0 (Windows NT 10.0; Win64; x64) AppleWebKit/537.36 (KHTML, like Gecko) Chrome/134.0.0.0 Safari/537.36" version="26.1.0">
  <diagram id="C5RBs43oDa-KdzZeNtuy" name="Page-1">
    <mxGraphModel dx="428" dy="242" grid="1" gridSize="10" guides="1" tooltips="1" connect="1" arrows="1" fold="1" page="1" pageScale="1" pageWidth="827" pageHeight="1169" math="0" shadow="0">
      <root>
        <mxCell id="WIyWlLk6GJQsqaUBKTNV-0" />
        <mxCell id="WIyWlLk6GJQsqaUBKTNV-1" parent="WIyWlLk6GJQsqaUBKTNV-0" />
        <mxCell id="zkfFHV4jXpPFQw0GAbJ--0" value="Triangle" style="swimlane;fontStyle=2;align=center;verticalAlign=top;childLayout=stackLayout;horizontal=1;startSize=26;horizontalStack=0;resizeParent=1;resizeLast=0;collapsible=1;marginBottom=0;rounded=0;shadow=0;strokeWidth=1;" parent="WIyWlLk6GJQsqaUBKTNV-1" vertex="1">
          <mxGeometry x="220" y="120" width="190" height="110" as="geometry">
            <mxRectangle x="230" y="140" width="160" height="26" as="alternateBounds" />
          </mxGeometry>
        </mxCell>
        <mxCell id="zkfFHV4jXpPFQw0GAbJ--1" value="_geomIndex:int" style="text;align=left;verticalAlign=top;spacingLeft=4;spacingRight=4;overflow=hidden;rotatable=0;points=[[0,0.5],[1,0.5]];portConstraint=eastwest;" parent="zkfFHV4jXpPFQw0GAbJ--0" vertex="1">
          <mxGeometry y="26" width="190" height="26" as="geometry" />
        </mxCell>
        <mxCell id="zkfFHV4jXpPFQw0GAbJ--2" value="_vertexIndexs：int[3]//顶点索引" style="text;align=left;verticalAlign=top;spacingLeft=4;spacingRight=4;overflow=hidden;rotatable=0;points=[[0,0.5],[1,0.5]];portConstraint=eastwest;rounded=0;shadow=0;html=0;" parent="zkfFHV4jXpPFQw0GAbJ--0" vertex="1">
          <mxGeometry y="52" width="190" height="26" as="geometry" />
        </mxCell>
        <mxCell id="zkfFHV4jXpPFQw0GAbJ--3" value="_normal:float[3]//法向量" style="text;align=left;verticalAlign=top;spacingLeft=4;spacingRight=4;overflow=hidden;rotatable=0;points=[[0,0.5],[1,0.5]];portConstraint=eastwest;rounded=0;shadow=0;html=0;labelBackgroundColor=default;" parent="zkfFHV4jXpPFQw0GAbJ--0" vertex="1">
          <mxGeometry y="78" width="190" height="26" as="geometry" />
        </mxCell>
        <mxCell id="zkfFHV4jXpPFQw0GAbJ--6" value="TriangleReader" style="swimlane;fontStyle=0;align=center;verticalAlign=top;childLayout=stackLayout;horizontal=1;startSize=26;horizontalStack=0;resizeParent=1;resizeLast=0;collapsible=1;marginBottom=0;rounded=0;shadow=0;strokeWidth=1;" parent="WIyWlLk6GJQsqaUBKTNV-1" vertex="1">
          <mxGeometry x="20" y="440" width="400" height="138" as="geometry">
            <mxRectangle x="130" y="380" width="160" height="26" as="alternateBounds" />
          </mxGeometry>
        </mxCell>
        <mxCell id="zkfFHV4jXpPFQw0GAbJ--10" value="readTriangleData（vector&lt;Triangle&gt;，map&lt;size_t, std::vector&lt;Vertex&gt;&gt;）" style="text;align=left;verticalAlign=top;spacingLeft=4;spacingRight=4;overflow=hidden;rotatable=0;points=[[0,0.5],[1,0.5]];portConstraint=eastwest;fontStyle=0" parent="zkfFHV4jXpPFQw0GAbJ--6" vertex="1">
          <mxGeometry y="26" width="400" height="26" as="geometry" />
        </mxCell>
        <mxCell id="zkfFHV4jXpPFQw0GAbJ--11" value="Get Seminars Taken" style="text;align=left;verticalAlign=top;spacingLeft=4;spacingRight=4;overflow=hidden;rotatable=0;points=[[0,0.5],[1,0.5]];portConstraint=eastwest;" parent="zkfFHV4jXpPFQw0GAbJ--6" vertex="1">
          <mxGeometry y="52" width="400" height="26" as="geometry" />
        </mxCell>
        <mxCell id="zkfFHV4jXpPFQw0GAbJ--17" value="Vertex" style="swimlane;fontStyle=0;align=center;verticalAlign=top;childLayout=stackLayout;horizontal=1;startSize=26;horizontalStack=0;resizeParent=1;resizeLast=0;collapsible=1;marginBottom=0;rounded=0;shadow=0;strokeWidth=1;" parent="WIyWlLk6GJQsqaUBKTNV-1" vertex="1">
          <mxGeometry x="220" y="260" width="190" height="104" as="geometry">
            <mxRectangle x="550" y="140" width="160" height="26" as="alternateBounds" />
          </mxGeometry>
        </mxCell>
        <mxCell id="zkfFHV4jXpPFQw0GAbJ--18" value="_index:int//该顶点在数组中的下标" style="text;align=left;verticalAlign=top;spacingLeft=4;spacingRight=4;overflow=hidden;rotatable=0;points=[[0,0.5],[1,0.5]];portConstraint=eastwest;" parent="zkfFHV4jXpPFQw0GAbJ--17" vertex="1">
          <mxGeometry y="26" width="190" height="26" as="geometry" />
        </mxCell>
        <mxCell id="zkfFHV4jXpPFQw0GAbJ--19" value="_coor:Vec3d//顶点坐标" style="text;align=left;verticalAlign=top;spacingLeft=4;spacingRight=4;overflow=hidden;rotatable=0;points=[[0,0.5],[1,0.5]];portConstraint=eastwest;rounded=0;shadow=0;html=0;" parent="zkfFHV4jXpPFQw0GAbJ--17" vertex="1">
          <mxGeometry y="52" width="190" height="26" as="geometry" />
        </mxCell>
        <mxCell id="zkfFHV4jXpPFQw0GAbJ--20" value="_texCoor:float[2]纹理坐标" style="text;align=left;verticalAlign=top;spacingLeft=4;spacingRight=4;overflow=hidden;rotatable=0;points=[[0,0.5],[1,0.5]];portConstraint=eastwest;rounded=0;shadow=0;html=0;" parent="zkfFHV4jXpPFQw0GAbJ--17" vertex="1">
          <mxGeometry y="78" width="190" height="26" as="geometry" />
        </mxCell>
        <mxCell id="WGLatALqBIaUSyLATHMf-0" value="&lt;span style=&quot;text-align: left; text-wrap-mode: nowrap;&quot;&gt;该三角形在&lt;/span&gt;&lt;div&gt;&lt;span style=&quot;text-align: left; text-wrap-mode: nowrap;&quot;&gt;对应的顶点文件的索引&lt;/span&gt;&lt;/div&gt;" style="ellipse;shape=cloud;whiteSpace=wrap;html=1;" vertex="1" parent="WIyWlLk6GJQsqaUBKTNV-1">
          <mxGeometry x="20" y="90" width="180" height="60" as="geometry" />
        </mxCell>
        <mxCell id="WGLatALqBIaUSyLATHMf-1" style="edgeStyle=none;curved=1;rounded=0;orthogonalLoop=1;jettySize=auto;html=1;entryX=0.005;entryY=0.675;entryDx=0;entryDy=0;entryPerimeter=0;fontSize=12;startSize=8;endSize=8;" edge="1" parent="WIyWlLk6GJQsqaUBKTNV-1" source="WGLatALqBIaUSyLATHMf-0" target="zkfFHV4jXpPFQw0GAbJ--1">
          <mxGeometry relative="1" as="geometry" />
        </mxCell>
        <mxCell id="WGLatALqBIaUSyLATHMf-3" value="&lt;b&gt;快速解析顶点和三角面片文件夹&lt;/b&gt;" style="shape=tape;whiteSpace=wrap;html=1;size=0;fillColor=#ffe6cc;strokeColor=none;" vertex="1" parent="WIyWlLk6GJQsqaUBKTNV-1">
          <mxGeometry x="220" y="400" width="190" height="30" as="geometry" />
        </mxCell>
        <mxCell id="WGLatALqBIaUSyLATHMf-4" value="" style="shape=image;verticalLabelPosition=bottom;labelBackgroundColor=default;verticalAlign=top;aspect=fixed;imageAspect=0;image=data:image/png,iVBORw0KGgoAAAANSUhEUgAABLAAAAFgCAYAAACrJ4BHAAAAAXNSR0IArs4c6QAAIABJREFUeF7s3Xd8JHX9x/HXbN/NbpJN771eryC9CIKgWLCg2PhRRMWOioogeICKFVGwICACdkRRUVSwcZTrl55N7z3ZtO37e+wml0vZTXZzyV0OPvsXD25mduY5s5Od936+n6+Sk5PjR14iIAIiIAIiIAIiIAIiIAIiIAIiIAIiIAIisEYFFAmw1uiZkd0SAREQAREQAREQAREQAREQAREQAREQAREICkiAJReCCIiACIiACIiACIiACIiACIiACIiACIjAmhaQAGtNnx7ZOREQAREQAREQAREQAREQAREQAREQAREQAQmw5BoQAREQAREQAREQAREQAREQAREQAREQARFY0wISYK3p0yM7JwIiIAIiIAIiIAIiIAIiIAIiIAIiIAIicEICLEWtwpymZqzDjUyBKBehCIiACIiACIiACIiACIiACIiACIiACIjAYgInJMAynJHJ5jO97P16Nx5JsOQKFQEREAEREAEREAEREAEREAEREAEREAERWETg+AdYRh0bby6i9xs19Az55OSIgAiIgAiIgAiIgAiIgAiIgAiIgAiIgAiIwKICxz3AitmayvqLdOz5ehs+ya/k8hQBERABERABERABERABERABERABERABEVhC4PgGWFotJTcW4nzSRkuVR06OCIiACIiACIiACIiACIiACIiACIiACIiACCwpcFwDrJjtKZSfY2Dvt1qlefuSp0YWEAEREAEREAEREAEREAEREAEREAEREAERCAgcvwBLUVH0yWK8L7TQ9LxjaX2VirQr88gr0VL1zTrsw9F2e1dIeUcuBZv01H+jloHhpd9SlhABERABERABERABERABERABERABERABEVh7AsctwNKfksLmcwy8fHeE1VcJJrZ9tgA9MPRcNTVPe6PUM7LxrkLMCkzsa+TgryaiXF8WFwEREAEREAEREAEREAEREAEREAEREAERWAsCxy3AKv5YKd597TT+dzzC49az/q5iYhXoe6oa23+jDbA0lN5cRoIZRv5TS9Wf3BG+rywmAiIgAiIgAiIgAiIgAiIgAiIgAiIgAiKwlgSOS4ClLkli29tiOPytFhwhRg/qc+PIPdOCvaKH7oNHgiaF/E+vIy3RT/WuGoYnpqYs1CQbyb0wCX//EE1/Gwv20tLlxJJ3diz2qn669x19g5yPlJGZpdBwZzW9o1PsqiQDeRcmowyN0PhXO/5oRyaupbMn+yICIiACIiACIiACIiACIiACIiACIiACrwKB1Q+wFIWCj5XC3lYa/xt6GF/uDWVkZGkAP91Pt9Lyr1F8fkh+TyGFJVr27KrF4/Kjy7JQ+oFszGYVgeRp351VOEf9ZF9bTFahPvj/+v/eRsNzdnxeSHxrHsVb9Oy5pZbAnIeaTDNl783GEq8Gj5c9d9TgnpQE61VwncshioAIiIAIiIAIiIAIiIAIiIAIiIAInMQCqx5gqZJj2fGRFA5/y8akPbRU4huyKTojDpUy9e/9z7bR+I8RjDszWXeBlj13NqPJsFB+VQ4m09RC7qFxDn63CbcDrBdlUnyOFbVqav2h/7VT//QwpvVplF1q4uU7GtGmx1B+dS4xgfBrev3932rG65YA6yS+fmXXRUAEREAEREAEREAEREAEREAEREAEXgUCqxtgKSqyP16OqbKR2mcmF+VUJ5soeU8m5gQdGq2CfX8nTXt9rLtAw8FfO9n0iVy0ah9uu4ve/3TS9r+51VzqZANFV2QTmzK1/mhFN4173JRdaODgw6Ns+Uw+OjW4R530Pd9Fy78i7cX1KrgK5BBFQAREQAREQAREQAREQAREQAREQAREYA0LrGqApU0xs/0TOey/sxrnWGSVTopWRdyZyRRdkIRv3IGzZYSYdWlMNPZi+2U/znHfon2rAuvHnpZE0YXJ+CecePpGMRYk42jpo/aXfTjtPvxT7bTkJQIiIAIiIAIiIAIiIAIiIAIiIAIiIAIicBIIrGqAlfaBElImOzj8y/Fgs/VoXroCMyXvyiHG6KXjTy107HZEtQ1ddgxF780m1gidz7bS9uyENGyP5gTIsiIgAiIgAiIgAiIgAiIgAiIgAiIgAiKwRgRWLcDSZFnYck06FbfX4Yi04klRSDgzieQNscSmquj+9xDWVA+u3AxicDJUMUL37iEmBryh+VQK1tckkrwplvh0DV0vDJKYBuOJKcTrnAxW2Ol+cZDxnjDrr5GTIrshAiIgAiIgAiIgAiIgAiIgAiIgAiIgAiJwVGDVAqzUKwpIVgapeHx4SW+VRUfKaUlknm1Fp1HwTTppfLSFCWMC5Wd72Hv/CMU3FJCYriUw/m+kapCOZ/sYaZ8KolRmLcmB9c9KQK9T8LtcND3Wwpg6ltLXqtl3Tx9FHy0kOVMXXN9eN0THs/0MN7uX3DdZQAREQAREQAREQAREQAREQAREQAREQARE4MQKrEqApUq0sOnjaTR9rZ6RCHqlZ15TQk6RLijhczip+1ETQ50eEq4ooKjYF5yF0Ieawg8WkpIztRx+D3t31eIa95P+3kLy1hun/rfLTf0PGxjo8JBwWS6FG9S8fGcjoFBwfRGpefqp5dwe9txRi8cR7eDGE3vC5N1FQAREQAREQAREQAREQAREQAREQARE4NUmsCoBVsrleaToRql4fCAiz+zrSsgq0OFzuTj0dRuTY4Exhwr5n1pParyHl3fV4nUFgiY1eTcUkpapQ8HP/ruqcNj9pL+/kLxyIz6Hm4pv1jE+OhVK5Xy4jIxUHy/cWje9Hwo51xaSUWBA8XrZc0cN7kkJsCI6SbKQCIiACIiACIiACIiACIiACIiACIiACJwggZUPsNRGNn85h/Yf1DHQFVk4pDKo0ZlUuEfdeI+M6tMb2HhrEWa/l0O7ahg/EjSpFXSxWhTFh2vIE2zMrtKr0cao8I578DiPvKeO8ltLiNd7qf1iNYNH/rdKQRenDQZgzmE3UXWGP0EnSd5WBERABERABERABERABERABERABERABF7NAiseYCVenk+Gzs7hCKuvwuKnxrDjk/lo8dP+QDVt9ZF2gp/eos7EptsKiFH89D5RScOLr+bTLMcuAiIgAiIgAiIgAiIgAiIgAiIgAiIgAievwAoHWFq23FpI+8P19Dcf20x/6qI4TrkmO9Ctirb7q2lvjjLAyonllA/noMZPz+8qaXzp5D1JsuciIAIiIAIiIAIiIAIiIAIiIAIiIAIi8GoWWNEAy/yWfEqTRtn/436ijJsWngOVmpTXpxJn9NDwRC++qPMwFUmvS8Fq8WH7ba+MFHw1X+Vy7CIgAiIgAiIgAiIgAiIgAiIgAiIgAie1wIoFWIpBw7abS2m+rzY4A6C8REAEREAEREAEREAEREAEREAEREAEREAERGAlBFYswDKcl8XWHW5e+kYP3sh6t6/E/ss2REAEREAEREAEREAEREAEREAEREAEREAEXuECKxNgxejY+Nkiur9fQ1/vMQ8efIWTy+GJgAiIgAiIgAiIgAiIgAiIgAiIgAiIgAhEI7AiAZb5tDTKz9Sw95vt+CS/isZflhUBERABERABERABERABERABERABERABEVhCYAUCLIXMq/JRdrfQXhN1p3U5QSIgAiIgAiIgAiIgAiIgAiIgAiIgAiIgAiKwqMAKBFgiLAIiIAIiIAIiIAIiIAIiIAIiIAIiIAIiIAKrJyAB1urZypZFQAREQAREQAREQAREQAREQAREQAREQARWQEACrBVAlE2IgAiIgAiIgAiIgAiIgAiIgAiIgAiIgAisnoAEWKtnK1sWAREQAREQAREQAREQAREQAREQAREQARFYAQEJsFYAUTYhAiIgAiIgAiIgAiIgAiIgAiIgAiIgAiKwegISYK2erWxZBERABERABERABERABERABERABERABERgBQQkwFoBRNmECIiACIiACIiACIiACIiACIiACIiACIjA6glIgLV6trJlERABERABERABERABERABERABERABERCBFRCQAGsFEGUTIiACIiACIiACIiACIiACIiACIiACIiACqycgAdbq2cqWRUAEREAEREAEREAEREAEREAEREAEREAEVkBAAqwVQJRNiIAIiIAIiIAIiIAIiIAIiIAIiIAIiIAIrJ6ABFirZytbPpECKgVTqpbJHhd+39I7ok7Uo5pw4Z70L73wqi2hwZAEzgEP/hXaDUWjRqP1nbDj0iXr8Qw48UVwDlaNdaU3rFVjiFVwDHiOecuB86OPBceg95i3JRuIUCBwb0hSM9nrYYU+ZhG+8QouplIwJGtw9LhXcKNTmwrcCxW7E8/Kb3rF9zXqDVp0aJxuPK6lz7w22YBvyIH32D/mi+9m4HpM0+LoceGT20DUp1RWEAEREAEREAEReHUJrFqApVarURQlqOnxrPY3wFfXSZOjjUDAoGHzl8swTE7S+Is2+upcLPa0anlHERu26el7vp2mP9nxepd+wIlgL6JcxMj2XYX4+4apfbST8f5jT330m9LY9u54au61MdyxAsGYAvocA65WR0QhW+a1JWRl+Kj7QRND/d5Fz8GiWAqojHpKPphGx0OtjA4t//yoDSq8Dh+Keur+FNVLgdxri0jPVKj/kY3+1mM7R9qkOHbcmI2ja4i6R7oYHzy27UVzLIHjj9mRSGbyBLVPTUSz6km9rDrBwCmfLcJe2UXtLwcjCjPW1AErYDkrnQ0XW6n8Wg32kZW9ZuLeVcS6jVqaH2+iu9IR0Q8Ay/bRqCn/VDbNP25lcmhljyPUPiVdXU5RtpOq+1uwdy+eFqVct4HCXDfNjzfTXeVcPQe9lo1fLsXsc9Py+xY6X3Ysm1NWFAEREAEREAEREIFXusCqBVinn3466enp+Hw+nnjiiVe6oxzfWhOYDrBMQO/fmml6bmzRKiDNxbnsPNeCd9hOxffamBhfXkCiKoglyeikt9K5DJGpAEs9Pkrl99sYtx/rA51C1kfXkZ2p4OoZpurBDiaHFx6XNt1IXKEuov3VpljI2RmHs2WQgz/qWvKhLhBg5RTqmKju4PAjQyHOgQaVzoPPFfrtFb2GxNclkb0+Dl2sFpUKvKPjVN3TxNhoRLs8Z6GYM9JYf7GVnj81M2xJoPh0S3QbUanQ6lXBdfxuN80P1dHdsLxrJbANbaKFHZ/JBdckFfc0MboCoeXSB6SQ+Pp0cnfEoYtRo3i91H+3hv7e5R/H0u+5dpawXJzDhnNjweWk6detdB9ezmc1xPGoFOJPj0WzyoeqS7OQvT0elQJ+l5ND37YxsVSgq1FR8q5kWn7Xi3OJe5vu0jy2n2XGPzbKwW+0MulY3etCXZrCtvck0vGLRjqXdd+MENykZfuXStEF3Dwu6n7UwGBr+BArGGAVgLNrkIr7unBFULUV4Z7MW0xD2V1lWBXo+HUjbfsmIvpxYHnvJWuJgAiIgAiIgAiIwMktIAHWyX3+ZO/DCajVlO8qJ15xcuiuesZHlqA6P5vTXhdH76+aaNg3vnxXRU3eB/OJ17po+mUbI1GFAlMBlru2g0OPDC1/H6bXVCUZ2X5jIRr3OHt3NeNyhnkQVatJujCFGJ+D0Q4v+k2J5G2OYaJukLYXx+bsh6ksgeydMYxWdFPz2ACeJTK2YICVr6b69hqGQz4IG9nwmQz6/9pBf5cPS76J2BwTxjg9hlQdOpMa76QLx4iLySEXjnY37jEPzu4J7B2zxzgpJFySTla5cVE3Q4IBtVrB7/HQ/vsmhnrAOejGO+E7+tCoV7Pji2VodX6aflZPd9XqjaXSWPXs+GwxSmcPu7/Xd8znPNwG9HkxJG+Jx5JlwJxuQBOoPvP7cY05meiZYLTKTucLi4e8q7ZzUWxYn29GPzSOPUQQG8lmlDgDm24swqT1U/P9GobaQgcYsaenUbBTS829bTiiGNalSY+h6LIExpomp4aELVF8bNyeQs46PSOH++g+sLzKG1f/BGM9S7yRRsW2m8vQa/3Y6wapf7iHMJkx6tflcMr5sXT/vIGmislIWI95mdIby0iwQstjTasWYuky49n+0SzAh+2n9fTVTX2uFY0Wld+Nd955PhJg1T9QR399OK1jPnTgaIB16O4KxgdWYpuyDREQAREQAREQARF4ZQpIgBXuvKoUYsosxKXqUakVfE43w5V2JkL0qlGb1agMKsx5FpJOjaHxh22r3zfjlXk9ruBRqSm5q5zE4x1gBXrIpJjZeEMeBsVN6+9a6NrviLjXzrbbNuCxhQ6wFKOWzLdkYBgcwva0fUkry+npbLgsge7H6mg6NB3CGLVkXJjAwJ96cIZ5MI+9JI/1Z5sZ+HszdX+fG2DFnZHBujfG0fKTajptS+4C6VcXk1eoWSTAMrDl9iL0Lgcdu0fwujy4AmFVvwvnoAdvNNUfBg3WYh3jLU7co97pQErP+ruKMY0OsvfOTiKpaVMZNcEAy93cxcGfDES0ztISoZeIJsBStCoyL0mm5+le3OHCSMBUHkt8qh5tghZThgG9RY3P4cHtUIjPNeFu76f2qUHGO1z45mVzunXxpCV6afvPaNhr1rQ5ifR0D81/HeZ4jrTV58ZR/n/Z6D0TwQq80ZHoK4MSLsqm9Lw48LoYDgyDDXlaVJhzzGjV4O4d4fB328J+VpZ73o+sl/aBYvLL9Dj7xmj7cxd91StUDTZ/x44EWAYvTT9potsWPpCZCbAeaaCp8vgEWLGX5LD+7FjcPcPs+Xb7sbKGWF8h9eoSCoq1TFS0cfjnIzOfa21RCtveG0f3f/rp/O8Q7ukcMeH95ZSWq1lLAZZxvZWMTA+Nz4xKldYqXCWySREQAREQAREQgbUvIAFWiHOkzzJTcEU6aruDwVo7E3YvMVmxJK634KjspelvQ7hnPWfkXJFDXLYBc6IOn3OcPV9pWhMBVtx5aZS8NhFvv53qB9qYXMaQq2O9hFVxOhK3xJPymjgMOhUE+qJ5PPS/3E/3C3aco5FECsvZixUOsAxqtGof7giHFlovzqbs3Ljgr/3776zGpdaRcUECusD4lUVeSesS8I2MM9ix8EHWkGYmLlkXrJzp+3szjc+Ohx8WqVZT9OkykuP89FQPz/Se0iXHYE3T4+4b5PD3unCGGBaT++ESMnK0NP+8lq6KuZUd1nOzKLvYQtO3q+nuWfq8JFxRQOkm/ZIBlmZwmD3fWY0H1+gDLHVsHDs+n43t+zUMtK9u/76ZAKunn32PLVJ6oVKReFEWueVGJup6qHqsH3eYcE+fZ8Q/5sEz4MY3K6HRZ1vZ9pFMJitaOfDzMAFoqZXTrsrE0T3CSF+IhFOtkFxuDQ5f6/9HK7Zn7CFCIIW4sxJJzIlsWOrSV9HUEnElVgz6qc+P3zVB5XebGR2I/P6hTrWw8aO56N0ODtxuI2wGGGtm62fzMKh8jDXZ6fh7J4NNkb9PpMcTWK78pjJidW6qftDAaH80a0a57EyA5eDQTY0sVmN6IgIs0uLZ8YksfO1D7Lu3Y8mDU8fr0as9TAxEVh6nSjSx5cYC9H4Ph+6qY3zW3x3zWwvYeIoJZ4edusfaGZu+pmLfWcT6rYblB1iBfoHJ2iWPJVCBVfjJQuIUqHmglokw1cK6DAsl78xAp/jp/UsLTf9Z+xWTERy8LCICIiACIiACIiACUQlIgDWPS1NoZev702h/vJGuBb+GK2RcmUeyeZLDP+6eGx4kmtj2mQK0ayjAWn9TObHx6uARDj5bT+1fV+nX/TCXnDo+hg0fz8XXPkjNw924p7MA/WlpbH1TEu7uYfZ/p32VKlzCBFgaFepQz9VnZgWHzfT9vpmmQwsbWie/IZfsfD+Hf9CKI4LQTZ0ew46P56Pyeth3Vy3OMT+GfAvWHD+DVRM4+0I/EC9WgRXNJ1u/MZFtV6YztqeVw785ElYoZHyggNxSAxNNg1Q91I17foClqNhySzkG3xgHdrUwPyNJvDCHktcaqft8LQMRFMAsDLAUNCYFz8SR45+qwDphAVYgD5l3HNrTMth2ocK+r3Tgnn+MioLGoOCZXJlAYybA8npxjET2MB64DkYre7D9ealxsXOvmKgCrOZe9t/fu/CS06nZeEsZZo0P2/02+ppDD68M9C5Lf0M8oy/YGeuKbCbQaK7vqJdVFHKvKyIjT0v3Uw00/S/8vTD5bQUUbTPQ9VQTzc+vYgWSomP77cX0/NJGe8Uq35vXeoCFmtJPFDDwx0b6Gxb/HKiMWko/WoRF66TiO81MjC/9WYw7I5N1b7Qy9mIjh5+YfX9XkfvZdWQkQO09NQx2Hg2sjznAUilk/l8hGVkafA7fIjMMKugStQQ667mGI5+JsO/pFtpXqn9b1B8oWUEEREAEREAEREAETozAmg6wEt6YTeEmPYfvbsCxag1Uj8JrrCZ2fLaApvtr6WkJ0/dGUci4qpD4/i6q/jDrd+wEE9s+u7YCrPjpKiDf2AQH72zEufT3/JW7ClUKG79Qhn5kkH339sypBGF9Eqe+Nw0VLmo+X8dS/YeXt1OhA6zAMLxtNxWj0cyrhFKUYINwv88fcmhGYBhp4OWbcLD3dhtL1+UoJL87F/+/WujviCDpmT7IlQqw8j9cQlKsiz1fa545HiU/nh3XZTH8zwbqnwn9YG68OJct51ro/2sz9c/OHT4Y2MXUK/IpWK/h0C31RFKMNj/Asr42i9JzjNTeY2OoP+ByggOsc7PImuin46Wjw8lSrinDUmWj4fmFZznxbfkUb1BTdV8D9p7Iz2u4aziaIYTL+xwcXWtlA6xxDtzUzCrGO8d6uHPWjzkvi40XxTNR28uhB0MEczNLK2z+0jpG/9lM4/+OoRceCiot+BYkoEd3SxUISre52fuDviiGgynEbTIyEiJkXxTsOAZYulIL8VlTP5xE9QpU5/qX/kyln5aOyTy1/cD9eP/ttrD9vKbeX0f5rSVYfA5e3mWb+xZmPVtuLsboG2fvrU24Zv3ZXyzAUjSBPnpL72ug4lgJ7Ko39N+Vqf2THlhRXSeysAiIgAiIgAiIwKtaYO0GWFYTWz9XgAEYeKaaun9EXp2wrDMaaL79yRKSnb3svW9gTnWVrjgGo8/JpEuLOUVhrE/N1g+k8uJXbEerN9ZggBVwUFvU4PLhXaRnzrK8llhJyUvilA+m0ffbRhr3zKtoMmjJvjwN3fgYTb8fWuUKLC+T/W4mWoZpfrIflwtUgYefSe/cX8SXaOJe/MkykhJ8VH29npHRCB5cFvFR6czE50wyaFt4TYcLsKyvzyYry4vtsU4ml3iuNu5IZdPlCbQ+Uk9X1dEQJut9hZj6+qj/ix2/AoZ4Bces9FBl0rLl86VoRoY48L2OwCRt814KhZ8oJdni5sWvNMwrXFKwnJdG0WvmzuqnNmiCs/a57K5giKmz6IJBoc/hpO7eQIilsOmWdejsJ2gI4fR5d4+5Zpo4a8w6fONT+zv/pY/VBUfBujoH2X9PZD21FvuoSIC1GnefeduMj2Hrp/LQOcY59J0WJifCf35jLsolP2mEqseHQw7PjSmLQzNiZ6RrqXuAQvEnS9ENjtBVvTAIBoXEC7JxvNQe1WyjhsIEcjaZmWgeouKHUVx/KxxgWTaZGT0U6rhAUavJuDILdZ+d0UYXnnllnAXvSKHtV70sPTWCidLr09BOTlL9cBfhvgH4JpyMhxruOn0ZmE9LZ8ObEuh72kbDc3NvatpMMzs+msf4vkYO/Wru36lwAZaSaGbTR7JxHOyi9snhFbiAJcBaAUTZhAiIgAiIgAiIwKtEYNUCLLPZjFY71f9haGg5M6pN9a6JVWDg6WrqnlvdAMtQkhAMpWq+Ws3Q9Igrxawj/8ocYv3j9A5oSCyLweyd4MW7Oyn6YgmjP62i60jbnjUaYJ2o69h4WT5bTo+h7SEb7TXLm11rWfueaCQl3U9vhXumiXvVTzvJfWceRpWbzr+00fZSiLqR6SCj87EGWg4t/PdggGX1cOhWW0SVR4vtu9qUwI5b0nH0TOKZ9yu+OT0G/6ST8eG51T8xqSbUGoXJpj4O/rBnkabwGso/V0ys3kXD77uOVhRo9WSfFUPnc4N4fQrGdcnkbdXR9GATvQ1uMGgouK6QlDgnh7/bOv1QrSLxtUmkbI5F7fHg9WmIyzLgsPVz4CfdCw9RrWBIUOHo984Euzk3lJOZwSI9sGDjlzagHz1BAdb2dF7z9kQ6HrHRVrn0dVryuTISjS4O3d3I+LEU6EzrnfAAS6Mm7fJs4kYHg8Gmr2S6B9aSQwhPjgosRa9j3Y1FxJpV+CYmafxDoO9bmE+nWkX+ZSl0/LUHV4iQS5NoJv+iFNRuJ82/aqK3ZvE6zJLPbCAx1k3jnxbOLqnblEhWgZ6OZ7pxzhsCZz4llZQMNT3/7mR8cO6+GorjyVhvwtU+yOH7O3EtXQo6tYEVDLCS35BFwRlxDD/fRu0fl55MYr524ccKGPxVE0Pdi4eAqp1pnHJ5Es7mfvbfH+J+E9EfCBXFnyohKUWDd2yS1j+307PPOXP/NJ+azsa3JOLoncA1r1pOHWskxqJism9izlBrXbIJQ7CXoZ+B3Z3UPbnU9xsVGZckMvhcH46Fo9NnVWA52b+rHse8XNB6SSYxQ8N07B6PeDKQiGhkIREQAREQAREQARE4CQVWLcCKxkKTaCSxyMBkhx17+5GgSkXhZ9eRYvVR95UaBqZ75qgsWhLLLfjHxhmoOvpFNJr3C7Vs+lXFZGf6eGlXw/Q/K6S/K5/MNDd7v90W/OK48Yvr0A4OsO++HlKvLiVtpIWDvzkyZdHaG0J4rCbHsn7sFUWs32I47gGWYVsyhbkeKp+wz5mF0JeZyMb3paPyejm8q4bxyXkPT9MBVvvPbbRVLAwyVj7AyqDnIRvN88K9cBVY+TcUk5bs4/BXGxgLN25LUUh5d37wwVgfA0MvjMwMrUnamYCnf4zhpqmnd+P6BGItMHqwm7qn7KS9LYs49SR1Pzv6gK+O0eCf9OBDIeXSbPJOj8U/OonlgLe+AAAgAElEQVTtkSaG2iIYj6o3sOHmIixq78oGWEYN1gIdQ5UhnwbnXbZLNHFfl8Kp70uhM5oASzfJvl0t4ZuAz//ghOizdWSRSAMsXZIWV//SNSsqq56sS5PRh+gdrTLoSMg14R0eY6hnKvlQm/RYs43B/+79czONnRpOvSYL5ysgwApUFBZ8sIBEs5vmSg8Fp8Qy2WrHPqvP0ZHzoDJrSd5ggbEJekJ8/qdTIBJfE4va66Xv3100/m140RFvwQDL5GD3bQun6zRdlsfm080c+kY144HAd9Yr6cpSijdqqb2vgsGWuRdT7DmZrH+9Ffv/mqn8Y+gKqJD37ZkAy8dQ7VjYaqbAukqcicQ0HZMdo4yPzfvhSKslIT8m2MQfv4+ep5po+t9kVMFK8lvzMXV20/LC4gNQk64spnijnoFnWqj7x/JmIDGcms7mtyQG+0v53R5af9NI58EjCaZC1odKyLA62fP1ZnzzwsBj7oE160TEnJJK2fkmGh5tY7ht3hvptWz8cilmJXSAVfipUlJStIzV9WP7XQ+Tw0tV/x3LX25ZVwREQAREQAREQATWtsCaCLCyry8lK08b7H/R+FMbvfVTwVTqB4rIL9SwZ1ctHqcftcVA0fX5JCSqg8vuu7MK5zEO55p6ijOw/tYi9H197Pve1NRqmrJEtr0/lY6f19JRGfgSr2LLretwVXZQ9ZshjJfksKVgnBfuHZj68r5SFVhqBW2sBp1ZjaPLsezZDBWtgtqkRhdvwGT10n/g+HarOVEBVtrb8kmNH+fgTwbmBFjjI5B5TSk5RWqadtXQPTYvgFmFAEvRa8l7YwztfxzBPWsI51QF1jICrEQPB25vYn72duQWo8tLoPxiHR3teorP1FL1eRsj0886W2/bgGNfK9VPTlVMpF2/gfw8J4e+10bGZelM7uum/SUHhlQNzh538MHcuC6BjW+Np+GxToZbHcRvjWFo7yIzH86712lKrey8KpPAWM3q22sYDjNrXqACyzA+woGfdi19t1QU0t6SQ1axnu6nGml63rGgCfvcjSwnwFJIuyoXz+5uBm2OOQ+2wQqsKAOs5DdnETNmp2vvxIJhieo4PVuuz0fp6WPPQ6FnIYzZlETZhbHY7m+kv2Ppkhttkh61141j6Og1riSY2PqZAgKT+C06C2Gahe2fyMV3kgdYgfAq9+p8rBonVfe2ojojg80XW+l9upGG5xYGn7psM9s/kgetnez+wbyyp5kLysTmuwpQdw2y757OJa/VtRlgLT0L4ZIHdowLaLckU75d4dADi/QiUxTKbirDGqei8aFaepaodgu9SwrrPleGrn8cX1Es+tFJXr7zyA9UoMSa2Pz5fOxP1tH4wsJweCUDrMD3h5zri8nIhNrvNzDUPetzbNax9eYSDNjZe1Pr3H5eipptt5Wj13jpfKqFlucjCe2P8QTJ6iIgAiIgAiIgAiKwhgXWRICV9t5C8tdPVQEEXh2/bqB13ySWc7IoP0fHnjsa8at1rPt0EbGxgd9Swe/1su/OalwrMIyHonhec00Wk3sCFVVTv/TmXFdEsnGSvd+dntJbsbD9jlyGn2qi4flxDKdlsPU8Ly/d2TP1a/b8AMunYCixUPjmdGLjtHgdzuCQkLZ/T+Dzzv0F1XBqCusujEdRq9AaNMEeO+Di8FfrGAu02FAgMJyh6KosrKn6YOPapt+20Fc170t3ppnXfDh35tdwRaUEt2V/sZ3KJ6Lo1aGAKtZA3rszSMo0olL8OHrtND3Whb3fG7LqwPrGfEpPMx291APNa4M9ef0LAgZnfRf7Hwz3kHgMnxa1nk23FKO09YYMsIwFSWx6XwJ776oPBqKzX7pLc9l+loXlVmAZt8cTl6IKnKqZlz4vkfRcPbgmqbi3idHeqUBhNQIsJU7PpqusHP5eN5YLcll3XmQB1oE76pk8Utxg1HDKzaWMHeqk9jfD6EqtbHlfBn63m4pv1TM2KxCJ5CxZz8mi7PXxwUUn2/qofqgXZ4jO74EAy2zy4w3T8FqtC9ZP4J0/kYPfT/fv62jdv9jw4uUEWJD03jKK12twD4xQ+f32mb5JywqwLs+jaKcZv3exmcjCiwYaRqsCJS8eDxVfrmU0kubR8zZn3pbKxnckT52LilYO/DzM0K9XQICl6PWUfiIff203tb+fuu+Zzs2UAOvmMvSGEx9gBSZu2PClTJrvaGD+7whHLltFo2b7reVoGePAl5Y3WYDu3Cy2XWik4lvt5N9YiGFegGU5NY2ycwy8/PXmkB++lQ2wQF8Qx7brsoP3sgN3VjFpn/4blGDgtM8WwcQQe27vmNMbTH1WJjsvtTL8v1ZqljFcM5L7tCwjAiIgAiIgAiIgAieTwJoIsBSNCmNhLKXvycSgVQh0z+17ro32ei0bLlWz9/5RNt5UQIw50P3ZS//uLlqeteMK9+03yjMQKO/f9NZkBp+1UftXRyBhYMttBYw/20z9P6aHaUwPNWp/3EbHQcdUgPUmNS/f1DY1I92cAKuNohsKUA8N0/zn4WAVlbY4jnVvSoXxMarua2ZsVtsMRadCY5gK5pQYLVs/VohKORJgqUh9Vy45OR6qH+rBkxXHprenovK6qPtqHYOzR1aoFTR65Wh/j7MyWXdeXHQBlqIm8+p8svK1ND/WxFC7J7g9fXYc69+ThqdnhIoftuOc90OwyqBGHewLMvWyXJZP6QY9Hb9qoss2t3Gu3+PDMz0kNMpTtejiuR8sIiPfgH1PB5W/mTuEMFCBFRj3ojUquENMu255RxEbthlofLCOntqFTXKWHEKoVpP17lS8jWPYm514HX70W1NYd0E8Q/9poe6vY/img4fVCLACyVmwOboX4i5aXoClibew43O5MDlJzYMtTOhj2H5NNmMvNXL4d9H/8p//kVLSsgNTsfmw/WmIvIvjg0MWa38zNGfI0aI9sOINbL2pCL13mJe/2L7o0KfQF8exBVj9z7TS8Kx9pqH3cgKsxItyKDkvFvvuBiqfjL4SMv3KAvI26mm5v57O5qUrsBY6KBR8rIzUjKmZ206+AEsh5XQjvRFVn6jJf3cSPX/uZ2L4aLB5IgKs/I+WkZbgWWNDCNdCgAXZ1xSht3Vgey7050F9agY735LA+IE2Dv8icPOO7qUYNGz7Qimdj9roqlWx8a6FAVb+DSV4X2yi9eXQQ3NXOsBCpaboc+Ukx0HvU/U0/Hfq76I6xcgpnyqEzm5euKf/6L1Rq2bdl8qJdY6w/+52nMdhJubolGVpERABERABERABETj+AmsiwDp62AqmfBMJOxJI32Jhon0UlX0cVVE6ytAIHf8cYrhxAvcis0gthzDu7EzWXWKl+8lKmnb7iXldDhvPt9D4QDW99VNVM8bX57LlHAt1P6pkoNE/FWBdquLlm9vnBljuSYaH1difbaN739zeIIZ1yWx8byruhjBNsANvpFez6dYyYlTuYAWW5aI84r0j1P5uaOohOjOOHR/NRouPtgeraK9d5Ig3JXHau9OiCLBUZLw7n+xSNRX31DM+MLdKSZNpZuuH8vB193PoB924F2mDdNyHEBYlccrVaagV6PhtLa0v+xYMIVzs2oh9ZzHrt+qxPVBHX/1SAZaCovIHWsAs+poKORNo/14dbR1Ht3kkwBr6Vye9XXPfq+jyPDyd/TTvntvfJu2CTKxmFwduCz+E8MjOTAVYepp/0cmRx8PCy/NwNfTSdmAqiIo/N4/0NCezK7Di3pLPulNjqPt+DQNtHrSFcey4dm6ApUoxkpDgob9miX5McTFs+Uw+Rk1grvupIYSmtxeQu96Is2uYynvbcQbzBYWNX1ofvon7CQ6wWh6vp/Pg0QB2OQGW9cwsyt4Qf4wBlpbaz9cyuIz2N9rSBLZelRHs/xaYIc4zNBFsZD5mG6HzX4M4jlSCBE7HWqvAUhTyP1hIap6eoRc7qX1iqYbZoT+SRwKs4f2ddIUIqDUJRopflwo9/VQ/G663lI78d2agRDiEMP+GMtISFw+wmp5qxTHvhxjLa7LJylOvaA8sRati25fK0bnt7P1K29xhasv5o3mM6wQa1ZeermPvd9oWbklRkfe5ctLjFWw/qqWvceneb3M3opD87kLS6KPyFyP4fMYFAZYq38q61+qo+klP2FlwVzzAAsyX5LLxbAvD/7FR/aepXou6rFi235CDs7qNfQ8fDeu0qXHs+GQWNffVMtSynOD6GE+SrC4CIiACIiACIiACa1BgjQVYR4V0BWZK3pVDjNFLx59a6NjtiKpRbDTW8edlUX5RPF1PVND8ImR/uISsLC+Hb21gbPq7c+rVZRQUe6m4q57RETCclcnW17h58e7eqS/A0xVYenxMVHVw+JGRBf1uAouVfKqMxGRouLeW3o4QT6OzAqyW3WPEm1xUPz7rV1lUJJ+fjEnrpv2vg4tXpEQZYJm2pbDpHcn0/9GG7X9zq6aOeGZcW0JuoY6O39ho3RN+1rbjHmCZ9GS91oq/f5yu3aP4UEcVYKVct4HCAqj9YQ2DTQsfFo5UYFV8tZX0Dxegbe+n7ol+3KGZglxLBVgTBwYZ6p96L0WnJvOsxOCwS1efnZ6Dc22tpyRijnXP6WsV7hqfCrCM9P19kCNbST83BU/3CH01Uzts3pGCNX5WgGXQsf4LJcSqJql+tAO3CzTpZta9IY2JyjZszztBoyH7jVnEmX3YHmpgoDn80D3L+ZlsuMDCULsba5ZuqgcWOjZ8phBLjIrRl1up+G1gGJuBLbcXoXT3s/8HIWYaO0EBVtq15eQXqml6pI7uyqMh48kYYOVeW0xGnpquZ/pJvzgtWIHVUK2n+M0p6FQ+hg4P0vZUDxOB3GYlAyyVQtJl6SSlBlLMZb4MBqzpuqmV/X4GX1peiGV5XQ4bzo9l3DbEYPPCQEQTqyP9lHgYGaXt5XBVclrSLrDi64ysB1YkAVbP830LZjw0bUoiMUW1sgGWTsX2L5WjHR3ipa93RlTJqEozU/JmK51/6MTeucKzAMca2XxjLj0/rqN73oQQ6iQTO28sQJkcY9/XmnEuPTnonItLX2pl02Vm9n2rDW9wtxcGWOmXZzDx3x5GesIf12oEWJpECztvzKTq7jpGBqd/HCtIZst1qQz+vZbavx+5NlWkf7CQuMYOap+ZmPvdR1GwvjaTrHwvdY914VyJNgrL/HjKaiIgAiIgAiIgAiJwvAVWLcBKSEjAYDAEj6ezc+mGt1MHPqsCa2MMw4eH0GvdqItXtwJrfoBVflMZ8apx9tzZNt2PQiH/c2WkmSbYf2tLMBSwXJ5PmWWAlx+a7iVzJMDy+ai8swZ7mOGNKW/Jo/BUMyPPN1P1hxC/9M8EWD5cA+PBBsST0Y86muKMKsAKDDMqIcXqZd/tNsKNVlB2pHHq25KYqOnh0EMLp4c/cgEf9wBrwSdnboA1qdGTeWEC2kCJVoiXPjeB+FgYtg3hDNElPbYwHqPez6gdLNapoVj2wHC43/bjWViwFfz3xQKsrZ9JouPhZrqap1Y2n5bJxjdZg/89XtnBoUfmVppkXpGFYXyClj8OTlX8LfJazhBCQ6BK5wPpjNWO4pp+plPFaInPM+IZGl/wAOtzubD9ujtsFVrhx0qIddhpsZso3aSfaeJufV02ZefHMbK7maonA9e/ka27CvE393LgJyGaOp+QAEsh86Nl5GSqsT1YQ1/tUfGTLcDS5CWw5boMHFXd1P/Ly7aPZM4MITSWJlD+7nT0gWHHY8Ps+Wo7nqSVbuKuJvmMGMZs4zh6vKv2I8RSfzjj35BP+Zkxx7WJeyQB1vGahVCl17H9lhI0zkl6GiL7g2LItBCXoMXvcFB5t43RFQ5Kkt9WQG7mJHvv6ZrTVzH+TfmUnxZD/9M26p+LLr1SYnSUXJtN5wMNjM4Mr18YYC11vQT+fakAy3pBRnCW4prH+vDMqsZVmzVoTKH/zgS+42hM4JlVRR5zSjqlZ1ro+nUDXW1TN191cgzlb4ij8qHOeT0nFQylSZRfkhD8sWOicYDqR7oCbRblJQIiIAIiIAIiIAKvCoFVC7BOP/100tPT8fl8PPHEE4tiBnpgmYriKLkyI9gDK9CgveOJZgZGLaw7z8ven4zP6YHV+99OWp+zr9hQwtizMlh/aQI9f6yi8X8+Nn+xHJNjhN3fnA7etCo2f7EM49AAL3w3MEuhQs4n1qH5byWNe6YPLcJZCC1nZ7LhEiuTTb0c+GGIB/aZAEuh7ec22sNO6R7B9RlNgGUws/XLeaj67Oz9Zmv4jWti2b4rB+2gnRe/3hr2gXStBViBHlj6kljiE70MV07gnD1sSqNm/VfKicXBwW91kfmGGOofXGSGrAjoFwuwUAL9znwzze3VmWa2fTQPVaDUQGvAYeui4rHBYB+t5bwS3pBH6ZmaiGYhnBpCqJB1fTEpxnH2f7djJpQKNYQwkv1RzLFs+0I27Y/U4d6cPSfAIs3Mlv9Lwfb1RsYCudD09eQ40EnlL0I09j9BAVb2J8rISlNTe38lg81Hz8PJFWApFH+6hASzi4pvNOFJsM4JsALnUpcdx5YPZaNWwcG7q5jQxrwiZiGcf53OBFh/aaThX8dnFsI1FWCZrey8ORNXYAKNB0LPdjnfLO51Oaw7P5bRvR1U/Hp5QzcXu19osyxs/0g2jXfX0DtdjaRYDGz8QhEmn4d9d9QuqE5b6v4Tuz0JTfcAg3Oqm+cFWEY9aa+1oAnzY8aR99DmJpKWoWGgso8J+9zx4iprDJll5uCijoYeDv6kb6biWp0Rw8Zrc9D4fPic/pCTnsw+Dk2cDo0anEMuFKMGtc+LO4p7v6NtkOpf9C9FI/8uAiIgAiIgAiIgAq8IgTURYM2dhdBP4wP19NS7iL88j5JyH3vubMWvnTcLocfFvjvqVuSXR+P2ZLa8PZXB52zUPu1YEGCpTEZ23FzI5OFWDj9uhyQjOz6Ww/5ba5mZUDDCAMuwM4Wtl6fg7B5i33emZzicfSnN7oH1tbo5zd6jvuKiCbA2JnHalWk4WgfY/4OuRd4qlu1fzUE3OcGB2xsJUawUXHctBljhDkoVp+PUz5dAXz8vfrOb/I8XMvhAA0PhWuFEeCLCVWDNWV2lpeSzxVgNgQe2ejbevB5GJ1BiDXj7Rmh4rIvRgSWabc3bn+TL8ynaqY44wPKkx7P1nYkcvLNhui/V1AaXG2ClXlVChnqQAz/px3pFwdwAKxD/qgMh9XQoVJzIKVenM/L3Vmr/HmJmvBMSYKko/GIZKRYvld+sxT6r0PDEBVg6Gr5dQ28gP4/wpT0jg+1vTKD1kXo6K53osxcGWIFNGbalsfUdiRz4ahWTsbHs/HA2nuZe9t8fIsTVqdl4SxlmzTgHblre7HAR7v6KLpZyRSGFW4y0/66OtpcWlkzqss1s/0getHay+wfhZkg1sfmuAtQr2APreFVgHWmKHqj8rQ5V+RtC+0iANfDPJur+tsLlV8H3U8i4voyctHH23tGK2w3Wi7IpC0w8sswJD0JfNAsrsPQb4knNhv7DEzh7Q9e0Wi4voHyzgYaH6xloWLwPl8/lm/NjTuAeF/iFwr/UyEuVnnVfKcbidbF3Vx3enATKT1eo+llkIeOKfkhkYyIgAiIgAiIgAiJwEgisiQAr98NlZORowO+h9kcNDDW5g18Gcz+2PtgEd88dtXhdoLYYKLo+n4REdbB6Zf9dVTjm/TK6HHMlN5adH8rBXd3J/ocHKflMGYk++0wFVsI7iyjdamDgH43UPTNB/AWZwaEPBx+e9aATZYDl6h1m77faF+7uvCbuY1OzwC/vFUWAZTwjnS1vTMTrdDHWF2ZM3Oy9cDlp+HEXzjBFQidTgKUvSGLbdWn0/81G/T8dBGaNS08Yo+LxcA+ykZ2OpQMshdyrC0nPUqi+t5GRAS/bbtuAx9ZBxW9GsZ6eTPGFiXjGnNirB2n+ywCuCCYDnAqwtLT+rmumiXv+G3NxNfXRUTG1gbgzcklLDfTAspH2jhyGft/G8LygbDkBlqLRsPWWYhrvq2W4y0dCiABrtp7hwmy2vjaOzicaaHkxxDiYExFgaVSsv7mMWIODQzc3Mj7r+TYYYBkdHLitOWx4O//qONLEfaK2k7bKaBtSg3VHKik5Wpp/XE1XQ2TXnso8NXvj+Ist1D41GqwCCRdgBWbnjEnTMNHpxl9q5bSrMnG8wgKs9PcXkVduYODldvqnh2nNltTEGyk8PwV6B6j9b/gm7nlvSYeTMMBK/EApJWVaWh6op7N+kcZ9s1BWP8ACdaKJHZ8uYPDZJmyHFLbckIfWMcG+OxuZnrQ1sgt+0aVWZwjhCuwYps3JbH5XKpMVLRz4eWDMo0LhDYWM/bWRnukJZFbifWQbIiACIiACIiACIvBKEVgTAZY2zURCjo7RuhEmhqcTEa2e9bcUE6vycuArNUxOl9QHSuyt6y1oFA/9+0YDE5wd+0vRUnZzKebJIfZ8owPLG3LYcJqRhoebcWdZydug4LBYMY2N0FXvI6lUR90PWnDMfg6IMsCKqALrq3UcrwBLsyOFnW9Lwdk1xL7vhqgMi1L55AmwFNKuKSG/SEvV3dXBEElbHM+29yRT+bV6xiIIjMLRLB5gKWS9N4/0XBUND7cy2BYINgxs31WEu/ZoDyxNhon8K3JIStHgc7jo+VcPzc8uPq38VIClo+v3fTMBVs4bMnC1DdI93Rw+MGw2KdHJgW80o6j9TPQsrEIIF2DpC62se18K7Y800GebvZ5C/NsLSB7oxvbP8WAIvVSAlfqBEgrKtNh+Uk2fLUSl2QkIsBSDmh1fLEMTouF1MMCyujj8+UbGIhzhmXhJDiVnx+Jo7KPzUPQBVtwpSSRmqCMPsDRqcj5USKJ7hEM/7QmG/4FX2ABr9gX8Cg2w8j5cQnqOmp5/9jAeotBPE68n59xEGByh8d/hqo10ZL05Cf8KNnEf757AO1PGO3UiNPEmTDHKyjVx12gou6UMq87L4W/UMNYf2YV7PAKsQCOnxCsLKCnXYO/1EZumoeNRG60V0X9Owv+JWqsBlorcDxWRkaFQ+bVa7NO5qXF7CuVn6Dh4T3tEzfaj/NMsi4uACIiACIiACIjASS2wJgKskILJMWz/dD46/LTcU01nZ3TDqKI9KymX51OwUcueL9fhQUXuB/JIydcx0TxCw8+68OTFUXihFf+wg45/9DJpV6NReXAdGUMXYYAVc1o6m96UyGRjLwd+tFgPLDeHj2OARW48Oz+UhX9glD13t0TLt2D5kyXAUiWb2PqpArTjw7x8V/vUrFWKhsLPlRA7EGgs3r9kD5OoAyy1iqz35JOS5MH2aDv27iMprJHtuwrnBFhT21aT8/5cMspNKPjo/XMDDf8OX0WR8rYCCrcoHP5Sw0zIsvW2DTj2tVL95NTTe9r1G8jPc1L7RC/WdRYCXbnmvxSjlsScGDwDdob7j3z+VFgKY9EHJpbzu6n7UQMD07M2qq1GNl+bxKHvtM00tk9+byFF5dOzEM7v66IolH2uDKvJwYFdTUyGKvxb7QDr/GxOe10crQ/X01E9ZaqOMbPji3lMVrZx6NG5YWEgwIrXTXB4V2vEFVjJl+dRtDMwcUMDVX+Ivtty+pX5ZOYoNDzYyFCIiRrnnjeFpIuzyC7ycfAHHfhm3TajCbCcXQNU/y5EBaJGRck1BZjUbg4f6xDnY77LRL6BdZ8rJy7GwcFbm5jVP3tmA6/kIYTqFBOnfKoAb28ve7/VG3EoclwCrOAZ0LD1y6UYDArjNb0ceujY+w/OvTLWZoBl2JLM5itSmazt4dCDs8YpqzTkf6wQfUs3NU8s/mNF5J8AWVIEREAEREAEREAEXhkCazbA0pbEs+P/soJ9JDoerqG1eiVKrcKfNF1uLFs/lE3vL2poOrDEe6kUMq4txlTRiO1/0xUoEQZYSW/MpfgMC8P/bab6qcVmITzOARY61t9aTKziZM9tNtyL/UivVqOL8eNaZPjmyRJgJVyUQ+m5ZloerKKz7uj1EbMjlU1vTaThvjp625aa9y/0dRWqAktl1JJ9dT7xrlGqf9aFa84kW+ECrMD2FXKuLiSz2ICrvZe994Z/yMu6qoisZCcvfr1tpi9LuAAr0MTdsMmKt2+CiRYnnlm5WLRDCK2XZeL8cwcTs7gyry0hJ189MwvhbClFo2X7raW4bV0cfDhMz5cEI9s/W4jWO8zLX1y6IkFl0aLV+PFO+vAG+tKoDWy8vQjD6CB77+wMtM6f+zornTy1nZbnpirGAi/jJblsOdtC20/r6er04JvwzjS2Tz0vloF/2/FEcTuKOzsZ08QYXXuiD68C+6NN1OAeiOwaNJ+eStFWDZXf75ieQfXo4UYTYPmcbsa7Q1TBKAqmbCNqxXXyBFgaA9tuLcLf3sf+H4ZuIvZKDrCCM5xeFk/rg7V01EV2HQWumuMRYClqFSlX5lNQrsftJPijUNNjLfTURDbMMbKvYWswwNJrWPfJYiw6J5XfamRs3lcBfW48m6/PoPsxG20VrmX/iBKZjywlAiIgAiIgAiIgAiePwKoFWK95zWtmZiF88sknoxdRaci5Lo9ki5v9327BF/n37ujfa3qN9GvLyMv3sPcrtkWbw5u3pFL+eiMv39V89L2OBFiuqWasnjBtpIo+VkJyGtTcVcfQzDTfs3b5BPXACuxBylvzKDzFTN9fa7A9Gx7cfG4GGcoodc+GOoCpYzkZAiwlycyWT+eh6h1i77fnDZs0aNlwcykWlZMDX7UxOXvWwgiuMFWslpz3FZCeqaXntzYa9zpQJRgpvz6H4acb6dgbaoiMkR13FOKqOTqEcM5bqTQUfKwIU0s7FU+E7zBfdmMZuv5+Dj10dGaqxQKsyTCnMdoAKxTLYgGW4dI8tp5lpvmndXTVhfnApMdw2sfz8UcYYGlSzZS8P4tYqyY4zfyRl8ceJsCav9M6Leu+XEqc4uHA12rQlKdRcraBuh+3Mjbki/a0JroAACAASURBVPpB0nJOBubhProOHj3fGrMK73iobakx5aiZaF1oockyU36BnsqfDcypqpq9+6q8eErP11Hz096Qs4NGE2At3QPr5KnAMl6ay5azLHT/rpGml0KPCX7FBliKltJbSolXxtlzRxPeKEbmrXaApeg05H20mLQkFR2/tNHWpGL9JwqwGBUm6ruo/NkgnkV/SYngRhxcZO0FWBlXFZNboqPl8bqww4pjL81l/VkW2h6rp/2wc2bW2kiPWpYTAREQAREQAREQgVeiwKoFWBqNBpVqamCSyxVBU/A1oKuK17P9pmI8dV0c/OnAwmoNwLQ5ifVvtlL/3QaGh2fVc0wHWHq/n9aHauioXViioRQmsOPqDCb2d1L56zANwk9ggKXEm9j46QJMXhcHdtXjCNVFN97Mlg8mUvvd1pm+ZKFO3ckQYOVeW0RGtkLVN2yMhAiotJlJbLshDV/vEIfu78AZUQGNQua7cslYH4PT1k3tk6PkfCAPVVMvvV0+Rg+N4gk3dSNx7PxqNh5bD/t/MmtIySzgwOxWCv5Fer9p2PzlMkaebqT5haMP62suwIrRsvULpegDlVF3d+IOV9EUZYB1hEoTp6fkQ/nExQfGOoL9xSYqn1h6JrWYU9PZ9JYEBp+xUfuPqSoQXb6FjdfkwIiDhoeaGe6NvPyq9NNF9P7cxtCswp+kt+SRahqj6tH+eUGTQvp78rA6h6n69dC8j5VC7OuzKd2m5fA9jThGF5ZIqgxqApDh+gKuZIBlcoxz6DvNTB7jTJ3Luu0rCinvymb0T21MjizRz0mnZtMXyohRT3BwVxMTYQp7ViPAKvrUOpItLnbfZltwmKbL8th8upnlzkI4tr+dw79ceoYPy440Nlxupfm+WrpaoxuGv5oBljbbTPkHsjFqPVR+t4mx6QpDlUlPwQ0FJCeo8Tk89D7fQfPfRkMGspFfO8sLsJKuXkdxsYr6B+ror1+p7zAKie/Mp3iLiZ4nm2h+4Wjl5/zjUdRq8j5dRpoVhvZ0UvvboWN0iFxMlhQBERABERABERCBtSqwagHWWj3gpfZLk2lmwzU5KIPjdPy7l/6KSXx+FTHrzaTvTMKapaLlF630zq8YmQ6w/E0DaNLNdPyhna59kzNfOPVlcZS9PRN/1yDVP+/GPWfo2Ky9MgRmcSvDoPJQ8c0aRkPnGEsdxtSD96mpbH9LMmOHuzj8aGTTcmtzLJRfk4PR66Tzn9107h7DGyjGUquIPzOJ/HPjaf1Z40zfo3A7Ev+eEso36Oh8tIGWwxElPxEdU+QLqSm5q5xExcmhu+oZn9dKJOmyHApPN9P9hyZang+zfyqFzKuLySnU4ey2U/doG2N94R+YAxVLJW9LD1b/DO5up/7J4akQVKcm6x25JMW5afhlO6NhmyjHs/OrWfha+th7X+ihTksdv1KczM7/s1Lz9XrsQ0f39YQGWIUamm6roXvy6AO0+ZxMNl4cT829NQx1LBIIzQRY4+z5chOeKCpI1ElxbPxICn1/6aTrpfGQgfRsT31+PBuuzkI1NMS+73RM9UObfqlTTaz7SAFmrQ979QANv+nBsUSD/5gzMtlwrpr9d7Qy5/HXbGTzZwpRugapuL+T2bWO6qxYtn0km8mqbqoenVttpQSGHX2xjBjXJNU/bma0J/IgLXAYkQRY2i1J7HhnCkN7Oqj5bYj+O4EZCzO1THS4ZoZVLnVNrui/KypS3ppDwQ4znpFxah5oYawvfDBjOS+b9RfF0f4LG+0Hwt10YTUCrJLPbCDR5FiVAGv8YAeHHp8fcs6TNupZd2Mh6sZuDj8a/YyqqxNgKaS/KYvMnRbGDvTQ9JdBnONz76mKVk3C+WkUnWMl8BuYZ9yFvWGU3pcGGbItZ2jh8gKslOs2UFgA7Y/YaKsMf+1EfH2r1KRdnkX+djMdTzTTHrgnLdVPX6+h6EOFJKdpcfaM0fqXTvprVipMi3jPZUEREAEREAEREAERWDMCEmCFOBVKvJ70s5NI2WTBYNYEK17cow4GD9np+s8Ak7Mrr46sn2Bi0wdTqfl6E74UExlnJhCfZwgOY1Lp1TDppv+lfrp22xc8hMefm0paqT64JZVRR1yaIfjfruFJxoemntj9Xj+2n7XNzCgW8gpKMlJ2efLMPxnTzBiMKgJjjuztYzMP5AP/7KFvkanUVQYdqeckkrQ1FpNZjd/nx+/1MdZop+OZHuzdoR8YM9+ZhSVeFQy7YrPNqJVAn2839s7JmWFP4/vaaXs5ukqAZX1adBo23FaGJUSAZdqayvq3JdL/j1aa/zm2+K/aKg2lnygiIUWDd9JJ1997aP+ffcE6KquZ7TfmolErjB7opuoX/XMDE72GzDdlkbXRwMDeAQbqx7DXOfDOHiKTFU/OOjWD+4cZ61sknFApaMwa9Kk6/AMOJganl1UUMq4rxtrbQ+Wc5r9TvbVcVR0cfmzqofdIE/dAD6xwQwj1pfFsuyqLsZcaOfy75U3HGBxCOC/AUifGsPGTuUw810L938NXIAR39EiA5Ztk720NwT45kb8UVHrwOZd6SgRjiZWSd6ajsdup+nE7kyEOV0kwsvGGfGJMKlydQxy6twN3mEtZsRrZ9LF8lNYeDjy4MDzOeHcBuZtMjOxuourJ2ZVhKjI/VExOjoa2R+tonzcbm7Y8lW3vS8bTO0TF9ztwRvEsa8xLYcv1KUxWtHLg5yGm4gu0004zYlS5Ge2Mfsy2Ks5A3ltT0OkiP0PRLqnotMRnGmdWcw+MUvtQG6MhQixdfhybrsvGcbiD6l8OzQkk57/vqgVYZhf/z955x0da1Yv7ed/pfTLpmfSe7RXYRQFRFEQplqsIWFFUhIv1qqCIKHAtyMWrYAELoihcV2kWUGwIbN8ku+m990wyyfSZ32cmW5LsTGYmZTe7v/P+ufuWc55z3smcZ77f76n+eedJ3dSek0P5Rj1Nv27DNTH3XbdcXEhBiZKO3zXjmPcDhmF9BiXnmUlEYNmvLSbD7Kb2B70x5+lC/JdVYCkkrNts5L4+A8WEk+7nBxlpWPhlVuUbyb80i/Simb+j4SNcm22icwpnpwfvhBfXqAfvsBf32EJ/U06/wFJl68l7aw5p6UHaftvNUF0yL66KwmvyyS7XEc5hnupwMLB3nJGaKfwJfLYl+46J8wUBQUAQEAQEAUFAEFjNBITAWs2jI9q2eALamVQ6PSEOf+cwE5GAJgnDBhvr/iODgec76Pj7dEIpGVKGgTUfysdsUcwsopzTdP55GGe/h6kez0zKVng7+MvyKKgMRApoe2KszQxbUym6OA1TqiqyQUFg2sfUmAfXaIzQIgm0Ng2SJKFN0aBQySjCZjDgZ+ywg64/DzI1PLMAlrRqtn6+kLoHmpkanb2g07Hx83aG/9bHYJ0bvyNA1sfXUZjvYSGBpVtjY9N7c5ZXYCkV5L2vEJPLwZFfnqjRFXOglySw4k8fSack7XUZFO6wMFk7TPOTQwsWaFeWWdl4vR21WqJ3Vz0dr54sesLpUWtuKESvgb5ft9B+4OQIP/3WDDa+MwPf6Dh7v9E9p6H6TVlsfHca9A/y6v2DJ0WOrf1CVWQu9v2+mfaXE48M0RVlsunGdNxHujjw85XZ3UxXaUar9OJs9+BzxheH8UdocWcoUw1U3lSI1D3E4Z8Oxqwbduzu2iIbm2/Mgd5+XnkgnNqpoejjWWiDQTxDbqYHfWAzUrDDiq93lP0P9MZtWCQCyxpktH758iyVaTrMmaq4AsuwI4uyc1U0PtLFdHRXGbf9xwSW45UujvxucfNF1isxlpmwvzEd1ZSH/pf6GTrkSehz91gDdWus5L8mFUuhLvzbyIkjGGSqewpn8yhtC6YZzggsndPF7q+3xO33sROWIwJLUiqwnJtK8RtsTB0ZoeW3C3++xG6cRPpb7RScZ0U182eIUCDARJuDkYNOJponcMXPKE247+JEQUAQEAQEAUFAEBAEVisBIbBW68iIdi2NwHGBBYfvr2ViSMK8I5OKi0y0PNLCaG9yUWCSVUvlR4uwWmdWD74JL86eCTp/28/0rCLo4UiBUALrdmWhkeLLMjHaVCg0MgqlhCTPqjq+UO+DAZrur2d4cNaDwgLtvaUYatrp3D9fhoXvHSJk0lLxwXysGWoijwq5OXhXc9Roo/DjjwmsQGMXux9Z3AJ2fgSW9WI7druXw48mmBu7QgJLUsnoSqxUXZdFcNhJ0y96cB4VgfEmnuUiO1WXpjD61xYa/zxXTslZerbeWky48lbI76P2Ow04o2XvFpo598Y8XIe6qX58LltVtoFttxQy+KdmWv52sglNe1cJZZu19P2+lfaXE0/PPSaw/E297Hk4+ZSyeFxWy/+HU7irPpSH51AvjU8nNm91xals+kg2/t5B9j8wyLGYKNmspvA9+aQXaGfeGcBZ3UvNL+PzWyiFcLGszBfaWXtZyoICS1mcwtrL9dT/ONG6fdFbY720gKqLTEy82s3hXYnbkXCdPqVJScpr08lZZ8TdNU7HriFc81IFk2UgqRVkv8NOVpEelUHBwDOttMdK/559c7WejXcWo3V5ePWrTQk/dikCS1LKaPKMVF6fQ3BogqZf9sWv15ZAy5QZBqo+mIfBMrNJhd/hou+lQfp3T+JP3GUn8CRxiiAgCAgCgoAgIAgIAquTgBBYq3NcRKuWSuCowNJOTFH9vU4y31OIunuI5ucmFiiAHueh4eihG0qwOXqpftyZkKiK2w05LJeIyKvZ+krSKdCkzhQgDx9Bpw/v0dTVsLYKeucKOFWWiXVvVnDwkfGFoxskMGzOYsN/pDHwdCOtL8VOZYkIrOuzGPpzC80vJpW7d7zdBTevIScHmu6sw1GZRkGel5ZnHImzyzZw7oezaXiwjfGF0irjgj5xguXCTEpfl8JE9QAtT48TTHanM0mi4KNFTP++laH5gTiSTNb7CikqVVJzf0tsKSZJWHeYcLwycXItKUnCWKLGGavej9VE5VVaGn82FL+Gziwu2lwbVtMEAw3+01O/KokxWuypunMzqXythqafdOMcSVxS64tSMWkcDDZGZ6Pdmc3GK1Lx9c2kjvoTKD8WFlimgIN993UttjsnXRcWWGsu1tPyq3aG6qNEbWoVlF6up/W3k0nNjWgNTH9bEaXbtPQ800bnvxOzI9oiKxVXmel/ZYSRAy4C3uCyz7XIZ6VSIhS+dyJkM41svbUAxz86aP5D4tFwEYFVGKT9p82xd0mN8nzj5jTKrkjDWdNP6zMOAt6EWplIT2bOkSVUZRaqXq/lyEP9+BOf5ok/Q5wpCAgCgoAgIAgIAoLAKiUgBNYqHRjRrCUSkCX06UpcQz7Qq9Aog7jHE1h1xnusLCEHQ3ELgse7zXL/v2xUEnL6E1vQKWX0NpnpwYXrHMk6JUplEO/k4ldI6gwNAYeXgCeEwjzTxmAStwsvVKXQQrsuJktSRpetwjviXdLCMhxlEq5LJ47VRUBlUxFw+BYvqRfojjZDHZk3sXZ5nHuphCZdiXfYl7isTQBl+D2XPIG5tfMSuG4xpyhT1EhuH76Yu6Yu5q6n4RqVAo0ePI7kPv9VGVqCY54kWUtos9T4x7yiPtVpGGrxSEFAEBAEBAFBQBA4+wmsmMAqLi7GYrEQCoU4ePDg2U9S9FAQEAQEAUFAEBAEBAFBQBAQBAQBQUAQEAQEAUFgRQismMDauXMn2dnZBINBdu3atSKNFzcVBAQBQUAQEAQEAUFAEBAEBAFBQBAQBAQBQUAQOPsJCIF19o+x6KEgIAgIAoKAICAICAKCgCAgCAgCgoAgIAgIAmc0ASGwzujhE40XBAQBQUAQEAQEAUFAEBAEBAFBQBAQBAQBQeDsJyAE1tk/xqKHgoAgIAgIAoKAICAICAKCgCAgCAgCgoAgIAic0QSEwDqjh080XhAQBAQBQUAQEAQEAUFAEBAEBAFBQBAQBASBs5+AEFhn/xiLHgoCgoAgIAgIAoKAICAICAKCgCAgCAgCgoAgcEYTWDGBtWnTJjIyMiK7EL7wwgtnNCTReEFAEBAEBAFBQBAQBAQBQUAQEAQEAUFAEBAEBIHTR2DFBNbp65J4siAgCAgCgoAgIAgIAoKAICAICAKCgCAgCAgCgsDZREAIrLNpNEVfBIGzkYAkk/PRQkZ+3oZnKnQ29vB4n1Lfkolv9yATg2dXP1VrrWSZPHS94kpo/IznmJnePUEwobPPtJNksq/NYuCXvQTP4GG2XJLJ5PMDyz5GmqwUUjKc9Ff7ln1gpS2ZZLhHGTiy/PdeqLGaNVYyUrx0vTS9qD5JOSYKNkm0PzexqOvFRYKAICAICAKCgCAgCJwtBITAOltGUvRDEFhlBFSZWkwFqiW2Sibl3Cwy7CoCUx4af9zKeF9gifdc/OVpbymgoCpE3fc7mZ5a3H3Ml+SSb/dR/+gA/nldsb7WTuUlRpp/0sRw26nQNxKW12fifLGfQIKPkwwyTAVJxr0Yd2Sz/kob3jE3fX/ooLfavyC84k+uId0aYGRPH63PTpzRomd+R+VMPds+WYzs8zN2aJCWXaMnzYPFzaxTd1XmOwoo2mbCNzTOwQe6CSTggyQlhBYe9kgHtHkZbL4pA6/DTf+fuujZ71mmjklk3VRFUZ6Md8RF75966Kt2L9O9F76NVGblvA/lEnD58HmTeXNm7qvQKVGpZTz9Exy6v5PT9wl4SnCJhwgCgoAgIAgIAoKAIBCTgBBYYnIIAoLAyhDQKbFfmYMeL84Ob0wJkXlxJgaVj9Y/jcZtR2jazXD1dMyoD0W6FkOaHPc+izlBU5hG8QVmZAk83WMcebgHd2IBRXMeV3ZrBWlZKrxDkzQ+0sHk2In/VldY2fQ2G7vvaU26iWq7Fq05ub7ry9Mo2mHG0ztGzY/60RRqWOgOkkpJ0Tvy8NQO0LxrGF8C4iLckfQrCyndYcTVPEjNjwcXXoCnGNn82UK0MvgHRzn4v32LWvQnDfAUXWC9JJeq11sJjIxR99gAk73RrY5lvZ6JmumkRKGqwEL5FbaV7YlSgSlTi3T0KZP7e6h7YozAgl5GJv8z5ei6HfT9fYiJvtgmS52TwtZb7Pj6Rjj0w358ruSFTzQAkl7F5i9XoAEmDwzQ/KcR3OMJWtulEi21suOGXKb3dnDoycmk72a+yM7aS1MY+EMjrX/3Jn29uEAQEAQEAUFAEBAEBIGzhYAQWGfLSIp+CAKriICkVyIH/AQSCJ4ov7WCVK2Ll+/tTKgHSouS0KQ/asSQbNBQ8dF8pEkPnhE/oSihCqpMPbYiLdOto0wOzn2kvsqKySQxuG8s6rWzz3Z3j9O7N7mUIDnLypZbclHJAfqe7qT9pXlhXFoNa79QzPD36xgYSAjH8ZMkm46y9+Sg9PrwjvoJHnUE1k0pKP0ehmunUZdZSElVMHJoFP88+TbVNII3J5W89Vrc/V7801EW9yqZjC1WpICP1kfbGGhIbDFd/Ily0sw+au9rYzpO0IvhvCw2XJVG0O2h9q4mplZRuIn5NZnk5PppeHwkKbF0bJAki451t5ZgUAdo+2UrEzEywiw7sincYmDob520/DEZ4SFhPtdCqH+K6f7w+xdH/mjMbL8jn+Cok+4/DzJYnZwwS3yGyhR8fg05VvCPOan7cQfOkehtOyawXIe7OPioI/FHxDlTnWdl60254PdQ/e0WpsZOkbwKt2uZBFb3b2rp2r9sSMSNBAFBQBAQBAQBQUAQOOMICIEVY8i0dj2Zl6Rjy9EQWamEAgz/Y4jBaice5yn84nvGTakzt8GGPD1yEgEsrgEXfvfyRAfEoqa0adCZFHhH3Xgmz5x5Z7kkD/3wQEJpcCUfLCFF42bvgz3xJ48sU/zBYpQdAxx5YmxREsG4I4v1V6bR99ta2nfPfWT2DeUUFCjY+7V6/PEW//FbO/cMSSL/E5XY7QpcTUMcfDi6oUp/Twn5ujH2PzJKaBmmV+VnqtC5xjnwvT6s15RStVFLzbdqcQ4n2wGQjSq2f7ECb1MvB34SP2Iu8gRJzYY7ynA820LHnvgpW7nvKyGvSsv4Pzqoe86ZfCMB2aBAoToWI7SoW5x0kXZtKmvemh6JUHNWd1P7+DihJF/JjCsLKdlhxDs8jWeBFFSdXYdSKRF+QN9TzbS/nJgoTLanigty2f5mK572Ueoe71/BiKQTAuvI/9bh6I5tJVdGYElkfqiM4jI1A8800vqv5HnKGhXZl1nof2o44XTb4+NxVGD5BsYZ6k4wbHHWYKoyTKTnaRECK9kZLs4XBAQBQUAQEAQEgbONgBBY80dUksi8tojCEpnGn7Yz1nEi1SH9bfkUb1TT9MNWRnuSXLmcbTPnbOuPpGfb14pREmCyw8FIyzQhlZrCCzMiKWNDe/uYGAugSjOQucaCRiPT/rMm+uoSCDFaJCtFmpbtnymdSdUJuai5qwVncgE/i3zy0i8rubmc9EwlwQReE1klIxEi4ItvayRZQg4v7AkxvqeD+v9zJi2xFiWwJCJyM7iEaCDZoGPbF0tQyAEaHmpgtCM6HLXdzJaP53Lw7jrcy1C0/nQILF2BFneXOyJ45I3pbL5Ayf7v9s0Zq5TzTDh3T+KbjUFSs/7L5eg9Tvbc2x4zVTQ8B4L+2PNFU5HCpvfmEDaAyUqmRGe/80AndbsSn39SqpnNn8lHNTnF/rvbiKkxZA2bv1KGRhGg56l2ul5dRJ5qQp2QsN+yhvwsLzXfbMI5K5U1ocuTOuk0C6xUPVs/W4w66GHf15vxxfeoc3unVFH26TJSzRKe1j4O/WgkTsrkPDgiAiup2SJOFgQEAUFAEBAEBAFBIBaBFRNYW7ZsISMjg2AwyJ///OczYwTCu53dWIbd7KTmgV7cUaJrVKVW1l2bRut9zTiSyew4Mwj8/9vKnXbOu8JE/QONjPfOrKglrYJtt1WiVPk5/K0GJo5FrChl1n6ugsChbuqfXblJoMzUs/2TxUfHxMfhbzQwkWDQy2kdyCwL227JY+C3zXTtjb9STCaFMPvaYvIKQjT+vIepMT++qdiGLO3SHBTdwwzUzo22WIzA0m7LZMPlFhq/18L48GIslkzOTRUU5CkY+2cHDc9OxhZvsoLS26swdfRw6GdjSe/yJikkQrMKEi0ksCKRSlOB2DJl3kRKNAKr6Na12NQuOl8ZwbA+E+XACOP9J34M0JWmYa/Q4e4YofqhvuN91F9oZ8NlKQz9qY2WF6OHKBleZ2ftRUaOPNCEcyT2+CsMCvAH46fRnaKXpeKTFdgyFXQ81kBvTew5lHpNGeUbZBp/1MJIawJVzxfbfp2SbbdXMPBoM131KyfiZ5p3egWW5bU5rLncRtio+zwJWPV5TCWFjFJ9Ijx3ur6f2p8OJ15MXQisxc5ScZ0gIAgIAoKAICAICAJzCKyYwNq5cyfZ2dkRgbVr167ksavUlN5aTHqKRNsjDfQ3J/+lM9mH6ndmsfEKM9V3NzE1EfvXfcv5ORRvCnDge0kWqUm2QeL8U0RAIuvjVaR0dFD/7NRxsXBCYPk4/M1GJkZONEe9PYv154TYt6JzQEJfYSZzqx7HnhFGm5JPezlFAI8/RlIoqfp0GRabgvZfNtJXHb/NEYFl8rDvrnYWPNtmZP21Vpp+1ot7Iv7nQdoVhZTtMOBxePDPiu6StSp0JiU+hwvvvAcqzVo0apge8RA6nr8nobJqUavAPzzKwf/pTbh4+TEw6nxrJKpK8jg5cG8H7jiFqVXFaWz5cCZdjzbReyQ+w9njbP9QKWbXFH1HZuRq7mX5aLxOWv4yin57DgUlatqebsc9BbbX2Ek1+2h8sA3HWPwIuIQF1ifXkWkL0PxET9SoNe2WdArW6gi63DQ/0spI18x4ln+qgtQMFZ4xF/5o7kaS0adpIlGJgalpjjzYhnM4frtP9Xsw93kStisLKN9hxPHvHuqeih3qJKkVbLqtgr4nWuivXZpUSjnfhr/NwWRvdFmmSrew+Tod+77bTyBhTyZR9IFCPAf66D0YX06f4HAaBZasovKL5ZglNwe+3jI34u+oXCu5vZIMo0zzI/UMNSYMI/FpdVRgBV0eXIsoQSDr1OiMCnr+7wide+J/9iXeMHGmICAICAKCgCAgCAgCZxaB1Suw9Do2frkEPTD2tzrq/7iYqIfEB0O2aFn/mRI8LzZT/9cTCwd1vomcC6yoQz7GxiA1PUjL7ydZ/+l86r7cwDJtkJR4Q8WZy09ArWTDnRW0/HcdU7N2pVpIYIGCNZ+y035/J9FqXS9/I8+MO8qlaWx5bzq+/nHqftyH16sk78YcDPOaH3B6aXqsf0ZahAWW1cfBO1tRviEHe7Fy3tkhRp7rIrAlB/+/BpgYSeyzICKwdhrperyW7oMnbrmYCCz9lYVs3GGk9lt1TCYbgaVRUnpzGWk2ieYfNDDckUD7ZYmSWyrJsPmpf6iNsRg71UWbFbk3VpCXr6D778OR9Lm0nWmofB769kyiXW+LpHYO/HsQ77RM2gVpaGU/Xf/XRs+B+MIkUYFVcPMastOC7L6rIWqqn+GyAjZcaKLjV430HpoRdHJBKltvzGb87500/SlGdXNUVN5TQYoEHU8205tAhN/pfnPUlSlsut6OAjc132jGuUBdcsNr8sgzj9PwXPQIvdQ355Jh8dD066FwcNmCR+bbiijeqmWieyr6hgdGHRq/G1cydfzUaqx2LVIwQHckwjLRek7LKLBkJXnvysb9Sj9DbfGfb74oh7VvNNP1i1a6o8lgWab89kpS9TL1369lLLG9JJKaVnJFCud+wL6kXQhLt6rp2NU1JypP1kgEl7tWX1I9EycLAoKAICAICAKCgCBwagmsXoGFmqq7yrGqQvQ9Wk/74QQWfUtgZ96Zw5pLTey/owHv0R/01SVW1n8gm8Gn2ugdVLPhA3moHQ5eva+Xgk9XovxXPS2vil9Dl4B9VVwaFlX5bzbTtWuM4KxgjoUFFpi3WvHVj+NaoBjzehXymAAAIABJREFUqujgKm/EbIG1nELYfHEea99oWVaBdeibdUwnKNCOYU+52E7lJVYmdndxZNdE4jW7TAY2faYQtWeahh934hhM7DMwIrByJV79Sn0k+il2CqGKii9VYA5MsveejoQKxh8TWP7WPvb9eFZI4rw5Zv9IOXl2Oa7AavtFA/21PlDIlH2uEovPQc0DPXhiBp2dEFg13z6Cc2h1f/4q7UY2fKIQadCNMlPLdKeDKUescZQwVZhxNjqij4VWQ3qpIVKTz902zMEf9C84lyIC6xxD1MLfmmILWz6Sx9hfDlP//NwINlljY/udOQw+2kLb4fn1t4xsvrcQxaCD/fd1JZHeekJgNT/WzMTAAkXc082suz4bT2Mvh5+Zn6ItkfnWfOxlWgJTLhoeasOx0BzQqFjzqVJCzf3UPREj8i2cEv6lSsyalRNY6nILhRs0dP9liOkEIh3nf2RLaonwF5PZI6UttlJ5TRo9j3cw1BJf5K3yPwOieYKAICAICAKCgCAgCCREYFUILNP2TNZebWPklW5anpk8Xvg5/Ct+TlaI6q/VM3V0Zatbk8Ka9+QQ6h3k4ENDCRWJjk9CovhTVaSqp9hzb8fM6UolFZ8uR93ZR82vZr74rr9tDXLvIId+Mozt2lJKtUPsfnj5tvmO305xxqkkEE9gnbK2yFKkyPlKFaM+Zf2I8aCzWWApi61s+nAuwb5x9j/QnTRq04V21lyaguTz0vLzNoaa4y9U7R8uJz9fPiGwPluFamiYmp8OzduF8GSBJSkiG67GPI4JLLl/kJcfGIx5XrICS52fxpaPZlB/fwPjC4q6EwKr+ptHmFqgBlbSsJf5AtmmZ+2tRajGJzj03Qk235XH9L6eyO6ZJx02PVs+V4zKM8Xeu9pipvRVfraKFGuQ5keaGWpZWGiupMCSukbZ/73eJIidEFheh5fgMmXpBZzTVD8Y+71KfVsRhXYPh77bS8xHqmTW316JURPkyH31OGJP6/j9NarJutA8s4Pkih5Kss9JRamA4LSL2m+3MbVAPcAVbYq4uSAgCAgCgoAgIAgIAqeQwKoQWCWfWktGxswXPm/XIIceHIykR6S8s4jydRr2fr2egBeM54RFV3rkF+jwT5EH7jmSUC2cuDwtBjZ9vgipqY8Dj8xEFZgvzmXt67TUfq2ZyUhmjYbNXy3D9XIX9X9woH2tnc07/Lz6jYEkfoWO25IlnyDrVaTstJJzbhqtP6hj6ljh8SXfeeEbKG0q0i/JRmrsp/dAcjV7Vrhpi779YgWWKl9Pxk4baak+Di26RpaEulBDykYruZtttDzSxHhnfHkxp7MaJYU3FJGRLtP2cAtDXcu0akyCqMKqInXr/ARCCLkDDL00E10xW2AF11qwZJ68+HPtG2dyPIkHR97h0x2BpWTtF8oxStMc/O92PIkFUJ3UydTL8yl/rTmyo567c4iaHw/iX2AqpF5TTPka9VGBJbHutrUEa7o58tR4XIFlvy4f394+BuujP2BFBFYjrPlyOa6nGmjbHWeOGtVsur0cHXDov2uZXtGd85Kbb7PPltINrL+pEF9NN/W7HISCZrbdm788Akvl4uW72+M2brUKrCP/W4eje5EvQ9xezzpBaWTrbenUh+WOc4ELNTObdajUPmq/0cjkEjfK0JabyapUMLhnEs8pEqyhYGjBXTmTwSbOFQQEAUFAEBAEBAFBYDUTWBUCy7Ahlcp3ZaNWzKDydI1y+JFelKVZrLlCxb67uzC9LoeKi20owuVxQiEmG/o58ujIkra1PzYwqnWpbLsum4l/t3H4qZl8sPAv3ar+YWoeHZo5zWhh2215DO9qpX33NNodOWx+i8ye27pJvyIHc6oSpU6FJlVF9Tfq0W3OoPiiFDQGORLRoFBJeEbddP2ui+EFwv3121IpeY0NjVnGM+GJ/BIv61TodDLu3kkaf9WLZ37KWlUKla8zhffNQ2lQY0rVRJpc8+1anEMg6ZXkvyuf9Hw1klKBQhHC1THO4R+c/Ku0Os9EyZWZ6NOUBCY9eD0hwoWFdWYVviE3zY92MjWngLZEypvSKTgvLdLGrqdaUa7NId2uQNaowOuj9/edDAypqbo2C5VGQqlR4BuZpO7BTqanl+H1UMrkvjUd21obBuPMJJpuH2WsfozOv51IgbFdmk3+Dhs6jUTI5WHwwCCtT8WOoEtGYNnekU9GBkiShC7dgEYr4x0YZt93Zuo8qYvNlF6Zhd4so9QpCfn8DP+jm5bn566stOelkpWnjKSKSGolWetTIgWr6x9sYKwjOYFleWMeay62zAD2uzh0bwvTCy3klmEo5t9C1igwZM3Mx9lHKBDE2T1TBHrN56rQh5zUfqsLf5oWnf7Ebl/HrvEOTuNxgWRWIE8EEtr9K/UtBZS/xsTQvzsYnRmGyKEpTKFwi5nRVzsY6pnbLut59ohMb3muh4D/RMKOZk0GhZU6kkkhLP3PcmwmL/Xf62RibBGpbgoNVbfkMfJsF/6idCpeZ400NujxMdk2QdefBpnsO1kEzBVYBjbfXcT4sy20veSKK7DC0qNomw7vpD96epokoTWroHf5IrDc+VnkmiY4/BsHkhTZKC72cQYILN22NMpeq6fziT7Gu4+9s6deYGVcVUjJecYVSSFcSgTWqRBY4b9ZVZ8uoudnbThiFLE/Nsmk8G6Mt1WgVLo4dFsr04m4NYUaa6nMeENihexTL07DWzcW9X1N9GM384psPPv7Ge9e7ZsWJNojcZ4gIAgIAoKAICAICALJE1gxgVVZWUlqampkF8KXX345bssikUPrzGRcmIY1VYWn10H7Px0UbVLS2qGn7A1WJK+Xwd0jjFRPMHF8YRD31nFPMJ6Xxfqr0hj6UwPNL/qQ8m1s+1gOA7ua6dw98wVVOi+bc69Kpe3njQwc8c4IrCsV7Pl8F+oiPdpcI6WXZyD7AjT/e4LccpmOZwcZb/VEUr/kFDX2q/Kwl6rofbqTzlfmmxuZzLflUbRVT+dvOug/PD0nzUKRrmPdJ4pQOcap/m5v2AtFP1Qq1n21ApM0I7DcSgPl12Qz+a9+evY4CapNbLmzAA0hen/bQMesiAfLBVmUv8kW2Smr7XkHvlmBVLJBTclNpaQavNTc38rUvAV55rWlFK/X4hl2MvDnAXqqXUgWPZs+XYxy2oXLH6LzsQ4m+gLoL7az8Y0pDL/QTtMLy2hUNCrWfa4ck8bL4S81EW0jSWVBOts+aqX2Gy0440iFZATW7MFQVNk45305xwWWeUcWReeo6Xyqn7E2L5rLC9jyWlNEKlXf08LUAjW00j9YSWm5clECy3RuNuuuTp1p2vQE++/tXKC2UNzXZMVO0OeqcfV449ZgkjIMrL0hn0DTAPVPjMatJXWsiPvY3l7G5mUZqXO0BAbcBBJZrIal14ZU7MUamu6rZ3gwTpSQSib3uiKy0nzUP9yL4XWZpOWok+ansGgjQjbo9tD8kzZ8GVYqrs5CedTvhSXo0L4BWn43NwxptsCSN2Wy7R1WGr7TwNgg0QVW8GgNrCBkXl1E8blaWh+qYyBKkM/xCKzBIV65fyDmGCSaQtj1Yh+GNJmmx4YIIlF6Yz6Ov/YxFGvHzdMhsNQaqm6yM/hEFyMJ/N2xrDUw1TSFf04g6qkXWLZL86m4yLxKBJaC4i9XkamHw/9zhIm+RQjdJN4gSaXElB5iIo68Ct9SPiqwFIFJDtzRSVwlpVBRfnMxqWnQ9X+ddB+YXyfs5IZmX19MQYUG54A77udW1G5KMoYcHZLXR+tPmxhqXVl+SaAWpwoCgoAgIAgIAoKAIHBKCayYwFpKL7SlJrLPs2Ep0sLYFH6fxGj1GIN7nNG3Vl/KwwDr63KpepOVvl21tL8Kqe8qoXyzivrv1DM2MHNzy9tLWLNdQ913jzDew4zAuiTE7q/2HY0G0bD2njLMgG/UQc33u/FMzf+lVEHFZ8NRGX6O/E8Tjlk1kNXrUtl6XTZ+xwR77+2MuphPfU8Z5Rs0tD/WSF9NrDQ9JRX3VGKToPYHjWS/JZeJF7rprzt2vob1d5RgVAdp+WE9g0dLfmGcSaPUeV28+tWWqGmRcmUW57w/jeFn2mj+11zrckxgTR7qo/ZXJzq29vNrMFuh+/Emug4etW4FKWz/mB33kX5qfr68OY7Z7ymmcIOWzp/W01N/8pd889uKyQ/0Ufv7+IuOxQosSqzs+HBuRGDVPOWh6s0GGn7eg9sxMx8UGzLYfk0GAccYh+7tYaGES+s1ZVRt1CxKYIVNR9oF6ZhNEkP/HGRy9BQsesI7hF2TiTZcdHiZD0OBGZ02bG9CjO/tpf7JsQUXg+lXFZKTG6RjV2fknT1xSOR/vJxMq4+Op/sYOuyKW19MszOddGma3penFo4QUivIfns+aQY3DY/143WFkI1KNPoQrtm1nXJMbLulAMW0l913NUZ9341vLWT9+UYc+3qpOyrs5Aw9JW/PwaTz0PizHpxRUpRmC6yM60qxGyY58P2ZVGfrNaVUbdRS+53DTA4oI0XcLZKXPV9rjDCIJ7DC70TBRRZ6/zmG96TPtxOEExVYbb9qZLDGe5ypssTGpvdlMPCHTrpejhKeeVxgBTh4Tx2uOCUI1dmamajdRR6SUknhdYVYDBIht5umhzsY6UouEjLyaNnCtrvzYGwax2CUN16hIKXUhBzwM9rijClzzYUW1J6phFIIExFYnn4Hk0c/l44hkmQVtjIDAwsUcU8+AuvE36VjkcGJDImhSIOr3TNnc4141xk228jZFN6/OLFDUsjYSsxIfi8jrdNxBZM6y4zZctQi+310/rqDnpqFtVf6ZQWUXqil4QsNjEYJoJL1RrbdXsj4X1tpfCFaWLKeDfcUo+wbZf8DydQeS4yBOEsQEAQEAUFAEBAEBIEzhcCqFFgKswrTGjO5F6WilQOMHhqhf88UrmFf3IXmYsDPF1gln64gw+rl0JfbmI582ZSwf6KSfLuH6jtamfKC7g15bFo7zSv/M3L0C+9RgRUMUnNPPU5ndFmQ8sY8Ki+24NzfTc1vThT10W1MY+M1WQQnp9lzd2vUBYzhLYVseI2RgafaaP13rLCdEwuFkd5pvK/0R1Ie5yzfdQqUyhC+yVltTDWx+VMFkW3VD32lmWi7wUmqFLbfZcd1qJOaX83d5v6YwOp6spHuvScWaGv+qwqLzsPBO1tP3POowPI0DVL98FIq5p482trN6Wx6VyaexhP1zI6fpVKx9o4yuu6uZ2I6vsxZqsDyTU4Q0Oqo/2YTrjlpl6BMUxF0+AjGWQsvSWAt5mVYhmukPBNp2UHGaqfxz7xAUQ/Fpmy2vzsVT/Mg1T8eTCgtMJnmySqJoO/k58uZJjbfWoA6FGR0Xz/Nvx+NWTQ72vNkkxLZ458XYQPhVKScq3LQjo3R8sf5u6fNvZOyKoXt77PjG3Ow9xtdkZp+8w/TVcWsO09PXzht+dV577BMzM/C4wLrziY23FbOwOMt9DXMvJOaS/LY8noLnrFp3FNBdNlGFJ7EBVai/CMCq0BJ/6GRqJ9lykwLGblqju9COOvGeR8sJbdMTfeTTXTtm/eCpOnY8ZkSwM3+rzbjiZOCrFpjY8M70gk4AwTcwbhRfvH6F/K4aflZL+4EI/eO368sjXM+lIVzOYq4J1gDKxGBtdhdCJMWWDoVm+6oQIeXw99tTWjnVkmrZ90n8nHX9NH01Ci+RLcolWTS3pSCt24SZ0/8gvHKvHS23ZSJ60g3h37hpvKWDBru74wrsuLNldn/v1wCS24d4OCPjpY1SKYB4lxBQBAQBAQBQUAQEATOEgKrR2BJErJaQd4HC8gu0BF0OGn6zTgF5wQZsmSTX6jC75ym9TfdjLX4CAaWrw7EfIG18bYq9G4HL3/76C+dskzZFytIC02y9+vdhJdU6e8rJ3uqi+onj0XyzAgskz/A3q/V4Y8Ufo9yVKRw3gfs+Eed7P3G3BydcMFr2ePDFy04SALj5YWsT0JgedsH2P/QUMJfxMORIkpVEG+01DoJZE0K276yugVWuNj+2rvKMPo8vPrVpjkDEK7vten9Nvbe3ZFQ7bSlCqywlej/zRHa9i9+rp6JAivRz8b0D1VRWuTj0DeawxmOp+xIf0sBpa8xMX2kl0M/T65is6RVs+4zpdA1RO2jQ3MkkipXg2LIgzvWuz+rh+adOay9woa7oZcDP4nehrRrKyhbr6Lz1830HIib2HT87scEVl2tjwL1CNWPjp/4DFBIlHyslNQMVeR8WSUTdK2QwLLL7L6rIWpxacNlBWy40BRVYKk2pLLtPdkEJl3s/nrL3HmRpMA6ZZMq3oP+fxdYFjU7vlAeiZ4MekOJ/U2SpEjtyPBL1vtUCx0vJ/BixRuHKP+f9v4KyipV9D/eTNtBN3kfLcH7VAsDyxjodExgNd7eGCMCy8DWLxQy/rc2mv4SIwLra0VIQmAtYoTFJYKAICAICAKCgCBwNhFYFQJLZTdSdV0ueqsyUsQ3MDxO9YM9KNdnU7UzwN7vDJJ5TRFFG2bSAvxTXoZe7KD9X8vzhda4I4v1V6Yx8pcmGp/3MF9gSRoFW2+vJNQ1wL4fhlPelJR9pZzJ+47Qf3zhnaDAUhvYeGcROreHV+6cK1jmTyxljpb07VZsBQY0eiWyQYlKJSUcgVX3vTrGu5INFTjRCtmkJnWnBVuxGX24eLZagdqgwLmKI7DCrc+4toSSdRraHjhCf9+J/livKiQ70E/d04nJgKUKLP/40XTQJXxinMkCS1ZKsXfGUilZ+5UKBh9sZCiBukJhhNpcNZ5ub8zFr3GLGa0+Xuqigtw3ZqMNemn/+8K7+Z08bAry3pCNVjuzDepU0zDVDx/NMU5yjLPCn2cbDQw8XUfrS9HeUYmcj1ZQUKhcnMDaqMfTOUD1D4cWSLtWJZ1CmGg3E04h/EUD/bXzoqwUWtbdUYpJFaDpi3UMz/a/Z7jAmvhHF/XPRcl7tOnZ8rliVJ4p9t7VFjMiMLy5SMoZGIGlTNex/dMlMDXG3rt6Ij8CxT1KUjnnw9m4DvdR8+isfPu4FyZxgl7NhtvLMchQ+506JgcCmLZlU7LZv6yRTjMCy0jAFYi+a7EkodIqCPoCczaPONETCaVOgbtFRGAlMbriVEFAEBAEBAFBQBA4CwmsCoFVeHMV2faZ3eO8faMc/nF/JL0l472lFBYF2fv1VoIBiYy35FFyfrjKVHj9GGT/3XV4Jhcf3XJsPFXrbGy7LofJV9up3eVkw21VGGZFYCkKUtn20WwcL7VR/8wUqgILm65PjbQrdPzxCQosZmpZGDweXv7KyQJLVWyi6MJUjPl6ZJ+bwT3jTHZ68Dp9KLfnsOa8xFMIk6k1coyFIlVH/qUZWIp0aFRBhg+MMtbgxjvlw+8ysuHT2as6hTDcD12ljU3vz8HX2s2+Hx6NPlGpqfpcIZ3faGQqodUTLFVgzd6FcLGfHWeywMr9YDHmgIv+Q5MnLdokvYqKC4w0/HkssbRgSUHx1bn4u8ZoerwXV5QMPWW2gaIrbUzVTeEZ8UdNF0t/Uza2DBXj+/ojmzFEPSSJrKvtWAwyjj2D9NfHEp4hXJ2TUduy8HjLVP5XJSlGHzVfbcIZdT5K5H+yEnumgtafNzBwJMFJCxyLwNr9lQYCC0aqrlKBBRR8opKcrBCHbm9gdjyKIkvPObcWAxPs+0In3qV//C/21UzuutfksOMtNkb+0EHj36NM3rNcYGnsNrbcnIOvuYd9P164dt1xsEcF1nR1H7W/XBmBpS1NZfMN2eCeYO/XOvGFd/3NNLDl5jya7q3HsUx7jIgUwuReF3G2ICAICAKCgCAgCAgCsQisCoGV/rYCSrYZGD80RMvvhvF5wqsSBaX/VUWa0c/erzXgj/ybhO31mRRdlIpK8rH/nqYFCwknPOwWA5s/X4TUMZNyl//xCuzWafbe3YVfp4zsvmezKZh4qZ36593kX1+AXN1D+57ZEWBLFVgSaZfaKb3ISmBkgrZnBxip88xZhCdbAytZgWXcnk7FVZkoPW46/9jHwP6pOTshngk1sCJjbtCy8bZS9JKPfV9tjBTS1lTZWHuJjv0PzKnmveAUEQIr4Tco6om5N5SSV6pm5IXhORIi/G5nvCEVddBN718nZsktmfQ3pKHFQ+8Ljjk1scKRmdkXZSB53LQ+1slQy0Kl72N4KbuZrR/NI9g/Ss2DffhilEFTpBvZ+slCFD43NfeHd6tcXksi21PY8gk7ge5RDnwvVp6SRPHnK8m0Kmh+pI6hxsQjKSMCa62a2p91EAwu1HYlBdcVYgytrhTC8OiZz88kM81D0+9P1AkM/7syx8D2W4oiAmvv5zsTi+RZ2jRelqv1by5g4wUmvKPTTDmi7GKpUGDJNyAFAzg6p2LW6jLaTajcy1fE3bG7lY5Dc18EWWVmzfszGFzGIu7GN+Sx/g0W+n/VQNuhBGXsigssmbybysjNUzL0+2aaj6coSmR9uJx8yyT77u9Nqj5erMkiBNayvEbiJoKAICAICAKCgCAgCLAqBFbUcTDq2HhbCfpQkCNfq8eRQNHtxY+nTNGtlaTpXey5uw1lVSqbr81iomaIYIYZDvfhLMqmsEiJayqIu3mE+ifm/yKcoMDSGNh0ZxHaaTevfLX5eJNN52ey7q3p+Ecn2f/NDqIFTqykwFIVprD+w3ZUHhd1D7QyMX7ywveMEVhHa5SVVqlp+V49g11+Mq4uxDzeT/OLiaUPhgdGCKzFv1HhK+0fKiW/TEHjFxoYmTOd1Ky5pxxzYJw9t3fPElUqKu+pIEU6WU5IssSWr6zF29BFzWNxtp6L1myFTPlnK0k1Bqh/qJmx7hhCSKWg6OYKsjJk+p5uof2l+LtVJksp4z+KKdmiY+CZFlr/FWM+KmTW3FaJRS/T8FAto3PL5S34yIjAWq9jrH4yTtFyGWOFEYV3MQJLgcYGntHoHBNNIWz/ZSN91YnLSKXdwPabi8A1xp47e4iigpIdjlNyfvr7KiitUtH2i0b6a6P09zRFYHmHJnEOzv2sl2Q11irtMu5CKFPwyUpy0iWq761jat6GFjEHYIUFlrrSxub35xAuWrf/7mZ8s8L5VJlmtn0yn/4nW2jf60qsZtcCMynjykJKdugZqxmPuuuspFCSXmXG0zeBYyTarFZgW28h2D/G/vsT/xHmlExu8RBBQBAQBAQBQUAQEAROIYEVE1g7d+4kOzubYDDIrl27ku6SdHSbeSUh+n5dT/uBxCMQkn5Y+Bf/83JY+1YzNV+pj6T06DenUnCOnqF/DDBcN7PgMG81EeiZZqo/gDrPiokJRrqO/XqdmMCSylM454N2AnOKuEtU/tcaUlJCdP+ijq7a6FETKymwCm8sI7tIw/i/Oqh7JvoOameSwFJn2dh6aw6uI10c+sUUlZ8ppPu+ZiaTWPEKgbWYN+nENZnvLqJ4k/r0CyxJwvCGXDa83sLgn1ppeTH21nWm83NY91YbgdER9n+zD//yBl+BJLPhtkr08jSH7mqPuttnhKBKZuttlai1fg5/q5GJcOm9BI/juxB+pT7OZgVLSCFUmih+i0zr76LLxEQFVvf/NdO1J3GprM43sfXjBTA+zO57+5d958oEESd3miRT+oUK0s1Qd38d4/1RLj9NAutU7EIoZejZ+qliFFPjkU1QAvE3gJ0BtJICS6mg7JYy0tIVDD/fQtNf589BiZxbKinIkWn+SSNDDQlGjcWYGdnXF1NQqaDh9iaiBXTKeiPbbi9k/K+tNL4QvYj7ujvy8NUM0vDbseTmnzhbEBAEBAFBQBAQBASBs4jA6hVYhWbO/Wg+EkHa/7uevmg74y3nQFi1bP58KXJdB/t+Fl3gHH+cRs3a20rou7eO0ePfNRMTWNZL8qh6vQXngW5qfn00PUZhZNPXCtH5PFTf0cRUjEXzSgqstZ9fg9kq0/nLWnqqo4M9kwQWBhXbv1SBMuSm9qlxitfJHPrRYFIzRgispHCddPJqEViKVC1rbyrEoFcS9AcJegO4RqcZa5hg5Mg0nh5fJMJCXW5l8wdykfx+DtzdgMe13PYKdG/MZ9PFZob+0E7z32MX2JHUMxtHqNQuqr/QGvMzIdoILUVg2d6UT8XrDLQ+VMfAQlFfhSmUbQ7StOvUCixNgZktH8uHzl5e/n5yO0gubTYv/urI58jtlSjGx9jzrd7o0u0sFljmc3NYe7WVnkfr6DycxDu1ggIr691FFG0y4OkZ5cB3e6NHWCkUbL2jEpUyQPMjTQw3L/5HNEOFHk+bC3+Mom3xBRZICimSCl9UOE3dM8sfGbr4GS6uFAQEAUFAEBAEBAFB4NQRWLUCK7wdoSZLi0oRZKpnbi2olcJjODeHDVdbabivgdHBWF9WZfI+WEKKd4TqX8xeQM0ILHMwSM099Tid0X5mlqj4dCU2W4CGbzUxeuynWI2RzV8pRIuPxq83MBJjXTtfYFkvteN4vofQnKYqqbinEpsEydTAWvuFNZgtMv3PNNEWY3fH+QJLX2LD4B1lqAsyry2leL2Wricb6d57IkVmzX9VYdF5OHhn64lok4IUtn/MjqdpkOqHk5NKiY+9RObHqigukPG6Aww+25ZUpEf4OWe8wFIryLnaji1Fpud3XYz1L34Bljj3E2euFoF1vEWShNIoozSoIjt66SsMpK2xYE5TR8QWsoxCCWO7u2n6nSPxSJEE4YSl1KbbKtG4JzlwXyeeBTZRlcM7n36pCqXbwb6vdUVNO4r12FMisNans25TgNpHo0uklYrA0pWmsemGLIKt3bz6w7n1sRIchlN+mnannU1XpDD4ZAute2OIh7NWYKko/0IZZu8k+77dlVwq3goJLNub8yh7jYXg+CTV3+vEE+sXI0CzNZON70hH8vnpfbaDrleTEEeyhGWzEcXM/jQLHpJaQ+nlWThr++lriv7BoLFbyNtuRSEF6fldC52vLs8uzPHaJv5fEBAEBAFBQBAmuWXJAAAgAElEQVQQBASB1URg9Qqs00BJUsnk3VBGdpqf5kc7GWmfmzYgpWgpvNqOVeui9qHeeUWgjwosCfwjDqof7MbjnPtrc/a1RRSs1zP0Yictf5od5SVRcGMZOUVqnDXd1Dw2b2EmSRi3pVL0xgyMJpmBp9po/fc09o+U0vdw07w0ocUJrIx3FlKy1Yinc5QD3z/5F2lNiZnCt2Zjy1LhPNRJza8msLwxB/UrvQxNrEaBBWSncc4tWSj8LmrubcE5ldykOtMFlvlCO2svS5nptGeKg/e24Upi/ZUcrZPPXnUCK2qHJDLenEP+DisqOYjLGUJnURIuHuUedeFsd+FodjBcPR0nHS8OLYVM7kdKycuXafh+M6NdC+eyKnQWtn05j2DXIHu+n5zkPRUCS3V+Nhs2Btn3/YGoHV8pgWXaaWfdFSlMvtpM7a7EUw+XOpdnXy/plRS9vwh1zxCNT48TXCAlTjKoWPvZCkzyNAfubcM9HSMCaQUEVsbVRZSca6D7N7V07Z9LQFNsYctH8lhsCqFyaII93+6Mi9V8YQ5rLjHR+qNmBjuSFOjLLbAUMulvzqV4pxnfgIOGn/cwNRo/nzHtijzKdloID/T4wWFanhrC604skkxVYKbkzVbcvW7cA/6YAk9Wach/cyrTDcMM1idQEy4UYHi/g8DSMhvjjp84QRAQBAQBQUAQEAQEgdVGQAisk0ZEwv4fedg3GnE2jzPW4CYUktGV60kvMzBZM0zr74fwnLR2OpFC2PLPcXLWqRl62cH0uA9JqyZlRxoZOQoGXuyh/S+TJ32RldN0lF2Xhy1DyeA/+xnt9BJEQmvVkLLNgsLhomufm/J35+BrGqWvxUfmBiW13+9DtqpQG+VIT2SdhrIP5KOToOvpdkY6j37DDYZw9XqJ/Q1aSf57C8ip1OKsG6Jv/zR+P6hMaiwbLRg1fvr+NkzuO4tROCdpf9GJbbuR5oe6UOVosL+tgAy7iuF/d9P5zwk846Av0lF+XSE6tY/WRzsZbXPjU6swb0+n6k02/EMTNPy6H2d3Al/YF/PmSLDpy2sINPVT88vE041kvQJNqhJlip4177aHA3Po/WM7gy0+AqMevCeJMAlNnpqZEQBtpY3K16cSmJqm4bEevEeHIDTtxz2y8CJONqvQWGbuJMkyOf9RTHqqxOjfeug6PD0zfKEQrp4FxvJoO063wMq6tpii9arTXwMrytwJR0OF53XOGzKxmGUmG8bp+ssAjm4/2iIjGRut2Naa0BlnwidCPj/D+4fpf2kMZ8zozBiTVCmTcXkexefo6fh1M33V8VedxrcWsv58I2P/bKP+2eTMa8Z7SympVDPSPBGniLuEqcSCclYR99RL8ym/yEjnz+voORJ7kZ5yVRGVmyVqvtWKM0rGde6NFeQVKGK2QWEzkJKuIlYNLFW2Ftnjm1skXqWg+OZyMjNken9aR0f9PPkgyejsqvBmtSt3yDKZl+ZG6gWGj5F/dNHyx1jRehKpl+VT/loDbT9roL9hgXd/BQRW5tuKKD7n9Aksyapl/c3FTO/rpvm5ieTHZBkFlsKqIe9tdrLLdYwfGKLl6UG8sUvhzWurTNbb8yjabpr5LAj46XtxkJHDE0z1xZZSyXQ4kRTCk7+qyCj14J+KL+GSaYs4VxAQBAQBQUAQEAQEgdVMQAisGKMjp2mxX5yGOVWNFI7GGJmk5/lRXOOxvizOrYEVkNRkX5aGNUOLLIVwD0/Q+czowr/chiOttqZgX29GpZUJ5zC5Rqfo++sw06Mzi0nTeenkbzLhd0zR+quByDbypgvsFKydWVDFOkJeP0d+2jkv3fDkszVlJnJ32tDpwwv3EN5xFwMvj+A4Go2mKrdQcpENhd9Lx+97cTokij9QgF55YtU4fbiftpeCVN6Qg+KY1SFI/zPtDKems27HzEIgfATdPo78pGvF3pGMt+cT2tfPUHvikkxbaqH0ktSobRr5eyt9R+b/l4KCjxZgirNwdrWP0vKHhdOetNszKN1mXJiHP8DhhzsIxVu3nOYUwtwbSskrXaZdCDVqtn6pHE/dInchDBNVyGjT1Zg3ppB3vg0lAaZ7nHQ82cvESHSY5h3p5J+XgjFDHc5qBgK0/LQlsSiJ8OkaBdlX5JFXqaTtsRaGWudJIbWM/bLUSH0c91ggIpgli4bK63NRAi0PNjDYEV94zZ4wEXmUK/HqIoq4H5Oe3r4x6n49RDCaw5Jkit5fiNWqxDvooOa+k1Mciz65jkyrn913NRCMUgnfcFkBGy40xRRYxvMzKNpuQZ+uwjPiwusNoTRqMFhVhHw+9t3VOGfXuEj/Jcj/YAnpmQp8zgBBX2JRMkv98Bl9qZfe6pOjwQzb0ln/tnTG/tVB43NTC6fPpenZ+plilJ4p9t7VRsAPmgwNUihIwBsk4A5FZGTVpyqxyNO8fHf8bSmPCayJpiGc8/yRwqghs8KMq32YsblbhCIpNGRtMjPVMsbE+PxIQRUZW62Ew24XjsCSKP5EOfqxYQ4/NpJc6uCxATkqsFyH+6h5dP6uvwmOmlLGvDmF0iuykJ1uup7tYKA2iZ08Zj0m5bJcyl5rnfU3DfyTLgYPjNLz3NiSdsRMWmCFf9x4TyGZVjc1P+rFL7IJE5wQ4jRBQBAQBAQBQUAQONMJCIG1bCOYWBH3ZXucuJEgsMoJxBNYJu8Ye+/omVXUWkXlPRVYvOPsv6ObtGuKyKvUEAiEUGhVkYXjxN5ODj+ZYDSHLCErJBQpanIuzyarXI8UhMC0h54XeuhNop6NMsvE+o/lo9VIhAZHeeW+3rj0JZWC8v8sRe92cvihHrwLrJutb8qh7IIUlIoTFjQ4PMS+bw0kvTBOVmClKH3s/mrDTIqkQk3l50pJORoFuGAnQyHGXu2h/ncnS9mEBNYFRrqebKF7X+xUQMmoY9NnitCGhf7Rw13bzYFfrO76V+r1qWy8Jouxv7TR/JcEQn3yTOy4qYCg18++r9dHhIT5/DQKL0hDb1KGN688cTicvHxP4gIrWgph3Mkb8wQjm+8tZMEUQgksby+m0OKg9uGRxe8UeVRgeduGOPiD6KmqMZspSchmHWtvLkCvDjHwQhft/0gukjHavRWpJjb/Zz4qtRSJhHXU9lP/2Aiz9bd+gxmLPayfEz8kpZq8nWlMtwwzHI6ujXPoKzPJyJyJDnUe7qf20eHFScJ4DxL/LwgIAoKAICAICAKCwCojsGICq6ioCIvFQjAYpLo6xrZ2qwzG0pojBNbS+ImrzzYCsQWWitx3mhh4bhzfnPQXGUO5Elez93hdIYVBie0SO6XnzUTttf2kkf6GWAs8CU2BlpRNFlILjGgjC/8gzl4nI/sdTHZ48bsD+F3B2Km0Cw2CSib73UUUpLsWFliShOWyHEo3a2h/ooexFk9C9bMUYUn2iQJ0SghMTHAwHNmUYK2d2c1OTmCVo+4ZpPYnQ8fTDSW1jNqoPBpxFhtIyB/EO+GPmqZYdEsVwUOddISlQZRAKP3rMtG0jzHe4Y0bSSjrlKz9VDlGIwz+rZu2FyYS4nm63ifjhdlUXqCl5ZEuxnoSi/aRw7vu3pjLyKs9ND3lOMEkvPFAiprij5WSejTEc2JfL4efiJ8SvVAK4eLZxBdYxovt5BgcND/nXNo4bc/ivLen4U5KYElYXptG0fk2QtNO2n83jLPfSyDG7n+L4SDrFGS/swB9zzDNf5k4aXpLaiXZb88g0D6Bs9m77JtBnNTmUAjvmC96tORiOiiuEQQEAUFAEBAEBAFBYBUTWDGBtYr7vDJNU2lZ99VSjP4Ae8O/oC9i4bkyDRN3FQROD4Hc6/PwV48yfGgq6SiiOS1WKSm7OYex5wYZidSki94fVYoWY4YSnycsqfz4Rv0EViCNTKGWYi+ItSqKrs/E+coYYw3T+JNcONsuzETvmaJ/jxN/kjWvj1HR5uoIjrvxzttE4mRqEpoMBZ7BxCRLMrNIYVAQmFpkB6I8KNwnnF7c48t3z2T6k+i5qm1ppEkehmuc+JL4GyAblWh1IaaHYvRPVlB5awGTLw8xsHcSfwJZpVlvt6PsnWDgwCS+Zat3byDvci2jexxMRZ03Ehq7Gk/PMuS0nZtJRV6Ann85cPYn0OHwIOmUWHLVuAbdeB3xcqwTHdXo54Wj4uKmcS/tEeJqQUAQEAQEAUFAEBAEBIF5BITAWoYpkf12O6lFBkxp6sjd/BPTTI546PxVD9MJZjstQzPELQQBQUAQEAQEAUFAEBAEBAFBQBAQBAQBQUAQOCsJCIF1Vg6r6JQgIAgIAoKAICAICAKCgCAgCAgCgoAgIAgIAmcPASGwzp6xFD0RBAQBQUAQEAQEAUFAEBAEBAFBQBAQBAQBQeCsJCAE1lk5rKJTgoAgIAgIAoKAICAICAKCgCAgCAgCgoAgIAicPQSEwDp7xlL0RBAQBAQBQUAQEAQEAUFAEBAEBAFBQBAQBASBs5KAEFhn5bCKTgkCgoAgIAgIAoKAICAICAKCgCAgCAgCgoAgcPYQWDGBtXPnTrKzswkGg+zatevsISZ6IggIAoKAICAICAKCgCAgCAgCgoAgIAgIAoKAIHBKCQiBdUpxi4cJAoKAICAICAKCgCAgCAgCgoAgIAgIAoKAICAIJEtACKxkiYnzBQFBQBAQBAQBQUAQEAQEAUFAEBAEBAFBQBAQBE4pASGwTilu8TBBQBAQBAQBQUAQEAQEAUFAEBAEBAFBQBAQBASBZAkIgZUsMXG+ICAICAKnkoBWReF1BVhV01Q/1EswdCofPv9ZEmmXZ+B4YQCfZ5HtkCRS16gYOew9+QbFNjZcYWG8epSuvzo4rV1dZPdiXVb1nyV4Gkfp+PMYgcDCN1duTqNis5r2XX1Mja0ABQmWAte4LZ2yy1Lo/lULQ81xOpMAx3WfLsPb5aDnbyNMDS79fgk88pSeoinQo/Z6mOxbqG9G1n0mg7G/99OzZxokCV02uHqXb/wV2QY2fyibkb1DdL7gIOA/dRjKbyqGvkkGW13JP1SppOBNGUwdHKTl2fGlTN3kny2uEAQEAUFAEBAEBIFVRUAIrFU1HKIxgoAgcPYQkMi6OhtrhnJJXVJadJhsqsg9fEPjHH6wF9d0cEn3XNTFskzqG+2UXWTBWd1P/W+G8S9iASwZjWz7YgETe/ppfW5knghTse7L5Uw830zny4s1ZMn0Tib9LTmkm13U/XIkoYWxOtdIalqAvoPJLMSVbL6zEq0GHPt6OfLE6IKNTH9HMaXb9AS9Pjofb6XviC+ZTi14riJVS+n1ubhf7qXfpaHgPBNyWGglesgKTPkGlBKEAn7aHmthYInt23THOnTaIP3Pd9H218lEW3LGnJdxVSHF23WM7h36f+ydB3hkVd2H33unl0wyLZMyKZOe3WwvNEWwgSCK5VMQREQRQbAXFFDpCIJdUD8U/RQRKSICIkiXZXs2m2x6771MJtNnvmcm2U2bZGayWVjw3kefRzfnnnvOe849c8/v/Audzw7hjtFFcVsG2z9iQSDM8MsdNDw1ieXDeaTrvHQ/N8R459HPAf1GG+vOs0a5jVf30vCXYQJHX21C41D61VJMhhCdr4wnVH5hoczT0pEFvDTd18ZQ2+vU6BW1VLpJIiARkAhIBCQCEoFjSUASsI4lXaluiYBE4L+agGBWYymUM1Y/hX98CdHp9BxOOiOV5t81MFAfwyopGYJaBZnvM6NRi8nclVBZUavEWqg/UnZsVzcNj44STMpARMB0cRGlZSoiZkhRweKFyXnPd1xegnCoi5YXpxJq15FCgpzsj1pQKRPvu2jQYM3TRM2RxnZ20tknx1qgZjk9R19kRKeG/idaaf3PFOFE+p9tZvtVmfhbhqj6dR/xbIxKv1aGySrH3zdO5Y87SUwnFNBtM2IrUS/LTWs3kGKUQyhEx++bcBs1+HrcuPt8BOdMP8cXisnIUTFR1UvN/cPJjUWSpTdcuwatOMX+G9vwJMIzyfrf2OIiJV8vxWwRGd/dS93DI8RaCdIvKaWwRIG3ZZB9v+4/0uTSr0bmgkjfs520/9sZ897E+ieQ9dli8oqUBIaH2X9XL4F4EzGxihMqFRWwFG52/KAjofILC236fgWhtl4O3Hds5+KKGifdJBGQCEgEJAISAYnA60bgmAlYmZmZ6HQ6wuEwzc3Nr1uHVvNBMr0cuVKMbmYi/QhMBgj633Jf16uJTKpLIiARmCFgLJUzWp+A9JCkgCVqVJgKRYar3TEthpSZOizlIiMHXHiGY4tm679bgdjbT+VvBueNl3qLlU3/Y2PwX000PedZ9bEU09RsvboIGdD7UDNtexZbMaW9007BmhD7ft6T9POFfAMZDhiN9H1keneuP9fBuhN11P2imkm5ga2X5TLyr2rqn4tdve29ZrztLpytnnmCzuHSmZ8tIb9ATtOv6xlsS0wBSPlQARVbFdT+opGxnjjWczIVm75XjFoeoOk39Qy2JvGbIxPJ/LCJqd1OJru9BKOGKiL5V68hM81L5c2NMa1/YpEo+3oZaSk+Dt7QgiuxbiY9XodvSEbAUjo00OXB9yb5LRYKTWy9NItw/wR7frSEeCMXqbimjBSNSOefG+k6MMf60J7G1ivsKMQAzb+oY6BzZZiFFC0bvlOAJhSg9sZ6xlagFAoRs7tAOCFLxYWtjApYSg+7frqyDqz/5hpJwFrZ0Et3SQQkAhIBiYBE4C1F4JgJWG9uSiL5lxVgs8sZbRzFORQgtdRMqklG9yOtdO1f/Y3dm5vXf3fr1blG1n82cwEEP43fa2Re+Bqjhg1fcaCaU3L02U4aX3rrucz8d8+ISO91bPiCgd66BNzMMkwUrtMysLcX54zoshy/9BMzSdGL9DzWQvtrCdQfo7I3SsDSvzuHde9OBe8E+27owBtLGLHo2fxVOx0/q2Oo9+hnUrICVrwnRgSsvDwZe26uI5CQCCBQ+O0yhB3tNL0Q36pM/e4cNr07lYnKHmoeWN7VMF5bp/++MgFr/XUVeF/roP6ZicQecxSlEhWwxFILWz6VQaBjkMp7+lckpBxFM1d0q+0ThRSsV9P5l3q69scWtCOi9NZri5H5J9h/QweeBRpnwZUl2DLDHLq+kfEVGmkaTsli7TkmPA097P/tCuaVTEHxlwsRqjtpeNqVNIuogGVVEFphED9RJjBVJ1lgJQ1eukEiIBGQCEgEJAJvMQKSgLVwQI1a1l+Rh+u1btpfcRLwzp5+Kyxq8s6zI+sZpv6R0bfYVJC6s1ICglxEniIn59OF2NJl+PvHOPj7XvwjwfnuHqKAIlVOxgXF2DM8HLq7E9dQYN4cW2kbpPuOLwKpHy+mPNtFzcNj8Ru2OZ2KE/R0P9HJaEe82C4CJZfko1SBu2uMhj92M7XkI0QQQ8TyOVqJgGV8h4mxF0dWLBoIaWrWf60IrTxMy68a6F8yjo1A1qcLSVdMUPnrgfj84pR4IwQs/Qk2LNop2p53IqhlbPlOHjW3teKemvk9EQRsnyggzT1E4yPjs0MkCpR8qwxzaojauxoZG4htraU/wcTUztiuaItxrEDAkqWw5aYsmn/cwFh/EhZgKxytqIClBa8zsOz8UqQokc14iLoaBjn429dPxBJTVay5ysHkcy20vZqoiiRj/XVlCN0DVP128EjflOkK/AP+2f9/ip3N56Qx8FAzLTGsEtXrjBhkbgYqDx+eCTgudTD1Yhf9DYm0RaDoy2VYrWE6nunGHV9HXTCSAra3Z5FmnXY9HX6xncanXUmtBZIL4QpfDuk2iYBEQCIgEZAISATmETiuBSzdRhPpdjld/xzEHzj2H9GiTkXFN4qZfL6NtpcmY2b7ErQKCi7NJ7Sjg9Zdr0eQYWnGvlkIyE7MZNu5ZoI9I+z+6dLuT9ZLyjB3tVH3r+Pdkk/A/A4rwy8evYjwZhnD1WinmKJm03eKUPb0s+Nn8130YtafhAuh7vRcSjcEafhjH5ND8fy6dGz4ho3RPSOM9c3f5BZ8vABxeJSmZ+cL8YoCIyVvNzK2p5PumlkxTWZLofgMK6EhJw3/18HEQPLrsfmsHEpOTcXb1kflb4YILdN8VbGRTRdn0HZfPX2NyQWsVxYaSAl7GG6Z7vNyApZgVJN3Wgo9jw3iS/AxiVhgGU63s/aMNHwjU3i9ArpUkcnRWesbQSaSkhGJvQVDL3fS+MR0YGtRr2PrdxwEuoZoej625ZO6wIjj7UYCfWNU/bIbvy/eWMQRsKw60nPDDO6dOiJIKE7JomKtj8pfDy0SKZT5qRSfa6T7oQ7GuhKEFufFStQCK9n3U52vQalJJkL9Ek8QRWxn2rFEBJxwkLY/N9NbFV84Ur/NzsazdTT8tImRORkIi79WimpglMaHBvB6RPK/UU6mKUzzI+14nHHGM5LF89QsbPkqwi43dfe2Mh7HLVVZYWXjhTb87WP07F+sXinNBuxv1+PvGaFzVwK/S+EwI/vG8CfhxhkVsDQ+ah6Zje+VzHgWnV9AsEWywEqGmVRWIiARkAhIBCQCb0UCx6+AlaJhw3cK0QphBv5eR/Or8TZrRzk8gojt4gLybW723Nk9Eztkuk6ZRYkiHMAflKHUQVijZ/3H0th1S+tRPlS6/S1FQKZj8w0OVCE3B29oZjKWMY1cTvn3Sui7vY5R5+ps/o4ZQ0FB6dUO6m9tOGaPeMtVrIq42RRjMYqMv9TGoScnkaUoUKYtDizuH/QSiOwVZwSsrj810dXoRx3ZJC+4wp4g3kmBdV/Kpv6n7XgPW/IsC1DDlpsKEZwuRurni+3mrSZwuRmune+CKLNqsBRqcHeOM9E9Z801KLGt0RMcnqDqJx144u/d57VMlq5n3VX5qPxuDt7czFS85VyQkXNFEdnpfqpub2XKFU+kmX2c+sQMNn3QzGTnBB53GJlZj9EiZ6J1DL+owJynw9s7hnMCFCYtqVYl3s4R9v+iJyGLkmQErP6nGml5cfFBh5iqZPvVJYQnp2i8v5OR1shiIWC+uIiSMiXDlWNLuicqM/QY85WEg0E6Hmyi50A8q704Ala+kW2fzyYwMHlEZFOkp6B0T+FyLh4ofa4BtUYkOOFi/y2txHt6Iu/4sRKwZDl6Sj9qI+z04xsJEF6tJTfoo/vfQ3iXs2SSiZRdXYZQ2UXtE3PESJWardcVoRCDDLzYTeteP9u+XoiIj8HXJhcZTJo2G1EEffQfiO225xuepOvl5d08HZ8vxpYRpvbuJsZj6Ecah42Nl1lx7Wul6sHk3QMTGeOogJUapn///KQNidwbKWPZZiLQMcC+X0kHKokyk8pJBCQCEgGJgETgrUjg+BWwULH21mIMAoz8u5b6Z+LteI5ueBT5BrZcZqftZ4foO2w8IxexnJmNY4MKjzfyeQkmlZfdt/dSfF0hg7fXMrSyb7Gja6x093FLYO3V5RjSZHTcf4juqsW7JVm6hm1X5bLnpnoCx7kBn5ChY+vl2ez+niRgJTzhFHLsH8tCJ/PR/GB/VIRIWZ9O3imz2fsO19X7dAvDLbMCVvf9zfSMyih7f/qix0UEl5ZnXKj9XlwJi0cqttxUjL+hm6o/zLe0StqF0JHKSZfl4DnQwf4/JxsTSSD3M4VkFyrpebSJ9t2JdUBu1rHpGw6EgWEqf9GHb44793LjERWwzrUw+mIrdU+5lrXAMp+TT8kpWrofbqIjwXYlImBpT8pgwwctxBOwvPXd7L9vemxkVi1bvlaA72AXVX8aWzLbXNopdsrPScP5WjPVf0skBlocASs9ja1ftTO1o5tDj8V3jbed66DgRDXtv2ukJ5EkBQm8PMdKwErg0cesiCLXzObPmqj6YRPuicMCrEDahYWUV6hxVvZQ/cAI+s1ZrPuYCZhg79Ud0e+Mudf675Sj846z487kkxpE51WOic2XZzLwaAvtu2PPF92JWaw/18TYy/XUPrEakuRirGu+WYbGNcHeX6ysH0XnZ9H3fD+TfbPfgsosPTLPFO6R1VImj9l0kCqWCEgEJAISAYmARGCVCBwXApYgCohygXAwNMetRE7xd8qwGEK03FhHv2vmA2WmbCR3eSgJ8/V4vCznFVBYImPnDY1HiprOyKF4m5LdNzVHNxPrrl2LcnyEvT/rJfOyckzdTdT849h87MVrr/T345NAzqXF2AtVjL7cTt0Ti4OzawrTqTgrzJ6fzcZDOT57AoYTs1j7Pj07JAHr2A7RjAVWRMDqqEpEkEi8OZuvryDQ/MYKWJp3ZLHxfSbG93Rz6KH4Asnc3qlPt7PxjDSCA6Mc+HkPvrjuchBbwNJS+/MaXIr5WQinBSw1zb+sY2CJBHELaUezEOZPB3H3u2Nbhqm329j0YWtSApb1wkIKigX23tK8bFy8VRewSGHTbXl4kxKwFNR9u2F+korEp+WikgkJWDIBgolb4h1Fc47+VlFOyXdL8T5WR/v+WcFFSFFywjUlCGEfB+9oYHJURtHV5VhTI488BgKWKFL27VLUvQMc+O3wkhaGutOyWX+mcVUELCEyTjEutUl2JDPo0QMGMTuVLZ+3I7qdVN7Wjkf6FFsNrFIdEgGJgERAIiAROO4JHBcCVuYnC8lfqyE45ePQj5qYnHGtyrp0JtvTTXX4o9meRHIvLSCrQA0BP/tua8CXhGvJ0qOhpOx7Jegmhtn7o+m0V4LdwObLcxh5qpHWV6bPRDd8t4JgYzfVfx5Fd24+6zPG2XFPchuy435GSA08KgIp78mh4l2puNuGqLynb1Fd6RcVkdbZSsPzx9ai8Kg6AShL0lh3UTbKoF8SsI4WZrz738oCllzNpusKEUdGOfDLnsiyndwlCORcVoI9X0FwykvbX1oZiGP1I6yzcOIFGUcssEwXllJaEeLgzY14LXEErBQlosdHaJl2RgUsh4w9kd+lVRKwFI5UNn8mk+a7GhiKY01ifHsOZWenMvTPGhpfSETQiRfEPbaAlXKyFXnXKKMd8zPnTVtgJSdgqTJNZAUEdeMAACAASURBVJR66HhxKnL2lLSAJZrUrPtCHj3/28hg7/FvbWN4l52yE2DvD7oIzlnqU87Ko+LUFPr+2kTrXg/qchMbz7cxpZChE1ZfwFKckMnmd8nY/8PuZcXflHPzqThRT/+jdbTsjJ0pMdEXV39aFmXvMCRafMXlZGo54oxW5u0apern3Rxdy1fcFOlGiYBEQCIgEZAISAReRwLHTMA6+eSTyczMJBQK8eijjy7bJfvnSsgpUEbLhD1emn/fxmCrH8OZuZSfqGTPTU0EQzIclzjIKFJP1xUOs+/mQ3gnE/mAj0M0x8D2L+TiO9BJ5Z+ng+lmXlCAPTvA/js6mI4fr2PzzQ6c/2qn8UUn6pOz2HRqkF239XP4+zSSbcp6ejrDz/ZGY2hpK9LIrEhBLhcIuL0M7hpmojP+J5bMpiZ9qxF9mgJRhHAgiKt3kv5XJgjECmbvMFC4NYXI15xCI0dhUaAxqTj0o2omZ2JIC0oZGe9NJyVNQdjvZ+DVQcaXaIugU2A5xUiqRYVMNm0Z5xmZYvCl0dksWkeQCpjPsWNNl6GyqRn+Vwu9jQI5Z1hRqUR8Q066nhnFHwDN+jSy1xkQw0FG9w8xWLtKPnQKkaKPZiOTzz/5DfcP0/Cv2Xge6e/PxWicMxcmp6h/dAgUMvLPy0a1YJoEh8dofnLiyKm15YxszOmy2VJeNy0PDs6PAWNLZetXcpBPTrH7ppYjcyN6k6ig7JoCun9QjzMBLypVsZ7MTWlRjiF/AGfzGP27ZwMtz22uqsyIfZ2WSIouhU6G0qxEiY89t7cdKSazqMl4mwl9ipygx0vXkwN45gjAKadlkpWjQGZQoM9SR8c+knFqpHaBn2wgQPsDPUQ15WUumUmJ9UQTBrMSgTDufhf9r44u+c5qN1rIifRh7uX2Uv9Qf3RuF348B/mc8FBhf5Cmv3YvEwxcjuMKBxm5KgLjU9Tc1cpUgm5oq7kG532mkNS0xTX2PtbMYBPI3pvL9ncaiFhg9U7IKf9IDBfCrjHq/zKcZLNkbL6hnEDTG2OBJajlrPlqCbqwi5pfduIaX4HwoFCh0obI+FgeWYVqwqEQzoYx2h7txTW+xARca+akT2bOCFhTZF1RRp5lkr03dBJ2xBGwbCY2fdpI/yuDTE3Gbq/x7XYyMoRVFLDGyb+sEFlLD83PxI8/ZPlwPsXb9Qw+WU3TS4lMiZUJWJpTMtl4thFnyxhtj/QyOTLNeyUCljo3nU1XpOMb98QMOq8xaxAJMjXsi2klJNMqUetkEArQ/OtmBpbMYJkIj2NbxnBqJmVnmQn0jOMaFRDVInK9DFElQ2VQIjpH2XNHN4EAZH+qiFTXGKEtGRiTELDkZUYK1wo0Prx0Jkq5Scu6L2bTcFcTriMujLH7bviIg7XbtPTcX097VfxvlHgE1VkqguN+/Ict51fFek5AkIUjMfSlSyIgEZAISAQkAhKB/2ICx4WAJUtTkfEOK5nbU1FEPnR8Ptr+2sGYW0/FB+Ts+ckwBZ93kJ6jJBKFdbJ1nN7/DDJcE/tjN9nx1GxJZ+P/pDP6YjN1T7lBVLL+u8V493RR/49pQYs8M9svz6TnwSa69nlQn5TFpg/K2H11J7YLcrHkqtEYlBAIsucHTeScn0eqzs9wtSsqZimytNgqUnBWDdDy+GDM4K9yk5rcj2RhsUH/rgmmRv0Eg2FElRx9oYGMUhUdf2unZ++CLEFmNaa8aQFQ1KsoOMtGRGY5eOe0gJWyzULBu9IY2z2OX6XGfmoqotdL7U8bGZ+zJxb0CrLOyCRrg4bhnSO4hnzRLEOiXIbGrid7WwoDz3XR9uzEvAyNqhw12R/MxWZX0v9aL9pCA6N7JxDS9WRvTsG5u5chvw6bNcBwk4+UTWZM6QLN/9vIQMsqfI2KAro8FdpCM/nvNiIPBeh6sIORQS+uOYGoVblaTKdkkL9By/CrvfQddDLR6ouKI1qHCm2WEcf7zMjFIL1/62Cwy4era9YUQ5mtwbTNhuNEPSM7+uitduJs9i7YcMlYc00ZqfogTT+sY3AOX1m+gY0fN7H3B7OiUqy5KprV5H0wC7M1TN/OcdwTAWQ6JebtJnRyP22PdjHUMN9ERG7TYMhWRKuTm/TkvcuEMOZi1w+mEw2Y351JdoWKsYOTkKone7uesHuKA3e24p4RgZWFevSps8HGre/MjgbdrX90QcySUIiJysllT7utZ2aRs13P+P5Rxru9hOQyDGVppBcpGXixl/Z/zwqDhxnI0pRoMlXYz7FjNMkIjk1S/1Av403eSHxrtA41hs02HBvVdDzWzdhQgKk2T0yLjmidjjS2X2aPvgsQpvf+OtqqVmG+JbvAxCmvPycXa8jNwI4RXCPLt0+w6sjMDdG7151AwPHpIO6i24NzaL5impJrQPB4mRiYLyKLWhWpNhW+oUlcc5MMKBUYszV4D3Wx7w9j8QmoZOR+uoAMk5/mvw3g8SYvXgkKBbkfzUEfcHHovj7S3plFznrdzLPDOFvGGaufYrR+AlffnE33XAHraTdl15Whae+NxppSxBOwSGXrbTmEeiYYOBQ7G1vKZjNpqayagNXYrMae4aP+r8PoT7TgrRzGt4w6/LoKWOeY8Q1MUP/7DiZn1rIVCVg5VjZ9wQZdfez4+VD8+bOghK48g/WfsuCq76f2z0MzFtlJV/O63CAza1n7xQJ0ysgcHWO4epKJVhe6E+wUbFVT+9M6xgdBzDSw7kIj9T/tJv/7ZRgFF7W/6V0UFL/4EwVofE6qHpo+jRL1Gko+moVSITDwXDvN/1rsqh5ZMNPPs+N9qTtuhsJInRmXlOAoUdD+gzp6RuOvkYJSScnns+l/sJOxue/eUoQLzax9j4b+/4zgnkp+LYhUm3JCBhmmAC0P9zIxJ6Pj6zKo0kMkAhIBiYBEQCIgEThuCBwXAtYRGoKI9b3ppJenoLfIGNg7RKo2iCsrkzSVn/GGCXpeHGKyP/4HVjKEU07JpOIcM/2PH6LlPyGUJ2ex+QNG2v6vnr6a6Y2R4l05bH1PKo331jLUGJwWsM4R2f2druhGXkjTsvHqAlSBUDS7XKCqh5an5m/SNZvTqfhIOt7GAarvG5gXpFfQqyi7qhCDys/+GxoXp3QXBYq+VoY1LUDNnU1MzJyGL+6nnNJbyzAJ0wKWWJZB4SY5dfd04Y7uYfVsujUftQB9T9TT+vJhIUQk93MFZOfKqL+7gZHuhdYNAsYLiihbp6Lp1/UMtswXUGwXFFGwTk1wzMmBO9rxRodIZN215eg0MNUyRNW90+mPhAoL2y/MwLmzm0OPrq4LZvFXyrFYgtTe2MBYjP2nwpHOpvMV7Lt9+gR84VV0VQnWbJGmu+oYjJHsSJlnZsvFKey5rQ3/EgZkOZ8pwl6sZvSFJur+OdsIw/ZM8st8VP1haUsaQaek9IoCNJMTHPx1T0QPnb3UChyXFGDLEmj4RQMjS7rSKKn4fglat4tdd7Rh/kgeWdop6h8YwOcFld3I5iuzo/XW/bJukYvQ4QfmXVFKli2cnAuhALbzC3CUymn4bQsj7fMhG8/IpvT0NMZ3dVL7yBLBwA16tnwzD6V3isqIwDYn05f9oiK0o4M0PD4jLC/7or8RFlgCCuusa0sy61C8shFxqezSfNSyMF1/a6XzteVSoEVqmxawYgVxF3IN2IsF+ndO4EvEitWRyomfyWJ0Rzf1czOqxWq0SkbW/+SSYQlS/bNOQjkpFJ9tJjwZnJcFTuvQo9aKePommRpevKkVlCLGYn3U2nb4lU4annBiem8mjrcbo5t33/AU/buHGNjpxDfXlW+OgNXwoo+t3ymhJ5Lhsda7hIClpfXeQ/RFwx9OC1hTe7o49FBsoS7zM8XYdD4O/apjycDyycTAGuiGvmdGo9aaos3Als8Yabivi/Ge2L9zr7eANbGzi5pHZ1msRMBSZRnZ/MXsoxSwzPQ+UEtb5coEkHjv12r+XV2ShiXVQ9fu6fVfWWxkw2eymHiujfoZq+Cs8/OgqpeemhBlt0YErABjNVOLgvcbSlOQB/2MNMX4QQsH6H68h8k5y6GolaHQL856ulz/bB8rIjtbpOV/mxmLkXly7r2CXE7exQWYDAJhzxR193TEF7EyjGz7cjahATeTg7H8cwV0pSmoZEFG61wxs0VqHHo0WoHRvb3U/XVkNYdLqksiIBGQCEgEJAISgTcRgeNLwJoDTlmgp+T8XHSaIN1PtNO9w5OAxcHKyKedbqf8jDR6H62mbSdEY28VhKi+oQnnTExl60VlFK0JUXNHAxPDTLsQvi3Iztv7Zz44Z7MmTuxso+bR2OkJcy4pwl6iouvBWjr3zX6I67bZWP8RK4EJJ3tubY9pVaJ/fz7r3qan5+HmJbMJwayAVfv3HvK2aaj5ydzYEAIFnyuIWofV/awD92F9wZ7K1itzUEy52XVD83zXtxmsosbE1u9lMbmznUOPzj/1PSxgDT3TRuO/Z/u+5lvlpKaFqL+znpHDB+95RrZdnh0V8qruXd2U2Kb35lL6TgNDzzbS+OxChUmIuhMpX2ugbV/szWHae3Iof1cqoy+1UvfkYnce68VFGNvaaHhhaTcL4+l2ys5IwxtJ+f3L2f5lfqoQZV077cvEGLF/toQcR5hDP2pkPIahgtyuZ+uV+QjeCfbc0IE/ZjdmBayD/5xizSkhKu8ePBL/OBJIuOILDuRuJzV3RwJjx35vViJgyYusbPmMjb6HmmnfGysguUjh18pINwapvrEe5xIiYHokqcJGLeM7uzg0s3lWrLOy4f1qqm/vxLO6GvbKFo4l7tKcYGPd2SaCntDyiSZEAZVRETEuwzfmW8YVMtaDQnQ92sZg03LuPnpKLlTT9ujwoliB5g/mU3KSnpDbQ8NvWhjtiSMKpMhRB4J4loj5dLiFgkIk67w80oJOau5f3tKm6EulWDMVdNxfQ3fVYndAmUnN9m8WwcQIu2/pOWLxJ6pVlHw+k9bftOGN5XE3R8Bqadaz+VOpVN7WgMcJ8vwUtn0+D3d1BzV/n8L0nhwKtunofKCarsrEBCxRKRCKE0z+sIA18EwzbTsWT3IxRcmWLxcxNwvhNEOBjM8W4ygUqL+niZH2xRPd+tF8irZq6fr9ITprE5m6K3Mh1L49iw1nmxjf0cmhx2YVEknASoT5nDJyGaVfLkbjGqfy7pkYm3o9jvfIaYmubfIZAWuVYmDJFBR/qZA0PQR9ofgud4KA0qQgInl5R33IdArCHn/Ucjyhy+um7p7OmQOype4wsOW2XCaf7aD+2VgHF3KKrinDonGz54ZmAjF+k3IuK8buCFH97WacqxA5IqG+SYUkAhIBiYBEQCIgETjuCByXApbhFCtF77ESGB4nOOZDV2LF2TBA84NDUQuS1b4WClil3yrDpHKz78Z2pkPmCOR9o4ysVDeV17UR2cNpz8ljfeY4r/368Mn0tICVEgiy96baJa1zDqdX97QPsv/uaYuk6BPsKWz5Qh4MjbL3ru6YApbu/fmsf5ue/r+30vLqUrFSZgWsgNdD493NjPUt+No7HCpq7j8LCsq/XYwBN7tvaY2Zwl1QGNl2YzbuAx0c/PP8j9DDAlbnQw107Zn9+owKWBovlde3RLlFr2MoYAmOVLZflkNgYJrj3Eswqdn2FQf7bqpbOsuXOYXNX89DGBxn712d86eaQc3Gr+Vx8Pv1yybDkpUZ2X5xNsFJD7tubop4r0Vs+Ci/Oo+u25uY65k1/wFatt5cgPdQNwf/tJRlmpyia8uw6qH6zlqcg7GUnGkBSycG8fv9HLilaV4g4ekJF/WqW/ZKWsCSyymLuMLIvVTe1Ig7toZL2sl2yj+QxuSuZg4+skTWPVFBxXdKSdH6abijnuFxgQ3XlNP950aGmhLdWa32SpF4fdNZVcNLuzdGrG0ydZzwJQd4xtlzU2c0Ttzrda29uhxDmoy+J5toe3kZN8yYDVKQtU2kZ/digbj4iw7Gnu5ksD7+GK29eg2GND+11zUyFqO43Kph29cKobuPHT9Lwu3ssID1cif+jXbCz9bPBqZOUbPh20VoI7EFQ2EQhMh/khKwEhmjwwJW5BmxgpZH6hBlAp667qhr47xLpmPz9Q6UoSmqb2hhcsG8yLy4kPwyFZ2/O0RXfSKtWZmAlfreXNa808DIc61HrIYiT5MErESYz5bJuKCQ/KIQVbdFYvDN/LtKhhgMRkJ6rb6AFZ1c0/M6OsfjiT0ZOrZ92YEs4GfPjfWknulA19VLx8JQBcl1e0FpScA6KnzSzRIBiYBEQCIgEZAIHCFw3AhYMosWx4cySLWrUapEhl/qpLtBQdk7glQ/Habi83YUQgjPgJu+l3vp2xc7PslKxjb1HdmseZ+RvsdqaN0Rjm6UtZ5xdtw5E/tHLlJxTRkpk6O8dmdv9Hsw+4o16GrraHj+sOXCrIC156ZaAksJbTkGtn4hF3HCza5bmuc1V4gEIY9seGIYQ0TiAxnPzqF4nSZhAWvo6TYan19CRYgBKpL+WhDCMx/V8wtEAtRriy1UXGBl6jgWsCJui4VfL8dqCLD/e/UzAuR0X7QlVtaeIbDn5wPLCAsCjqtKyLCFqb6uYd5Jr6bMwpozFOz9yfQp+pKXQs3a64owiAGqvltHJI6tUGBk4zla9v9kvqg2tw7dBwtYf5KW3r+20LZ3afew9E+XUliqoPf+RtqqYk20aQErRR2i5y8NtO9fmTKSrIAlT9ey7asF0D/Azh/Nd5Gd20/tGjMbLsokPDHMrlt6Y4qlkfIpp2ZScZYZb+8YHQMaMsL9HPrL/PhrK3nfj5d7tGusrP+4if131ONN/DU96uartmey8cNm3PX9VN83OC+eXbzKZWY9667MQ6OBgWfaaZ5jbRm5V6YUCMaxTpp5G9l0UwHKiXF2394Zcw4o0rVsjcynZOMmzQhY/uEpgqMTHLh3aF4fZalKtGnT2QBST8kgZ732mAlY/U810vJiDAusVCXbry6JYYE1TafoyyVYM5QM/buVxgWB3V8vASvtzDzKT0uh/8kmWl6a/b2VBKx4b8ns37Vvy2LdWam0/amZ/pqlMnessgVW4s2LltRtTGf9eekE+/rZ85NBKDOz7h0KDsTIoptk1XOKTwtY3tpBempj/baJ2M7MIVXtpfnxvsUHLpE4jqdmYbEEJAuslQ+CdKdEQCIgEZAISATeEgSOCwHL+N5sSk43zqREDtP/r07anp8g5X25lGwIsfe2LpSFaZRdkI1GM2064u4ao/rX3TFNzZMdGe3WdDZ8NJ2R55uof9qzSMASNSq2XFuMr66LA/83Bno1G76ZT9P1dbiOGMAkKGAJWjbcUoDW42XH9dGgK4suQaPAcoIRQ44aXaYKhUrAO+zGI2qwRgKlJ2iBVf2jGpz98Y5fYzRALmLcZiQtR4vOrkKll0WzR7kHwLIhBddxLWBB2uk5lJ9hYOjv9TS+eli8Eci+rAjZCy101C/vf5Z2ahblZ5kYf7mRQ0/Mbj4zLypE29RB86vxrUtyLi/Fnien7881tB6A1HfZydQ4qTucFGDxqJP95TXkZgi0/r6RvmUyNFouKqZ4jYqx/zRT+3gsC6YZCyyvi123tsY9gF/qfUlWwFLPBGr21Xex93dLB/rWlBnZeHE24aCLPd9vJbAUTrmcgisLsdkUhEIeDtzUHNeFLdl3/1iWl5WmYgy7GWqIvXE1fyiP1IE+Wv6TmFmpstxIZrqfjpcmYwqwYoaWwg/ZUM7J1BirfyqrFpVSwDM8tWyw8Jj3putQTecKiCbU6P93Jy3PxgoivTxZ+fYMtn7YwmRlL9UPxI4Jp8xMY8uX7ARbe9j1qyRi3swIWFN1A1T/YYDgMt6R5nPyKTlFf9wJWKYP5lN6kp7Jyh4OPjC/79MClpLWO2rpSygx5cossKwfdlC0XUfXQ3V07pkVwd9IAWvgsVqadxz/MbAiJq4pb0tnzVlW+h5voX3HFHKLEkORnpR0NSqLDL/Tx8iOYca7SNqFUF6USrrZT8/OeHHw4q9w9kuKySlRMviPeppeiYyzjLKrixh9sIn+1UiyEm3CtIAVqBulry62a3n6mRnolD46nhiKKWAZ35aO0eKXBKz4QyqVkAhIBCQCEgGJwFuawDETsIxGI2q1mnA4TF9f37IQHV8sJyMrkissRO8/22l/wRXddNsvLyPbFmLPzQ3ReAwqRypln8xGG/X/gP23HsIzcfQfs2JhGtsuteOt6qTy/nHWXF1Gqn/iiAWW7vRc1p0RcaVooeFfU+i32SjZLrDvF3P7laCAhZb1txag83rZ8f35AlYkLkrmmRnYtxjwD0wydHCCoaoJpvqnNw/JuhAezkKY8AxWybGeaiXvNBPClIfhqgmGDo7hbPNHx+PN4EIY6as8N4WtV+QRCVa2+7be6AZWMOlYf3kG1TfHju81l5GYncKWq/IQnBPsubWDUGSK6TRUfCmLpluaScT2L/U0O2vOTCPQ0sWeX4+Re2kRvh1t9FYvZQ0lo/imMixyAb/LRzAQX3icrOyk8alYrZkTxH0mC2HCc2BOwWQFLO2p2Ww4y0jY58frjv9ehkNequ/qWFrAAtSlJjZ9Oouw18Xem9vwJ2Tds5LeHoN7ttk46SMWXF1O3IfTyc95jDZDh7tveq2Lfwno8lPRqGB8Zyd1j41Pz8sFl7pQhyLgx9UVO6aW7hQ7686JuG92U/PI6JLPTn1XDmvek4q/q4/9vxha1mU2ftsXl8i6tJS8QgVdf22kc29sAU9tt7LpShueQ53s/0MiQftnnjM3C+FTS7laT5c9XgUsxeZ0Nn/MQl803uF8PvlXlpJpF2j8dh1DCU2elQlYWRcVkrdGRctvD9HfMDuGhwWs+u82MLKUUdGCIT8SxL1vkMqHE8hiueB+bb6FkrONjD5fS93Tx3EAvIj3nkFJxqk2ct+WiuD1MD4cQmvVICPIROMEo3XjDO5zETzyU3DYAmuSml8szkJYenEBGu8klX+ejqcoS9VSdl4WClmIzkfa6Nq9hBt2Ai+mYE5h09fyUPp9HPh+wxE3f+sH87Bn+aIxuxKaYnGfJbkQxkUkFZAISAQkAhIBiYBEICECx0zASujpM4W06804TtTT+89ORjpmdmWikrLvlmCUR2JK1R2xFBCNKvI/lIVa8NDwh95lN78Jt0FUsfb6YtTDw+z9cS+W8wspXgM1P2zDZ9Wx5jwLQbmaUHMfzTsCOD6cTtc9TYzPCwN1dAKWqFVSfFURplQYeXU649bC2CnHVMCSieRc7MBepMZVP8jBPwwscmV8swhYkaC4RdeVYtUKHLjtEFPjoWgKbkdZgKrfJxJLRyT/q2VkmqHy5rpo2m/ttnSK1kHVbxMLOq8uMrLps5FMf5PsuaaD0m/m0Xp76xyLvYWzU6To+nKsKoGW3zfSv4wFVvx5/QYJWCdmseFcE966Lvbdl/wmdXG/BCzn5FKwSY1Mq2DoqWYaX1z5Zi0+t1UuERWwrIy90kXtP+bzsJyZR/Fpauq/Xc/chKLGU+yUnaOPKU7Yv1BBTg7U/biW0b7kN/GiScuWbxYgTk1SeecSAdAjG3CjlnXfLEAbDnLotnrGV+GQYB5Zmcim68pQy71U3dqMawmNSVOawcZPW3DuaqZ6qVhpsYZsRsDy9Iwx0ru8taQ6OxVThvK4s8CKWMFYTtQw9Npi39LXS8AquLIEW1aImmuamJijYkwLWGpa7qmlvy2xd0aVbWLzVVng9eHsS96lWaZRoE1XvCkELNTKaBB1izFyKAeBSS+jVcO0PzWCP+Z0PCxgBZls9y4SjHR2DWIoiLMnhloY9NH6p64l36F4o5P+oXwKT9Az1dDHgd/O/jaKOQa2XG5n+B+NtCRgcRzvOYctsKZe6abplVgWmzLyryzGrHFz4MftMb/rsi4oICsnRM13m5hIUDiN3y6phERAIiARkAhIBCQCbzYCx4WAFROaRcvmrxegCodovrmOgcn4Fh1HAz/rkiJy7AI7b4hYRclZe3UJhlSRkMdLzS2N+LZmsvFsE5Eo8k1/bGWkNYTA3AC9CQpYkTTpX8lFPulm502zMbAyLywgv0KL+1AXlX+Ivfk/lgJW2hm5lJ9uwNszyr6fxo7T9OYRsEB7Ri4bTjfQ95cGWvf7yPlcEYFXmuk9lNh5sv7ELNada2Lk2Trqnw2Q/elChKoOuvbGdx+MzkOjhi3fKkQJVD7QR/GJIlX3LCd+CWR9cQ15WQLd9zfTUXU0Qs0bI2Cpcyxs+kJG8jGLlnhxFRFXw/NM1NzRQek1pahFPwfvaGByOLExPJr1YFXuXZ/OCZ9IZ2KVBaz9t1TjiZXIa7lGCxEX2lJy80Tqf1jPyPASApgAkWyZ+WUa3Afaqfxz8u6B8diJJTa2XWLFubuDQw8v3ZHDFn1j/2mk9vHE3Cyjz35dLLAEMj+ZzvBf+/HFMII8HMQ9XgyscEcfO+9ORFSfpVr01TVYTUEOXlfPZEKvQhwLrHwj2z6fjWtHN4cemw0ov+6atej8Tl67vWPekEYFrBNUtNxTR397vNGe/rs6N51NV6SveG3QlWew/iIzoy/UU/d08gJYYq1cvVKKTB1brspnbGc79Y9PxoxrOfu0NygGlkrLxmsL0Mh81N/RwMiCXAK2CwtxlCqourmeKU9CE21pgIVmtl+aiRgMEwrGrktUiNHA86FI5sQYNYnyyN/91P+0npE4YShXbySlmiQCEgGJgERAIiARON4IHLcClqIkjS2X2KMiUe9f6mjbn7zFQTKw1aVGNl2cSdsvD9HbCaJahkItEnAHCE6nIkRUixAIRYOcmz5agGW0k4Z/HxY0EhOwlJutbPmYDW/PCPt+OhMkHhXrri9Gr/TTcH09w0v4qB1LAav0q6WY0hX0PdFI68uxN4tvJgFLbtaw7RuFhAYH2XO3k7VXWqm5oz1hVyiZTcv2rxSAe4w9NwxR9s0MGn/YhifhaSiS//U1NFat+AAAIABJREFUZFrAORJg6oVOWnYt786ken8+m9+mZ/SVDur+kaxCMXe2vzEC1pGscSEn+65tx3tUmrNAyVfL8O1qpe0VD/LCdLZcms5UZTcHH1gqQ2Myb/zrUNZhYttlWUweBwKW4eRM1nzAjK+xhwP3jcSMMRMhotueQcWHLARHxtn3w86kArwnRFSQUXBtGTYd1P60lrGepSdJykccVGzT0f9wPS27ExSOj1rAMrD11lym9nZx6KFlrAhlImuuddDyw2Y8MV7rRAUsoaefHT8bTAjd4ULF36jAkupfVQFr3Tlamn7Xi/vwQZE1ja1fteOp7qX6T/MDbZlOsxBuGWe8yx/TjTVWZyLx8YrfI9D8t2GmRhJeRI9UpTBqkIf9eCcCCT8zKajJFjaoUck8eJdZiuQGGYGJ5foqoC9XMVkbSDoGVrLNjVW+4IsRCzslY//ppPbxxS664swhotzrYf8dzXgTU0tjN63QzLZPW+l7tJ3OvbEOZ+QUXVOGReNmzw3NMWObZnw4HfeuUZz9AUL+oxTUVgOgVIdEQCIgEZAISAQkAm8IgeNWwEKnovQLDtI0AQ7+oPnoTwDj4VXIcFxVSrrGyd7bO5d1TVQ5jKz9pJnqm5vwJRnEPePjDhybdAw920zjszMfclYDW76Wi9Lvpeq7jbiW+DZbKGCJOjkh18LTaDmlt5ZhEiCZGFjrrl2LXi/Q8ecaug/EbsBCAUtQioihUDSWh+2CIgrWqel8qIGuPbP2/Wu+VU6qxkvl9S1H4muQZ2Tb5dl4Gweoujcxl7x4w7fo73IZ5d8vJ00eon3fBKmeSWr/noRbmyij8FvlpKeGad45jkWc4tDDSQSSjmTR+2A+FSfpo02r/1UdI61xLAcUSrZcV4J8apz9t3WypJeEKJL/lSL6723EPRZrrFZHwLJ/rpicbIHd32tgYcv1Z9sRnu3GOSPuRjspm2FmCNPwy3qGO5bur3Z7OunCIG07Y8814wfyyDFPUXPf4LToKEDBl8qw2QSa721koOn4t8LgOBKw1DlaNClyVOlq9KXaaCBpIRDE7wzgHwvid3txuQSyTzKjCHmp/WUL44NHpUDGfGWVBUa2fC6bqZpODv5xfFmBLOOzpTiK5LT+sJ6+oSTG+6gssNRsvrEIz4E4ApZcZO01hbTc1Yg7hpHasROw5JRdW4ZRvjiG4hHgeg0F56ejixzAuEKEgpBSmoJC9FJ5c4z2qkTEyMHMHK0l/eJiCstUtN/fwNComsLTU+h+upeJ/uTnhMymITsvTMeu2ZOZSMbb8BKWOMpMJb7eGKufQsRxdhod/xiZEz8q6V+Go7/BoKXiyjzUvinqftfOZEKB9KcfKyhlmE4xYynVw5SLvhdGGe8Ivb4CliBg+aiDos1avF3DVN/bi3+pQ7ONNtadZyUwOkn97zpxDiQvPkY7rpAhElpGeIovYEWqSTstk8JTU+i4v5nBphW25ehngFSDREAiIBGQCEgEJAJvIIHjV8B6A6DIs1LY/MU8Rp9tp+lZZ0wzdmV2CqWfymL07210Vc+1VJq2wDIQpicSeHfP4i9CWbae9Z/LQz7lpOqOjjkWKioqri8mRRWi87d1dDXE2CQIYPlEIcXrNEeyEFovKGD4gZZ5G4+I++NKBKySr5ZijsQYebmduidiuw2p1mSw8SILUzNZCPUbbRic/fQ0H4cCFqD9QAEbTtZGkwM031vPQGNyH7yat9vZcHZaRDuh9ff19NUmYQUCKG1GtnwlGwIuKm9qxZ1A9PeMCwtwVGgZ+Hcbzc8sjn8TeS30J9goXOvj4O9GlxAAVkfAMp+VR8nbNDTcWMfw3ENztYLSq3JpvKt5wdwDeaGRzZ/Jxt85SM29/fhi7EPlVh2lF6XTcGcrMYmadWy+IpPme1oZH5wdMzHbwKbP5xLuG6byF73E30rLsF+Uh32NFt/AODU/68L7ep7cH0cCVqzlVDQo0Odp0FvVpG6zkGYUo8UCLi8jNU5cPW7GmydxzxmDo1mWhRQlpVcWkab2cuAHLbinlrOiEHF8fQ0Z5jA1t9cxMZrEu/t6CFhKGVuuLaPuJ4dwxXBpPXYClpqKG4vQ+TzsvLFp2eHQlqaS9/4M0qzTaSND4yPsu70HfxyUglrDlmsLYGiEAz/pJfLKqMrSWPOJbLwNw3S9MMREV+KCovmsXAxj3bS+Ovtgwyk2MjP8ND08wvzmCJjPycUUGKf5X2OL1peUd+RQsD5M8/29TMZ0gxVQ56mQxcnEudJ5LMgVOD6egz6SSAbwDTqjIpZrmbMN0ajAVGYgtTwFU4EWZ80wfa+OMNZ+ePVbuQuh0iTHN5L4WCCKmN+dRfE70wgMTXDo3i6mRpdZSWUiWRcVkFuqJjzppu2RbvoPJfBDNgNYnqWj8Bxz9Dd0+UtAm5OCShZkrN0VM8sqohxDrhZZxM3Q7aXu7kbGj9H5V7zWSn+XCEgEJAISAYmAROCNIyAJWAvYa0/KYM3ZZpx7+uh8dRz3YIAwAgqLkpSyVPLfaWLspS5anl8oLsy4EIbDeH1Beh9rZ+CAe9rdQQBllpaST+ehFfw0/bFtkTWO6Uw7JaelERyZoOrnnXgPb+5kApocHbYzMjAYRHRmJYNPttG0w0PhlQ5aftI4P76GIKfsljKMAlTfVYNzIDFTe+3GdNb+Tzqix8Ohe1pwHra+EASUGWosJ1vIdChRmDW4a7s48Idx0s+343mgMxrgN+PCIhwVCVpgzcRc8TUNcOB/j+EXqKBl600FyCbH2H9r19IWTUu8f6JGxdZri5H5nOy/tR1PkoFjI9motn27hEBDN3t/l6jbmwzHpQ4yChT0P9dN12tOfM4ZF1aNnNQtJgpO0nDwznZ8S+47pgVRrcfF7ltbV5xFSplrYMPluQSae6n+vxH83jCCSob5VBtp3lGaXoodp8v4HjtFp6XibRmm5ckhXL2RdyjigyugzdeT96EMxp5po7dqsXwlKOQ4vliCqqmd2scW+2blfraI7CLVjMC3vEsmjjS2X2ZnOpRymN7762irSkIIOdp1+TgXsCLdk1vU2N5jI3dDCoFJD4MHnKjStehzNShVM5v0ERf9r40y1uzC1T2dkTTpSy4j80M55K1X0fSbBoY64tSinHGrDofZd8uh5NyXZgSsiV2dNL0ytWxTjafZcWzWzQnirmHzTYV4Kpe3wBLUMrZeW0bTPfWMxhBzDgtYQy+20rF38cIh6pVsvNQBSboQioVGtlyaTXhkkj23x4+gHnEDW/8lB6HuCZr/2IUrjhuYoJTjuLIYmyVMwy+aGO6eI44YNFR8IZ8Ug8DQjj46nhvBG1tjP8JcNOpY92U7nT+qZ2SuAaxKSfnVxWgGhzn46z78cx4TWTc3f7sE94Ee6iIC14JlouTLpRh1Pmp/08FEDIsgzRozZeea8A/7CbhDscWQpCfw0jcExiZpfnyOghX5zbSp0GdoML/NhClbgxAJwt44TseTvTF+k1cmYBnenkHpu/U0393KSAJJHQSNHNv7snFs1+PuHKf2vm68S5l7z+uuQNFVxVizlURgjlUN0PHsCK4EhW3tVhNKpwtnq4/gkllkE7PAWsVhk6qSCEgEJAISAYmAROBNSuCYCVhqtRqZbHrr6FoqzdRxCk3MTqH8/Cx0RjmyyHFfZPsbcbeZ8NJ8fwdjMU+f58TAuq2J/IvySLMITA55kRm06FME/EMuau/rXMLtC9LenUnhKWko1AKTPS4CiOgtakKTXtofaWe4WaTi20WkpIj4vUEmd3dR9+Qkmg1pmPOnT9llBg1Zaw3R/+3tHWegbfq0NNL+nqdGlg0mq11npvSDVpQaGd6hSTwe0KZrEP1B+l/qovNVD2VfKSbNoiDoDeJuGY7GR0l/n4Wc7VaUSgHf8CSdz/QwUBXG/vFMstcbIroFzuZBOh7uZyLNQMkHMzDblET8NHt3DtD2eKLiTpITRoA1V5fj39lJ43NxdlqxqhZFSq4uQ6xqp+4fccSSmPfLKL2+HM9fG2ivSk79Mp2RhWO7AYVWRsgbJBQWolYF7q4Jan/VvchySXeiCaNt+n1TZhmw5Wmioo2rbYSR3pndoctD17PJBeVOOTWT0ncZUajAPxUkEmV3Yl8vDTFipsxFoCxLpeScDLSpckQhRMAbRqYUCbq8tD3UzlDjfKsBZY6W9O0GrBvNqBUC4akp2p/upXfnjEgmKsh6fxqW9RZ0+kg/w3i6Rul6tpfBuqXEEAUl3yjCbJYR8vioua2RyaMNRpzMFNyYzonnpTO+WjGwrqwgxw4rCuI+t92igCJFgeXMTPI2pRBy+xmv7qfx0bHZ+EKiQNrpFvK2mVAbFBHDjejl6x2l+t6e5AQlmYjtw7nkR1yM/9pIz8EFNjcqESEUnudepNtoZf15NsI+J3tuaCeQhJGJ+gQbmz5kJeQO4Jta3k5PppNHYx12PlBNV2Wkh9MuhPQOUXlP35LxlmRperZ8Mx/X3k7q/j5BcIFln+6UTNafYyY45cfvXjw/BVFAZVRA9xIxsAoN5JTJGK104Z+aDXyd8eE87GWaRVnjlpuWCpMcfwJWOhH3tuxPOsgpVNDxYCPdlTGgp0ZELAcpBpHAuIt9t7cuGU8tsvBnX1BATk6Qnbe0LRI+De/NYe07U/E1dbHvf8fm/d38yVJK1irof6R1UexAocTE1k9nwdgklXe1LZHZL5kXdZXLinIKvlSMbWY99g85qf+/TpxLul8eFrA8dO8YX2RZattsRRnw0Fk1Z+1WqMjakha1RgqOu6j8UduRTM2xeiM3aSi+NJ9UPYzu6ab+sWRjLMoourIAi111xJpqqn2Ilr+P4BkLTAuF8U1ilwG9AgFLELGcomdkx8QiS71VHlGpOomAREAiIBGQCEgEjiMCx0zAOvnkk8nMzCQUCvHoo48eR11OsCmCgCgXollxogJQOEw4MDfr4MJ6FgRx90Eka07kay9SReT+RAKPRmKDRP87U/3C50b+Jkbih8ypT5CLRzaYy/UuuLTJzuxt4ky/5z4/GJ79OJ3z95B/+nRbVIrzXATCkc1oILzo30OBEGFBOCIKHn5oQu1KcNgWFhMUIgRX/nG9KvdH+r0Cs5XIJleIzME5Y7HUHIq0MyIULnuFw4s22olgjbYh0pbIPJ4Z20Tui9ww/x2A8BJjEak/8r7NvRY+a+E8i76XwfmxexaN/+H3JZl2J9S5BApts3HSR6yMrYaAFbFYuaaENOVRCFgyEdOZ6Ti2mVCoRMIeL22PdzJ4wLtkZrDIpBK1Kgo/m4slI5JTM8LcT+Vt9XgS1ELzP1+MzRrg0N3tOIcW73K1J6az5iwLImH8kZh+EQsWgzK6po29WE/tU8m57qpPzGDTuRZGX2yl7qnlhWfzOfmUnKKn68EaOvdNv6TrvlOO3iDDO+xifCCG8CwKGBypqJXT87X7r810LAhMbTjdztoz0oiXhXDJIO6igEyvJOfCHDJz1NH1PnJF3pOIS3Tn/bV0Va1gUVli2orpWtZ8Lh+9MkDdnY2MjS9dt5hjYNMVuUS679zRTPVjsS0xsz5VSG55RGwboOq3iy1t5dl6tl2VDwTZf3PtvPkkqNLY9n07Mo+T/de3s9BpLf/yYjLzVEzu6uDgI8mKMQm8u0dZRDCq2fqtIqZ2tXPoUWec9f+wgOWk8nudLGmktEybQpF1NZZxqSiQdaGDnDIt/r5Ran7TgzeGoJpQd0UB64dyKdqWMn+dDoYYebmLhn8ezTgkKWCJIjlXlmLPkjH8QhsN/1zBAVVCnZYKSQQkAhIBiYBEQCJwvBGQBKxVG5HEshCu2uOkiiQCEoHjm0AcASt/A9T8oJ2523/jKXay8t3U/2mYgEqOabuRnNMsaDTijHjhYe/3mvDFThQ6j0ckyYNxuxFLkR6NWYlSL8MzMEHvi6NM9njxDieR0U0QUDv0FH0ylxSNQPWP6qLZwJa7FLkplF9oj7qCtT03EdMS6fD9glyGfp2Jso/akE8bEuLrG6Xyx90LYiTFH/KVCFj9TzbS8tI0VEVWCsWfzCbVuHwgpXAgQPfjnXTvdi2y1DoiYM2pd27LxVQl268upu/xFtpejS0ARcvPcF93aR6H9d2JfT0cenBkZa6cC/HJ5eR/Iof0YhUDz/fQ/ZozavEV79Jvs7LuIzZCXb3s+vnw/LbIRQqvKMKapYyK3t2PNNKxK8aETVGx6Zpi1IFJ9n6/Dd+c6STIRDZ/txwGh9j/8/5FVkkpp2RScY4ZT3Mf+38zFK+5b8jf5WYVwRFv/MMLmYI1N5WSKkyw9+qOpF3dY3VOUMiwnZNF1jo9vs4R2p8ewdWbeNbIJYEJAtoSA2UX5aCSQdfDrfQcmJrvGqhQUPS5XFIMMy9ygvQVKUpkYhjveHw35agFY8q01XnkdK374VY69izzHiXYBqmYREAiIBGQCEgEJALHPwFJwFq1MZIErFVDKVUkEXgrEIgIWB+2MPivdpoWxMxTWpUER3yL3K+EiPvkAnc0Ua8g/5IC0m0iXQ+20HVgCfVKVGE/14w6ddpy1N/nxzPix+fy4xny4uk/+g2soFKQ8S4TIy8O4nXF9hmSmdVkvycdndxL9wvDSQX8Nrwvh7XvMDBRPUjz3wbwrMCwQn1COkXrFfQ8PcBIx/LWW8Z32tB53Azsm8CXeGzquLNTU5GGPuhlqNYdU2iKWEzqzDDZl5jflXJDJmWnKeh7boih6qllszfGbVxEpLNpyXy7mVS7yPDOMYarnXidibVlWlgTyfiUA2N/J7VPLbBSiwT+/kRe1Ppq+NVeWp4Ync4kuugSsf5PFv4dvYx1LTAfEsD6TguTu0dwT8Rol0HD2suz6fl9C6MJMkyEyxtSRqdkYyT77PAglXf0L8r4mmybrGdmkJYu4KyZYrx9EvfQ6sf9iyRksK1TMrBjMuZclFtUqNQhPMNBgu4k5lWynZXKSwQkAhIBiYBEQCLwX0dAErBWYciVNiVKq56SC7NQBkO0PhRxlfHj7Vm8QV2Fx0lVSAQkAm8CApE4YBqni/G5gbBX2G6lVYtK7sXZu/qb0RU2acnb9OvSkI1PMt6RROCqw7WJSgwOmGhOLmbcavfhrV2fiOU0E77GMSaOZm7KBeSB8FELLm9t1gn0TikjfauawddcRxlHKoFnSUUkAhIBiYBEQCIgEZAIvMkJSALWKgyg/X9ySbMsdDcJ0Hp/B67xVXiAVIVEQCIgEZAISAQkAhIBiYBEQCIgEZAISAQkAhKB/2ICkoD1Xzz4UtclAhIBiYBEQCIgEZAISAQkAhIBiYBEQCIgEZAIvBkISALWm2GUpDZKBCQCEgGJgERAIiARkAhIBCQCEgGJgERAIiAR+C8mcMwELI1Gg1w+7VbndCaYb/2/eCCkrksEJAISAYmAREAiIBGQCEgEJAISAYmAREAiIBGQCMQmcMwELAm4REAiIBGQCEgEJAISAYmAREAiIBGQCEgEJAISAYmARGA1CEgC1mpQlOqQCEgEJAISAYmAREAiIBGQCEgEJAISAYmAREAiIBE4ZgQkAeuYoZUqlghIBCQCEgGJgERAIvD/7N0HeN1V/cfx9+/ukXuTm7337t5QZIqIgAguQAQcoIiDJbMIFAoFGYoM/4CgUBzMIggiIDJEKN0je++9k5vc/X9u0rSZTdIkbVq+99Hn4Wl+4/xe59zb3k++5xwREAEREAEREAEREAERmAkBCbBmQlGuIQIiIAIiIAIiIAIiIAIiIAIiIAIiIAIiMGsCEmDNGq1cWAREQAREQAREQAREQAREQAREQAREQAREYCYEJMCaCUW5xlErELDMhjO3HWev75A/oypAS0SWlvotdnyH/vaH/Hln7IaKkaAUD+3Fzhm7pFxIBERABERABERABERABERABETg8ArMWoAVGRmJyWTC5/NRVlZ2eJ9S7i4CByOgUpFxUyaB3l7KXq2jOa+P6eZIapuR6AUaqv/bhc87QaOC9Bx7Yxquli6q32mkYUfvQd9fG2UibFUw4YkqCp6upLfzYEDGOSfQTObFIbRvaqcttwtHt19JRfAKKz25HTh6pqs2xbaqzKxYl4Szup2qt5toLXZM8QIzcbiKkHl62vJ68U7UzxPcTtGrsS4IJOakYKr+VEJX88SeilmNr8czEw8y7BqKTkNAiI+uupm/9ow3Vi4oAiIgAiIgAiIgAiIgAiJwVAnMWoC1evVqoqKi8Hq9bNy48ahCk4f5fAiojDqW35KOyuui9u0aqj7qHjNAMi2xEZaqmxSKKTmEIJuKjk0V5L3adeDKqr0BFrgpeLiY1hr3qHvoow34Opw4e4anJCqTGl2gFkOkiahTwwgK0e4719XYwc5HqnDNWIGSgQV3pRKgBp/TwbZ7inHafYScFUfKMgNlGyppLnMcuioylYnldyaj8TgpfqaU5pLRbpPqrGkelHhFGub2Vgo3tuIaWcGnVlBrwOMYHUapDGq0Vg3aAC3BxwYTkW1Bo1YGWuPsYcc95fTaDxxi6Y+NIiXeQek7nXimGaANZTCdFEv2MWaqXy6jZosd78RZ2jQV5XQREAEREAEREAEREAEREAERGBCQAEtGggiMI6D7YhzLvhRIw+sllH7cu+8oRWF4GKOoiPx2KG2vN+Gw+0j4cRrRSRrKH8+jbkTxYcKV84kK97Ln1/l0d0yQLOwLsLrYemMFY+VNlhNimHeqieJny+gzmAhZEUhwXAA6rdLfRo/dRXe9nZ6GXux1ffQ2uuirdR10JdfYVFqyfpVBkNlLzYZcKnMGj1KR+It0oqI19ORXs+eZ9kMTeKgMLL8zFW9lI9sebzx841tjZvHtSWha29n+UDWeYUVLRubdFkPdU2V0NPrQZwQQvjiQ4DQLOs1A3+Hx4elzY2+2Y29zYG919T+LfVcn3U0HHjv6VVEsPTcEn8eLdwaLpVRaFf7x3/5JOXl/7z58tnJnERABERABERABERABERCBz52ABFjjdblaRehp4URlWtBoFNzdvdS8WUdrxeGp5vjcjczD/cAaDRm3ZhKsc7BjXTG9/dPiQJcazPyvaNn5WMOIQGJ/g1OvyiQszEvuLYV0jKhQ6Q+wQj1sWZeHe6KZbYF6Vt6UhpoDB1jzz7DRvb2Gone68Xp8eN0+vC4vPpfvkFU9pV47j7AwH9V/yqUqf7+FJi6A5T9NxF8/1PxuCUXv7g8CZ62LVQrLbp+Hr+YwB1hA1PnJJC42YS9pZOeTQ8M0IwvWp2ByuSh9oQaX10Nfgwefd2//ub14Hd6Jp5mOgzgYYDW9WUzxh30zRh3z0/nEx8GO9Xvo7Zixy8qFREAEREAEREAEREAEREAERGBCAQmwxiAKPD6C5BOttHzsXz+nF5fTh86iI/SUCKzqPor/WkNP+4S2csARLKCPt7H0ihhwu+hpGwwtFfQhBjQqsBc2kvtc4+hpeAYTi25JRtfRxZb7KkZUOqlJvSmLEGMvW+4swTNQUDP+y6Rl8a0ZGCcRYHX+r5yc1w5fRUzcj9OJTdLR/OYeij4c+kgKkT9OJylJS/eOSnb/bWYW31LbDGT+KIGOd0qp3jYCcm+A5S6pYeczbYd1FOqXh7P0m+F4Oux8tr50SFsGAixjj4PNdxXNeNAoAdZh7Xa5uQiIgAiIgAiIgAiIgAiIwCwISIA1DFUh8EsxpK/SUfxUJW11o6utgk6MJHG5joJHKumdqIJmFjpMLnkoBFREX5pCfKKKPesL6d67CLkmwsziq5NQdXRR+mo9LXmOUVPxAk6NZcGpQbR/UkXe30eWqGjJuC2DIFU3W+4sxzNRMd8YAZbGpseodu5byNs/hdBfgTXTAZbGosbT5Zn0VMPw7ySTstBE+wf55P1z+INpUoJZ+A0LxX+optdoIm6lnoqNzYyc2aYYNcR+OxqzYeI+1oWYMVvVgJeKF0uo3Trkzbg3wHIWVLH7z4e5TMhiZOF1ybh21ZL30tAwTUfmbelYPRJgTdzbcoQIiIAIiIAIiIAIiIAIiIAIzOU1sFRqYr6XSFyylvzfFtLePIMrEY/T8/o0G0t/GEn+A4W0NY2/cEzo1xKItnaya8Phre6YaADHX5ZKz7vFtMgmkBNRDfu5NiWIJZfG0PFeGQXv2Pf9LOzrSSSm+tjx63LGLp5SkXVDBoEmF7kPFdPZOuK2OgML1qZi7G5ly121DB3RilqFLsQfyAx5GbRkX5GMgW72PFiDS6cj6aIELJo+ch4po6fNx2wFWMFfjiMm3k3Vu230TmI3u6CTYkheGkDvnkry3h57mqCi15N2cRwBFjU9efXseaZ5mIH/yVVWI8EZKrqKe3G0DQhpw4wsvzaFjv8VkfvaJFLjuRRgAWqTCo995OeXloxfZRDom6UAa3kUS78ZwlyYQrjg5niK767kEEwendL7XA4WAREQAREQAREQAREQARE4sgRmrQJr5cqVRERE9O9C+MYbb0xdxWZiyQ3+L+/Q9n4e+W/N4ErEY7RG0WnJuCkDY2E52/+6fyqWyqAhYLkVs7ePTrsOWzQ0bHOy5CdxbL29wL/O8px9Zf0yk8aX8yXAmkoPKQqJP0kjWGdn22+r952p2MwsuCKC4ntLsbtBHWRCp/Mvir43mFDAfEY8C79goeblUiq39NIfSgWq+9ej8jp9aFICWXpxDK7SGrY+0Ta8ukmtIvFnaYSY/Gsg7b2tWsEQ5N890IujxT38eJ+DnEcrUM0PZ8k3wme8Aiv4y/FknGzF5/bg6Jj4vafSq9H5tyF0uenrnFzY7CyrI/elrgmrvKYeYOlZfkcajtwqdv9ldAWWJtlCkL6P5ryJ5nBOZeBM9dgpBlgqhcATQrB/0oxrEhmeLiyUpddG0jxiDSxFbUAf6MLReuDqOl2YEX+JqbN7eF9OfQ0sFUvWJpB/W5kEWFMdInK8CIiACIiACIiACIiACIjAMIFZC7AURcH/f//LH2JN/aVn3vo0rIqPptfzKf544i+jfdfvAAAgAElEQVTRU7/H/jPM88NZeH4wO2/NZ7BYQgkxsvCqZFzbKympMDDvnHB0nZ18el8tyTdl4nk9h4o907nrbJ6rZ/EdaVT9cY8EWFNgNh8XxYKvhuDp7KFi0/4KO3NKcP9uch39VUEq4k6IQqtykv9oMe31PtRxwSy7Ipqm10sp/8Q+sKaRSsGyMoT0M8L7181SVAqKykfl47nUjFUV1/9+8fX/z/9ShxlZeW0KHGANLMPycJZ8c+YDrKAvxpH1pUD6KhrZ/vuJd/IzZgWz+JJovA0NbP5N06jKqil0wahDxw2wNAphxweiqEacomhJPCWCvrJm6ktHLmCuIfrESIxaLw1vlVL6wcwtcD61ZxwIsII0Lso+bJjwVENUIDHzLfj67Gy7txTnBOVM4wVYKr2ZZbcm0p3fREvtWPta+ncq0BF/fDgan5eaF4uo2rE/6JtygJUWysofWth9owRYE3ayHCACIiACIiACIiACIiACInBAgVkLsKbibkgJIsW/btC2Wmo2D36pUki6JpvIUB+56/Lp2JsqaSJNpHw1Al9jC0V/75ywemOy7Yi/IpOIIAeb7x5MFlQkXZFGkLud7U8MfMFccHM26qYmdjzZRNgl6cR7a9m64fAtnH2gZwu7IIWURUaKHpcAa7JjALOJhVdFgVuH1tND4YvN/afqF4eSdqyVurdK94WB6T9IQksfhX+owBEVTOYZNkr/VEZ7hXPfgtzmbDM9uT0oejVR5yaQsMhIyyfVFL42uXWZjImhLL48csYDLH2qjTBLF9Xbx1+Ey3J8NPPPDMaeW8vOZ0fOhRwtqksNZNmlcfh629i8tmbU+laT7oMxDjxQBZY22kpYppqecgfewYxb0ZP5oxjsu+up/N/+KaCDl068KBmzzknZn8tpKBgnxJlOg0eca0wy0lfWO+KzSkvmrRkEKk5yn6neF1qOd1vz/DCSjrcAHvJ+V0h77YED/QMFWMtvS8JRUk/pu6Nt+u9v0ZP+3Ri0Xjf5jxXTXr1/nEwpwNKoSPtlBqFBfeyQAGsGR5RcSgREQAREQAREQAREQAQ+nwJzIsBK/HkWUTH+9X98NL9fTcm/OvD6IPTCFFIztGxeV4DH6UOfFEjmRTGYTCr8KcG29bk4OmdgDp/RyMJbUtBUNrDt8ab+kWBcEcHCc4IoeaSI5jp/1Y2GxWszcWytJu+1doxfjGPxwj42jag2UVm0BKSasIWpqHm7jYnW6Z7pYacJNRBxXBixqwJRqaBwCgGW2qolcEEAjv+1sXfd8lHN04bqCF5ipv2dNsacyaRW0McZCEqx4NjUTPuIKUgTPa8uPoBAi4umnEnMk5roYlP8eepPk+l6rxrTqcnYlE62/a52YCycEM3iM4Ip37CHupyBiy65LRtPaS0V5VpsJjd1H7XhsOsITPLRUTZQsRJ2cRoJUW4a/tdM7R4HerUHe/PkKwlDzksmfYlpUgGWPbeOss0TrzKkCTaTdEYEOsVLxQvF1O4YO8DZF2DtqWXncxMHWESYWelf4N7dx9Y7i8ec5pZ8fhQNbzfQ0zq1isypTiFUVIEsvyuO1lfLKNnUM2IUqJn3qyxMfV1svq9iiiPkwIfrogwYgoaXg+liAkk8JZi+vEZyNjQNCbGmsguhioRfpBMdqaL8iQLqyiceQxMFWPZdFez5W9fYD2QzsuSGFHSOdrbcVj0sjJxcgKWgTzIRfUokkWlGoGfKAZbKqMGcZiIowUztv+rwTCFn1ITpCcky0fph29hr1akUtFF6IjL11P27Y0bD1hkdUHIxERABERABERABERABERCBYQJzIsCynRZD2sk21AMzDmn7pJbiN1sxLI0m+zQtW+6qQJccROaFMRiNA9OsHE1d7HqkEvcM5BzqTBsrvxdD96Zydm8cqKhK+UUGlr4OdjxRP9AonZVla+Np+3sZpZ/2YDg2miWnwWdrawk4KZL4ZSYUlQptgB6dXoHuDrauq8L/vUvRawg7MZSoFYEYzVq8fX3UvVNH1Scjv1wP3Eoxawk/IYSIRVY0Kh8+fxLV56Dho1Yad3ThdowO7YJOiibpWPO+zlWbdWg1Cs7uIZUpe39a9pdS2iv2fwkO/HIccfMMBITrUXBReFMBLSNuEXF+EuGxWsyhOhTs7LqpdFjIlfGz5P7nVhs0GCxa/L1U+UA+NU0DEZ4xI5DY00IJCtejUSt0FbVQ8moDvW2+/ql2WT9PwhCkx2BU0/Z+Gflv2TFnW4k+KZSgKH1/GOexO2j6oJmqTzv2rxM1U2/omCBCzN20FLpJ+nnmpAOsXRva97VAtSiCFeeH0PppA1XvtRJwbipp2XqaPqqi7J8deKaS2yga0m7OJNRfdIOH9l2tVL/fQlft8Eh0cAqhs76LtvLRazqpjAbCFpnoreygc2TVjn+K2L8bcHSPHk9TDrD0ehbcnobZ52XbXXk4RyagoUGsuCYWxd5L+QvVNBZO/o075QArJYyVl0VQt6GYypyRUwQH2qnr6GDrb6pmavT0X0cTZSb125EoPU5cbZ7+ijBttJngeD3uTjvFT5XSNjhb0Gxi0a+S0bZ3suXeygNWYKnjA1lyRRxKSydb7q/cV+F3oMYfrgAr9qJEwmL967b5P8gUdBYdKsWLo8M1ogLNRf7D5fQOLWBdEc6CEwIGPkfNWnQGNT6vj23rcnDaQTGoCVkVQvRxNowBWnC5aPigjsr3OvGiEPm9RMIi9ATYNNBnZ8faUnqHDW0NCZfFERRuwGRRQ2cbW+6uGWdDBvDvihmy3Eb4ahsGNfhUCjhdtGxppeHTdhzjFLDN6KCSi4mACIiACIiACIiACIiACOwTmBMBlr816hAjSV+PIjDWgE6vomt3A+VbXGSepGb3Gx7mXx6LVvHS19hL4//qqZ1Etclk+zlgVSQLzg2l5d0iCt91gNXKshvjaX2zlLL/7v2WsjSSY74dSsWfi6jb7RgIsL6mZvONVcOqrFQGPctuSUPTNxBgeUKMpF2agC+/jqI3OjCsiGTR10LB6WTHrYWjFjbWRJlY+LNkPBUtFPy1nr6ugW9ghsXBZJ0ThdLeTt6TdfT2HDgNib48g4RE7ZQqsBJ/mk5UnDJmgNXfCLXC4luyMBr7RgVYQ63Dv59OSoZuIMBq9hLypSjiszWUvlBJR62P+TdlYQlU07GpmtyN+wOgwFPjyD41kPb/VlDvDSRloZ6af9dSv7kXn1pF6JnRpK0OovWDMgr/2TNj00dHjpODDbAifphBcpqGlk9rKH61HcPZiSxaHcCu+/PomULlVT91opUVl8f3B4H+NbCqtijELjPR/FEN5e904N6bVU20BpYuNJSlvxy9mPdE7w3riTHM+4oN+zgVWIpGTfx5wdS+2IzL2b/gF8nXZxNh87H73ny624dXCYX9IIPUdC1eh4u6d6qp/O/Y4e1Y7ZpqgKX5cgIrTrZQ+EQBLaUjQz0Ti9Ylo25oY9vDNRMxTPvn1pNimXd6ENXP76Fq+5DLRVlYfmUCvromtj7WgjlUwV7vGjOcijovmcTFBmpeKKBy+8TVV/67jB9gGVl2awq9uydRgeXsYMttVcM2qphcBdbe59SqWXBrJgFa+5QrsJQgI4tvTEG/N8Byq3UkXRKPrrGdghea8QbZWHFjDBo8lDyZT2PJYFKlMP/mbCy63jECrIF2qYMNrLw+9YABltpiIPXyRMxuOwVPVtGzN+TVJVrJuCAGk87JnkfL6DkEu+NOexDKBURABERABERABERABETgKBGYMwHWUE/rcWGkfikMxeOkr7wDc3oYXYWNlLzQjHPyhRuT7qKgk2PJ+nIQdRv3UL4Jgs5JJusYA4W/z6Vl7yyjgLOTWLDaTMFje2itZCDAOl1h8201wwIs/3pHy27JROvoZNu9DSRdl0z7CwXUFw98wdIvDWPJtyNQXE523Vo4rIpJCTKw6PpU9C2NbHmwcfQOhzE2VvwsBnd5EzsebzhggHMwAVbsZanEpajHD7BUCpk3ZWKzOA4YYAWcm8iCVQH9AVbPkiji4xzsemr/QuBZ12USFKKhY1MNuRv3L5Qe+MU4sr8UiKfbibenm20P1TJs/X9FTfq6LELULnb9uoCeScxsm/QgGHKgP8AKtTio3j6wVpUmMpDYDDMtO2rp2rt8VcyxUTiLathXgaVTs2xNJlp7O1vvHajqMI0MsBSwHh+O839N9LkPPPU16PgYss607W1VF1tvrCTuFxmER2tw1bew9aG6/rDDP9V18TfCxt2F8GADrMFdCB1VLdSVjn7T6RKCiU404G5tZdeDtTjcEHJhCukLDFQ9XEB1zf5KMX8ly/I1GWg0Cs1vV1D03jhT18bprKkGWKE/yCItXU3Ob3PorB/pHMCSexLxljSy88mJF6c/mPEz7LNsnABrsOqzL7ea7c+2E/y1BOLj3RQ8XUvv0Oo1q4UlNyWgapxaxdi4uxDq1Cy/NYvePRMHWHqXnS13luIeMn3vUAVYoCN7fTpW/1Txu3NJuCyNvg8rqdo6WFFnYfn6BLT4KP1jDg2F+9Wzb8gi0OgYN8DCouPYNenjB1gqFelXp2NV7Gy7v3LUhgT+zRWWX5OCyt3NtnXlOGbh76Tpjjs5XwREQAREQAREQAREQASORoE5GWD5oXXJAaRfEI/Z6KHmjQpqPumbtYqbkQFW4pUZRIW72PWrUgYKnRSiLs8gMdHN7juK6baD8aRYFi9zsOmB4TuuDQ2wGmp1uHOrqPx0yDdAlYIxzoja5aK7dnh1SOSFKSRlatl2Vz6OcTZHS/ppOpGxGsqfy6cuZ/wqrLkQYFW93EDoMRr2/F/dvoohv6Y6QIc5Vo29rG/YdMjBAMtR18bOR2rwjFFsEvSddLIW6ih8soCWktFT5mbiTeoPsIK1PeQ8MzDfy7AygqwTA6l+tZCmooE7ZP88DXfJ/gBLHRnM8iuj6drTQGPFQH/r0kJJyDBS+Z9qHD0+DLGBxC6y4nM42H1PMfa+8UIsheSrMrHp+/DYzBj37kLoy7Cx9PsxqHwein+VT5Pbh+WEGOafYaPp7WKK3xs9aKYbYPVsr6Hw3dHVUkFfSyQpXYertoVdT9Tj7PNhXBTJ4gtC6d5axu4X95+jzQpn2SXh/dNTcx4opLNpauvWTS3AUpN8exYRhh6231JG38hF6KKDWP6LWJwFDez648B6d7P5Gq8Cy+xfY+8bYTS9lU/x+wON1EQHkHFJLJq2LvKeqvHPViP2h6nEpemoeK6A2j2Tq77qH3thoSy9dnTlnXIEBlg1FQ40O+ooG7GemSHehMbrpqfaOezvhukGWLazEsj4QgAVG/LG/Yy1fTeVzPkGav9aTMXOw7WT5WyOXLm2CIiACIiACIiACIiACMw9gVkLsDIyMrDZbPh8PjZt2jS5J1dUhH4pnIhsC+ZAH9XvthEa76E3NpogvYuOwk5q32+mu3HyX+Qmc+ORAdb8m7OwuLvY9Ovqgd++KwopN2YSru1m2x1V/YuX2y5IIVGpZ/tfhn+53xdgqXx07m4k92/NkwvewswsvSoJVWcHW39dNe46N7azEsn8QsCo6Xcjn3MuBFgel5ui3xfRNsGOaYNtHwyw2j4oI/+fY08xs56XyrwlBiqfKaYmb3a+OE59CqGK2KsyiItwU/p8A669oYl+RTiJGQYq/l5NX9fwsNHTYaejauwl/lUJQSz7STQNb5QTfGbyvgDLiULs5WnExqjYfns+Dg8EnRpH1qmB1L+eT9nHo6833QCr69Ny9rw6eqfNkIvSSJ+nJ/+hfNrqBu6rjTCz/Ook6Gpl8121A5WJipqk6zOItKno3lrJnhenvnPolAKsAC0rbslAXd/EZ79tGFU9Q3wQy6+IpW9rLXtenKUSviFvxvECrOAvxpFxiomC9QW0DuFVBWiJ/GoM8fONtOf2YM220lfQwO5nhy4AP/Gn2vhTCA0suzV1UlMI50IFVqACrromdjzWMCwEP5DAdAOseTdlY9XYB6qrxslaNVFhLL8yAldJHVufbJm4Q+QIERABERABERABERABERCBaQvMWoC1evVqoqKi8Hq9bNy48YANVQfpiTopnMgVVrRqBW93L0UbKnHYQsg63sPWR9tJ/kkS4XE68HnpKumg9r0GWktnZo8/y3FRzP9qCE1vFVD8votFa/y7lHXwyQMDu9D5qxYWr8lE09DE5sf8047UJN+Ygev5XKrKhj/avgBL7SLvt8W0N05u5W7TsnAWfSscR1Et254a/4u18QtRLD4rhN7yZnb8394F5sfQnQsBVuf/Ksh9rWtyAR6wL8DqX8T9wAFW1bPFVOfOToCVeu08rK62Se1C6J9CqIkIYNmV8ZRvKKIhb39V2KgphJN8u0ael0RMuJPtTzWy8NaMIQEWGDJsJCzwUfDSwNphoV9NIO04MxXP5lKbO/oGBxtghZ6VQNoXLDS9XUTxe6PnSEX+KJukZBV7fptPV/3e96FRy5JbMzAoHvY8UEBXkxddfCDLrogDvOQ+kE9H0+TeD0OfZCoBljbcwvJrEmj9TzEF/xpjfCwO49jzI+j4XzW5r+1ff22SXTPlw8YLsOJ+kEpksJPN91eOvqaiEHhsJJlfDfHvb9C/plrpa224p0A30SLujqI6ij8cZx0ys4HM78SinQNTCAPxDYSk9ZP/pcW0AiyDhWW3JkBNM1sfHf/zVW22sPyWBFQ97WxdV92/WYe8REAEREAEREAEREAEREAEZldgTgRYsT9KJy5Z1/+knp5eCp4op6PBQ8gFyaSketlydzlen5qkHyQRmWoYEPF52LYuv39q1nRf+kWhLL0gko7/lpL7DzsL12RhHhJgqUOtLL8mnu6tFeS83IUqOoBll0Wx9Y4ivCNuP3QK4eAuhJNpn+3kWDK/HISztImyj3vHPUWXZSNpuQVnw4HXxJkLAdbQXQgnYzBXAqz06+YT4GidZIDVQfiFSdjamyl8Y3h10UEFWDotC25IpfnlYurKYfGIAGukY9QFySQu0lK4voCWvetzDT3mYAOsiHOSSD7GRPXfcqjaMbr3BtdC2nV/7pCFrBUiLs8kOVFNzfPFVG53EP3DVBLS9Dhyq9j+bMekw8wpBVgDG5P2vyynxTH/lEAK78+npXl0wK1eEcHKb4TR9kEl+f/snMywnNYxYwZYGh3z16Tj3l5F/mtjdJpGReQlKSSl6eio7sMSY8TV2EHhX+voHgwLJ2jVRAGWr8tOZ/U4vwDQqglKN6PMgQCrfw2svbsQTrYjphVgLQhn1YXhuGrbKP/3+Gu1qfQGUr4VjkrpYeeNZciGhJPtHTlOBERABERABERABERABA5eYE4EWDE/SCM+TYerq5c9D5XT17/wlELytfMID3SzeV0Bnr07ncX9MInoVCMqn5dt6/Nw7N2l7+AJgEgLy69KwFNUx/anWki+OoMITTef3lfTv3V69I8ziI/X0PqfUgrf7SXs3ATCXM3kvjZ6atXBBlihX04g7WQL7qZOmqom/n2+p7OPqrfGryCRAOvgR4Q/wArU26nbPfAFVh1uITrFRNueBrr3fqeNXB6Os7CG/E99pC5Vk/v86Kq5cQMslQqdCZzdo0tqAr+aQIKth13PNoNJO2GAlfKLdMKDPWxfW8JYS2pNL8DSUXRfAc2jZkipSb4pi4hA2HlvDva2/SmuKjGUFT+OxFvfzO53HCy+OAb/Yk477iykz3VwYfNYFVgqgxqtWUPQiTYioiD/0Xqcai0Zt2QQrHOydV0hzjFyYNNJMSw63UbTW6UUvz/7scNYAZbu2EiWnhlA7r3FdI7MSFQKtq/EkfkFCx2bKsh7tZvgM+JIPT6w/zOv8s/F1OY6x51iPDjqJwqw7LsmsYi728HWO4twDSnAOyyLuB/KAOv4GI4904arvYfm0vF/kbD/08VF7QstUoF18B+3cqYIiIAIiIAIiIAIiIAITFpgTgRYilpB5Z866Pb6ZwgOvAwGFtyWSoDXw+51+XT37v3yq4BKq8JfdOFxTmFOzQFJVKTdkE0gnWy5txL9CdEsPcNGzRvluJMjCFfa6AyPJNzkorNdQe+xs+ORmjG/RB5sgBV0UixZpwdNOIVwsj0rAdZkpUYf11+B5Wxj5+/r+n/on7a54DQbFX/NpSFv4PiFN2XhKa1h95878A8E/46AI19jBliKivgrM4gO95LzYBFdzcPH8OJb0ij+fTHdLb5JBFgK89fMw2BvZ8tvqsd84IMNsGK/n0JcvI9td5SOsQ6QhvQ7MgnRedh+dx59QwuZ1ApLbsnCYFThdXn736sdn5SS+/eDD4v2B1glVLeYiFsditmi0La9ntI3O/E6vQM7MmYGs/h70XRvLmH3y2OHD0FnJpJ1fAA1Gwup3DRxUHzwo2jgzLECrPSrM1Dy6ih4a3QFWMhX40g7zkrnpnJyN+6d4qdA0EkxZH15YFfKhjeKKf3owNNnxw+wAlh+WyJdn5X3h2NjvmxGFvw4gsqnquhoGj5176gPsLLCWHVJBO6qA08hnO64kPNFQAREQAREQAREQAREQASmLjAnAqwxm713QWj/Nuk1f8qjMn+mwqpxvrN9KZ6ME4xsv7UAh08h5MtRJCw30fxpIzXvdeIN0BF5YhCeuh5ac+z4dEaM6j6624a362ADLPOKcBZ+IxxnXRNbHxrY/W46LwmwDlZPRcaN2RhbGtnxpH+9MzCeEM3iM4Ip37CHupyB6y65LRtPaR01LSbiF5nHvJlKr0FnUOHscuLdO0wUtQp9gKb/eE93L/lPldFZN/BD69nJWIpqqMnbW/ISqGflTWmo9+5COCpuiRrYUc/+WQ25G9vGbMPBBlhJV6QRou9jy2+qRl9Xr2PB7ekEKN1sXVOOc8TyRNZzEph3jKX/PFdLJ9vvr8QzKuBT+qdetr1cimucLEYxagk53kZEuhVrrH/qsI+O/Gaq32vH3uActoMlqEj6RUZ/Ndq2dYX7FtIf2fiwbyWTusxE9cuFVG0+9AGWdlkEi07WsvvhGhzDVghXiLs4kZgMPTVvVlL18YjAT60i/LxEUhaawOcm5zcFdDaOX9E2XoCFosEQ7MPR6pmwimusAXXUB1g6K8vXxqNpaefT+8cOhQ/2k0XOEwEREAEREAEREAEREAERmJ7AnA2w1CmBrLzMv/izj6pH86iumt0ASx1hZsnVidj/U0LuWIs/D3XWaki+KgXHK0XUlMxMgKWEBbDkmkQ09l4231WyvxJtjP7VRhkxKk46D7C734ECLG2cCb2zj+6G4W2PviSFhCwNhTcV4C8AGvVSKSxYk0WAuY9dN5Uy3vJjAecmsmBVAEfkGlgqIwvuSMG7tZKcjQMVMuMHWLXserELS6yWvjoXLrtn31pM/vOmsgaWYtKQ/nUzRX/p2Bd2EaTn2BvTYJwAK+icRLKOMVPx5wJqd4+9npEuI4Kl3w+j+c1iij+c/KL32TfOQymqJeflMYKxYAMrrk9FY29l8x17dxscMljUKSEsvTQKjQL2wkZ2Pj0QBA57mbQsuTma3bdV4N4bgGljzYTPD8AQrMecYMRk1fo3AMXV1kPth6205XfROyIwHrymZXUU884OpvWDcgrH2cHSf2zUxakkZhsoe3YP9WMseq+26ok+MRiNx0XN+y047Qc37XGwXUMrsKr3qJn/y0Qqniins2V/6qeKMJP2nVjM3l5KN9bRXrl/I4ChZv7NJJJ/lk54uJrK54qp2TN+f44bYE3v7wtmMsAyZwXgrujGMWZxno7s9ekczBpYmddmYrM42bG2lMHC3aGPrQrSs8r/vupsY8vdNQzXVrFgTSYBJic564vpHKdIbeB6OqwJXjorZmYzkWl2jZwuAiIgAiIgAiIgAiIgAke9wKwFWAsXLiQ0NLR/F8L3339/6pCKipATw7AY3FS+04J38ptQTf1ee88IPjuJjGN17L6niO6O8QIzhdCvxBGf7GLbowNTzIZ9ydSrWXZLJlpHJ1NZxN1/jehL0kjI1FL5RAE1ZeM9sL9SIwHnR1U0jHsMhH4nnbSFOkr+mEdjwfBrhZ0dj7qohvq8kX+eQOpqE2UP5FHfNJpRFWVl+c/jUavsR22ApaTaWHFpNHUv5FO1bcDngAHWhvHXIZtKgDXmoJ0gwJp3cxZmTzc77qtivNm0+lVRLD03hKapBFgWC0tvjqfh+UJqdrgIOCEcm9mLs9mDs9eFLjqQ5FNsuAur2Pz08EXIlQA9C65Nwazx4lY0aDQ+OrbVkvdS27BQVhthYdllAWxeV8fgKNRGBLDgF4no1f7c2ktXUScNm5poyhm9C+KwQCLUyPwrklE3tLLr8f3XG8s04fI0ohM1FD2WR/OoDQBVxF6RRly8tv/U3sI6dj3dwnSi88GNCWpezqW6PgCzvZuuloErKgY1IceEkXSihcaPG6n5sAP3REVhaj0Lboin8ukSOurHb5kuJZyll4VPObic6MNzSgGWoiLt1ixCjQ52rSumZ0QYlHx5HI3PVdE9Zkh08AFW8hVpRET72HNHMV1jeJqWRLLovNBxAiwI+Xoi6SsDaH6/nKK3xkmwFIXg85Iw5tRQs/vA43MiU/m5CIiACIiACIiACIiACIjA5ARmLcCa3O3n1lGKUUP2temYe9vZ/Xg9vSMX2dapCT05kqQlWvbcX07vGL94P9gphH4JTbiJhT9NQq91seehEroaRodYtjNiiQ7sJeevo1bWHh6kLQhn5YXhNL1ZRumHe9fS6f/SrCXzkjCKH68dUXkAxsVhLDo/gp4dlex+vnNYNZFi0JF6dQoWswq9xkHOuhI6u8euTjmSK7CsJ8eQfYKeXXeUMlh8c/gDrG62rSnHMWQ4aBZEsuzCEOr+WkLlzvErcfYFWP8spviDyVVgWU6PZ94qFTvXljO4kpRhUQjpXwnDHDQw/dE//6zmL3lU7t4foqisejKuSiVQ66b06TIccSFknhGCCujeXUPei+24+zdjgIBT45iX1MWmJ3pLx8kAACAASURBVIcHgIbVkcz7gonS5ypoO0CF4b7BrlWTcWUaVm0vOQ9VYJ9gqa3M6zKxhXjIXVtEx6hlshTif55JTIw/QfO/XOQ86J+qdxCfUzo1tuPCSFwVQFdFH+Y4PTUvVNNS6egP8rTxFlLPCcNZ0krJG+OHoAdx5/5TDiq4nMTNBgOsnfflYt8bxB3oNNv5aWQu1lP8hzyaivcPYHVoIKmnqCh4Yeypr/7qpoOtwAo+M56M463Uv1lE2YfDwyV1mInMH8dhDdCCvYNt66twjCx4U+vIuCaFYKuHot+X0lw74oNeUTClh5B1lpZdv6vDNXbB3CQ05RAREAEREAEREAEREAEREIGpCEiANUpLIfuGDAKDVDR8UEP1R114vCoCvxBM0glhqO095DxSTs+Q3cMUleLfNLH/5d8dbemNGWgUO7vuLMc+5LuPb/RCQKPurrYaWXJdMlqtj4YPqqn8d3d/BYhi0JD4wyRs7na2P9ywr2rlQJ2deU0GtmAofb6MpgI3+L/s/yyZppdKaS4Z61uXisSfpxMVrab1f5WUvN2D1weG9EAyz4ui7c0i9KekYrOo8bk89DV1s+N3A2sk+RfiH/gPsH0riYxFJupfKqJ8+5ASCO/Yi50Pnm/7sn8dMgtdW6rJ2djBMC8/sUoh7PuZpKSqqX+xlPIdvcOPmcrIH+fYuB+kEuRuZ7d/F8C9L9OJ0Sz6ylhrYNWy65BUYDnYsa6I3sFiEL2GhbdmoKttZPujTQccC4NBRudnJeS8Mpld1SDjukzYU0vBP0cuMq4m/ZfphISqcVQ3sf3Rhn3rKPkrrzKvSSVQ5yHnwUK6WgeCrcAvxZL9xaD+//b1dLP7sUp6WiDx2mys5aXsevngF3dHoybl2nTCAtzkPFRMV/ME0/0UFYtvzcbo7WbbuvIxFqcHVaCOzJ+mEmj1x24+8h/NoW2MZcDGHWoK+CvJFv4iEW1fNzt/U06v/7NCryHlynRCtXZynqymp9l9wGnC0x3Kg/3eld9ES8PMJSyWhdGE2GDXfbn0TCLAAg2Lb89A5+wh/+kqult9qIPNLPxRJHm/K8I+NLtTKf1TRvtfBj3zb0klwOdjx33+jQL29+2En6NqHdk3phFo8lL1jzLqtjrxn209NpzUUwKpeKWM1AvS+2/j6XPTU9ZCzjMjSk794/mKZGw2FR25tRS93IHHDf5fUESeG0tMooqt95TgmahibrodKeeLgAiIgAiIgAiIgAiIgAjsE5AAa6zBoFFhTLOQeEY4gWF6FJ+P3sYOKl9vpr3cgdc9/ItyzEVJRCXr+6+kaNRotAPfwrwuD559x3axY20Nk1ktxf8lyZRpIf7UMKzBehTF178OUNXr9TQXj77/eOPZH6aFnu5fjD4QtQp669oofr6Bnsbx52MqWjXBp4SReFwIOi24nS5atzdT814Hfd1eMq9OpO3detrKXf3hkavbfy0ri2+Lpr82R1HQGNQDeZ7Ph9sxuFi0l+oNhdSXjm6tojay6KZEDCY1Sn9u4MNtd1F4fzEdvQNBiCEtkPkXRg+/dl8vBXeUMuS77TTf2gYWrU2k5o+FNJfvrywKOiORrBMCqHmlkMrPBr6xDizifuAAK+S7aaTP17Pr/jx6mg9iDuy+KYTDAyzLmfHMP07PjnuK6Z3g4accYFkDWXFjBAW/KaKzaXQgZMi0Ygtw0bC9d9+0XnVMANk/iEfv6GbXo1U4hy6OplKwnhJN9qm2/jHhc3vorrFjSLDg3HzwAZYSoCX98lRsxh52/q6K3o7BtqqI+UkqwR47LaXddOzupqdh4F1n/WoS2ceZ6StuYMcfxpgjOzh6dGoWrMkgQG1nx23l9E6267QaEi5JIDLFiMrnGN0/KhWWkyPJ/qINT4+L7vIO6re305nrmNI0RZVVi86sxpSiRx+ko+ONpn3VgoOPMNjvre9XULF55qa4RXw3neioqQRYoLboiDs/logkE3jddOQ2Ufb3VhwjFtEL+U46SWn+DwB/IK5Coxv4b39Y7t77Oert7GXbbyomfJ+rArREnBVJ3IJAVCof7h4Hjf9rpO7TblxqDat+Hk3BX+qwt3r6d79120dPx1Q0KgwxRmLOjSIkXN8/fl1dvTT8t5H6z3pGbCIwYZPkABEQAREQAREQAREQAREQgWkKSIA1TUA5/egR8C+KHk07ea+291dsDL6CzkggXNNFzbYe3D1uHG1eltyejaek5oAVWGGXpJGaNbMBlj4xiPnfC6Pw9/4pphOvzjSlAEulIv6qdPTbqyj6z/5ppwfqYesx4aSeHkz7x3VUvt+Be6xiH0UhIMtG+vlR6HWDJTbgLqpmy1PDrSczmvRJVtK/FUlfXiNl/2zHPXKGl0mDJc5ExGkRhMbo+wNRr8eHSjMQiFS/VELVlvGr0fwB8pI1mTh3VbHnpZFVaOO3UB1kJP0nSQQaPeQ+UkRn49j9ow03ELIyhLhjbf4isoGQxuOvTtw/6tx9A6mZSqdGNdDs/nBYNVjp6F+jq7yV0jeb6aocqDAa+prtKYS77s+lp3ni8TeZ/pRjREAEREAEREAEREAEREAERGAyAhJgTUZJjjn6BdQ6Fl4VSeHjVfSNWNtL0Sj43D60oWZizwwnMsvc79H+30ry/jF+wDEYYJX8Np/G+snU3o1gHlGB5dAaSP1OJM3/qKK1YnJlQfsDrFJyXjnwdD1tShALzzKx8/E63H0Hno7nX0st+twYgswuat9ppK1i4mlqSqCeyFXBhCyxYrFp8bn72LquBNcE99qnolIRdlok4Ulq6t9toKVo4vlbAQuDST4nCrNpIDizFzWQ+2zT+OsW+RfnPiOe9GN17HmghO5xdj0c7w2hCTYSEu+lYcfEVU/+RdytmRYs4XqMcXr0gVq0Rg1a/WBiBSqtev+0uiE3dTW2seuRGpzjEAz2e/3GIso2TdyWyb7BIy9JQV/bRs1HbROOkcleU44TAREQAREQAREQAREQAREQgckISIA1GSU55ugWUBTCLkrA+Y8qOlonCIYUhdBLUok29lH8t2rsbeMHPaHfTSFc1Uvpy/X09Uy9WkUdamDp5XF0lXVQ8mIjtq9E4PisiY66yV9LtzSMmHAnlf/uwHOgjEmvJeUH0VQ9UYFzwmxMIezcWHyFDTTnTBwijTV4NKEGgheb6fi4FUfvBGtX+SuRQk0kfz2M3p1N1G6yj6o4OtAA1SUEsfj7EXTkNFPyasvYVWKDuwIeF0nKcUaKnymlpWLyznPtDaJdYMNi76K15CCC07n2MNIeERABERABERABERABERABEfB/Z4uPj5/426NQiYAIiMBRLqAEG0k500rphoYprUl1lLPI44mACIiACIiACIiACIiACIjAnBCYtQBr1apVREZG4vV6ef311+fEw0ojREAEREAEREAEREAEREAEREAEREAEREAEjjyBWQuwVq9eTVRUVH+AtXHjxiNPRlosAiIgAiIgAiIgAiIgAiIgAiIgAiIgAiIwJwQkwJoT3SCNEAEREAEREAEREAEREAEREAEREAEREAERGE9AAiwZGyIgAiIgAiIgAiIgAiIgAiIgAiIgAiIgAnNaQAKsOd090jgREAEREAEREAEREAEREAEREAEREAEREAEJsGQMiIAIiIAIiIAIiIAIiIAIiIAIiIAIiIAIzGkBCbDmdPdI40RABERABERABERABERABERABERABERABGYtwEpPT8dms+Hz+fjss89EWgREQAREQAREQAREQAREQAREQAREQAREQAQOSmDWAqyDao2cJAIiIAIiIAIiIAIiIAIiIAIiIAIiIAIiIAIjBCTAkiEhAiIgAiIgAiIgAiIgAiIgAiIgAiIgAiIwpwU+lwGWYtUz74eh5D5cg9c9p/tHGicCIiACIiACIiACIiACIiACIiACIiACn3uBz2WAFXBcDFmrvWy9vw6v73M/BgRABERABERABERABERABERABERABERABOa0wOcvwDLrmf/LJJoeK6ShyTunO0caJwIiIAIiIAIiIAIiIAIiIAIiIAIiIAIiAJ+7AMt6XBSpy1Rs+12N9L8IiIAIiIAIiIAIiIAIiIAIiIAIiIAIiMARIPD5CrA0GjJ+mYr9zRKqdrmOgO6RJoqACIiACIiACIiACIiACIiACIiACIiACMxagLV69WqioqLwer1s3LjxoKQ1wXqMZhU91b0zslaV6QuRZC1V91dfydJXB9UlcpIIiIAIiIAIiIAIiIAIiIAIiIAIiIAIHHKBuRtgGY0suDWFAMVH3Qv5lG/zTBNHIfO6DHr+U07Vlr5pXktOFwEREAEREAEREAEREAEREAEREAEREAEROFQCczfAUhuYvy4ViwJt7+eR/9b0AiztikiWnKRh+wPVuGTt9kM1vuQ+IiACIiACIiACIiACIiACIiACIiACIjBtgbkbYKEl49YMgk0+qn6XR3Xt9FKnzOuy9lZf9U4bTS4gAiIgAiIgAiIgAiIgAiIgAiIgAiIgAiJw6ATmRIAV8pU40k6wYC9ro+DZehx9AytUxf4kk7hYhe135tPX/2cKoV+OIvlEG76OLrb/phK3c2IsJT6YFRdZ2PlgBQ7JryYGkyNEQAREQAREQAREQAREQAREQAREQAREYA4JzIkAK/HnWUTFqPtZPG2d5D5eTXe7l8CvJZC5RM+WuwrxuBXCz4oj5TjrAJ/Px7a7c3F0TbAcu1pF6g3ZeN4rouxTxxyil6aIgAiIgAiIgAiIgAiIgAiIgAiIgAiIgAhMRmBOBFi6mADSL4wlwKZBUcBn7yH39xW4baHM+7qGrffWEX5BEkkLTQMhl91Jy+YaSv/ZM+FugrqYIJZdEc7WdYU4pfpqMmNCjhEBERABERABERABERABERABERABERCBOSUwawFWfHw8VqsVn89HTk7OxA+tgEqnIe4HCUQlGMHppPxfdUQnqWkIiCA+UYu7207pC9W0lbjweiaovOq/o0LcL7KwlBSR+4Zr4jbIESIgAiIgAiIgAiIgAiIgAiIgAiIgAiIgAnNOYNYCrOk8qdqqxZJtJf7UcHReJ607W6jf3ENvswvfFNZy1yUFsejiMLavLcI9nQbJuSIgAiIgAiIgAiIgAiIgAiIgAiIgAiIgAodNYE4GWIZUC1HHBBMQrkLtdOF2KbTuaqNxczfuKSRRMZekEdhZT+7GrsMGLDcWAREQAREQAREQAREQAREQAREQAREQARGYnsCcCbBUJi22+VbCTwwlKERLT0ET5R+5SF3toazaQtqpQShOJ42ftdC8o4Ou2gMnWZrEIBZeHEL+XSXYPdNDkrNFQAREQAREQAREQAREQAREQAREQAREQAQOn8CcCLBMC0OYd0EUGmUAoievgZwNTZhPjCVjhYet99VhOTmajFOCUWsGdiBs31pNwSsdeMeZUhh9YTKB9lbyNrYfPl25swiIgAiIgAiIgAiIgAiIgAiIgAiIgAiIwLQF5kSAlXLNPMLDB9Krnvwa9vypDX8uFXVpOvGxPrasK8LjhoCVEcw7NwyV/1AfbF+fS1/nGAlWoJWl14dTfHcxnT3TNpILiIAIiIAIiIAIiIAIiIAIiIAIiIAIiIAIHEaBORFgBZ4cTdapVqpfKaNmu2PvQu0a0m/JJNjgYcud+bgdA7sO6pMtZFwcj1HpZdv6Ulx9o/Uiv5tCsL2V3FfaDiOt3FoEREAEREAEREAEREAEREAEREAEREAERGAmBOZEgDXmgwSZWHJjMgafl8I782mxT3L7QbWRJbfFU/5YEW31kzxnJiTlGiIgAiIgAiIgAiIgAiIgAiIgAiIgAiIgArMiMGsB1urVq4mKisLr9bJx48YpN16daGX55fGo8FH3fD7l2yezErtC8IXJxHpa2PU3WftqyuhyggiIgAiIgAiIgAiIgAiIgAiIgAiIgAjMQYE5G2Ap4WYW/SQBg8ZD4b1FtHZPXE2lGPUsX5NC0cMFtDdMJvCagz0iTRIBERABERABERABERABERABERABERABERgmMGcDrIPpJ8vXEsmM7mLr71v6F4GXlwiIgAiIgAiIgAiIgAiIgAiIgAiIgAiIwJEvcNQEWEqQnmXXpVB8Tz7tXRJfHflDU55ABERABERABERABERABERABERABERABAYEjpoAy3pKDBkLPWx9qB7vwIaF8hIBERABERABERABERABERABERABERABETgKBI6OAMuiZ/5VSTT9oYCGOkmvjoJxKY8gAiIgAiIgAiIgAiIgAiIgAiIgAiIgAvsEjooAK+ikaJLnwbZHa6VrRUAEREAEREAEREAEREAEREAEREAEREAEjjKBWQuwwsPDMZlM/Vzl5eWzymbMtGHVdNGwxz2r95GLi4AIiIAIiIAIiIAIiIAIiIAIiIAIiIAIHHqBWQuwDv2jyB1FQAREQAREQAREQAREQAREQAREQAREQASORgEJsI7GXpVnEgEREAEREAEREAEREAEREAEREAEREIGjSEACrKOoM+VRREAEREAEREAEREAEREAEREAEREAEROBoFJAA62jsVXkmERABERABERABERABERABERABERABETiKBCTAOoo6Ux5FBERABERABERABERABERABERABERABI5GAQmwjsZelWcSAREQAREQAREQAREQAREQAREQAREQgaNIQAKso6gz5VFEQAREQAREQAREQAREQAREQAREQARE4GgUkADraOxVeSYREAEREAEREAEREAEREAEREAEREAEROIoEJMA6ijpTHkUEREAEREAEREAEREAEREAEREAEREAEjkYBCbCOxl6VZxIBERABERABERABERABERABERABERCBo0hAAqyjqDPlUURABERABERABERABERABERABERABETgaBSQAOto7FV5JhEQgaNeIGbByZyR2MmTr2896p9VHlAEREAEREAEREAEREAEREAEJMCSMSACIiACR5hA4sqv8rNvH8NrD63nw6ruI6z10lwREAEREAEREAEREAEREAERmLqABFhTN5MzREAEROCwCYQtPIUrLzmD7a88yssflx22dsiNRUAEREAEREAEREAEREAEROBQCkw/wFKb0JgCUFsSCEo7FoP9LSo2Fx7KZ5ixeykaK2qjAdChD0/FHJGAbf6pdL97MTWlvhm7z+fxQuYgKxaDmvDkGFZ98ThqP3yDNz6o/jxSzO1n1hqICNGjoCY6OZKEuChWnrICzb8e57pX2uZ22z8PrTPEc8sd19K5+SUeffEjPEfQMysaPSFBFhRVAFlLFnP6sXGsvf1hHEfQM0hT55CAysjC5dns+kym0M6hXtnbFAWVLRBFDSprMIb4SMxpGQRm6yi++vFZ/9wyxWYT462jqPZw/52lED9vJfMSQ1E8Lqrzt7C7vBX51+TcG7HSIhEQAREQgSNHYNoBljb2eFJP/SaGiFT0ejXN/76a4o/zjhyBIS3VZfyYlFVpA3+i0mOKSkGr9VD13NkSYE2zR792zfc5NcVGVmY0KgV+d+dDvPqfqn1X1RxzFm/cfRJanxd7dxcd3U7URgvhQQbweWhtasXhUTBaAggMMKDQxtpv3MUHs/jvU605mgef/BHZ4TreeeZv3LNh1zQV5v7pyuKTeOD7Waj73wMa4lPiCDQobH/0bq59efawT/76+fzo/DTCQwNR+pm8dLa00+PyYdSp6G5t5OW/fczmbcXUtjvnPuQstFClMfG9m+5ikbGce+9+mNpu7yzcZfYuGZi4gKu//21sMYlEWfXQtJ2Lf7qevtm7pVz5aBVQGfnCVy/hm8eF8+Qdd5AzOItWsRL7yG2EhmvxOXtxdHTj86rQhYagVoO3px1HtxM0OnSBVtQaFd0fPEnxI7tnUUrBet53iD93Jd66XIrXPI7TPou3mxOXthBxzcUEBPX/TYISGIo5Oghvcz65P3ls1gOsE79zFV9bYOSPv3uM3XUdh0dE0XHSNy/jjAUBfPTB/3AFZ3D6CQt599kH+cfm8llsk4qF3/w5Z2da8HlcdHV143R7MQUGY9IqeF122jrs+FRqzAEWjDoN3vrN3PeHf+GaxVaFpq3gu+d8CaO3jVf+8gwFdUf9m2AWNeXSIiACIvD5Fph2gDXIp1t6D0vOWkzLERxgjRwKIac+TNrqRAmwZuw9omXNn9byxXjdqADr7Fuu5KoTw9lw72P88d2agTtqTuaNt8/E0FHKhec+Rv3ediy+8Nvc+4MVbLj3Pp57u3HGWjfyQrYzL+LFaxehAnzdlVx+9u8omrW7zc0Lp591Cf93zfxZD7AGnl7Lr55bz8nRUPD8Y/zk8dJ9KCHHHc+DV59GTICT/7vrCV75qIEjK76Zbv8qxKy8iJu/t4o3H7qNNwqap3vBw3a+RruYPzxzM6Y2CbAOWyccyTdWtJzwjcv5xqoQ/vLgnWyqG1KHGJ1N5oM/Rin9hIJfPY/XM1DrEn3fvYQn6mh87BZq/9PT/2dKUBwJ916FxbGHPVf9Ed+sfaCEkPzkGqxBmv5gvuW5O6j6e+uR3AMH0XYraU+vxeAoOiQBlr+Bp1x0LWcvMPH7u+6noKP3INo8vVMiV5/HzRcs5s/r17CpdmBw/eyO+8nQVHHnLQ/ROFvjTWXlu9f8glhvNU8/8WcauwdiqZjTL+X7yyNp2vkSj7+eP/BwagOnXPATVse7eOK3j9A4a5mSilMuupLVCeb+27blvsmjr2ybHrCcLQIiIAIi8LkVmLkAa/F6lpy95KgKsGzH/pqML2VJgDWDb4/LHrqTCxYYhwdYiop7NtxO8OYX+PFDe/aX1w8GWE15fPG8p4a0QuGXj95M2Kf/5IYNs/ePII3ZynMvriHcoGb7357j2id2zKDEkXGplIXf5snfrjhEAZbC9X+8j9MT4D9XP8idO2uHIak0Wm59/CaOTzTzr6ce5dd/qZx1xAVnnMp34zq44fHNs36vA91ACUrkjjuuI8Sexw1rHqHrEM4dvOOeW3hqzToqZuieao2OJ/60AUvHDqnAOgSjSpu8hPTzgshZ/59DcLfZv8XJF/6SbywP5Jlf38nmuuHVmLovnEbmpSvI++FduIbmWv0Blpa6266hIXd/G3XzTiLzxhPYc+k6vI7ZShTAetHlJJ+djberjpxL1+OZvVvNfgcc5B1Sn3gAo6fkkAVYKCpWn3cN56+w8uANt1LuPsiGH+RpF91wN0u0xVy/7mkGb33h9es5LlHPhl/fyCfls1NJrLVFc/0VF/Paww+xu3N/cDcYYFV/+gf+9O7grwNBrbdy5VU/ZeOfHqasYfY2BAlLPoYffedUFDy8/PjD5DXN3r0OssvkNBEQAREQgSNEQAKsA3SUBFgzP4rHCrAUtZa//n0ND/7sLj4rH1LEPm6ABZFnnMGDp7r5zjVvz3wjh1xRpTMSblPT1NjN3l/mz+r95trF51KA5bcxhKTyh2d/TKS6g4e/t46/7/93+KzQnX7xxZweWMhVD386K9ef7EWzv3I5Pzsrm48evZm/5h7Kf/in89jvv8evf3Yz5RJgTba75tRxhkUXkHZOE7vXvjun2jXlxigaTrnwKs5ZauXZ397HlsquUZcIvOinhJh3Uvp//x32s4EKrNEBFjob8Y/cRPPVt2DvmZ1Aob8higq1zYqvp3NWg7Ipmx7CEw55gOVn1xhY9fUruHCVjcfWrSevbdZKjEZJXn/3bwlq+oibf/Pyvp8NBFgmXnz0Nv6T0z4r+iHxx/LDMyL4zeOv4hqy2NZ4ARaoOO68n2La/BLvlNbNSpsGL6o1BaD39tLdN0N/mcxqa+XiIiACIiACc1VAAiwJsA7p2BwrwFLrF/Ls/RH86OfvMDC5Y+/rAAEWipXb7/sKt//y+UPa/s/bzeZagOX3/9ovruDKc5JpL/2U83/0Es5ZrGa47Nc3Mq/q/cMbYOmjufr2m0jStnDz9Wvp9h66JYA1Sy/lmZ+nsObSmyTAOkLf/EG//BVx5k+O7ABLZeCEr1/Gt44L55nf+MOrzjF7I2LNlfT99f/oKB2+NcC4ARagP+1CzOUv01ooq7HN5hA/HAFWf3aoMbD6Wz/jW4sNPP3bR9hVNzvB0XC7UNbefxvmls/45foN+370/ZvvZUWMimfuuYlNVbNTEhZ/3DdY2P4u/8gZvvbX+AEWqEIWc1ZmG699XDGbQ0CuLQIiIAIiIAIzIiABlgRYMzKQJnuRMacQjnfygQKsyd5QjpuWwFwMsGKOX82GtV/H5+rlJ+eupdA+O18EApLm8dRj36PuzZcPa4AVsfg01vzoHLqL32fNg//P3llAR3W8ffi5a3F3SCAkWIJLsRaKW3F3DxDcHUKw4G7F3d0LpQa0uDskkBAjhAhx/75NAkR2wy6F9g+9e07PaZsrM8/InfnNK3v+sQxWgkSK+8xV1LR9zRhRwPpb4+jfulliU4wiCweieHzkyxWwJPpUb6YM2G7D1kWzuBqovaVUXgLWv9U2/7X3/lsCVjpnQaB2l+E0cdVh8/LV3Ar4fAlJ3rbrOK/F2CU9YfKUFWTIrTLGz5mPXbIPMzyWEvJ5Pltqu1VeAtZ/rS+K9RUJiAREAiKBL5uAKGD9jwlYErkCK2tjzIx18ff2R5kw6Wv6fX4BS8DQ1ABLCxMUSWE89vu44K2CRIKBvi5mlia4fluMZ8d/4/E/cHArketSyMEAb5/X/xPN/r8oYGFehL17+2EhpHJx5hQmnP20lhOCTI59ARvGePWjhJUetw/u+1cFrO/aDKdT7cLcPjqL1SczExx8zt4hSDA0s6JC88G4NyqKJMb7XxSwBKzzO2CokBDxKpiwaG3bWsDcNj+m+nKiw14SEvHPuRB9zib64LOlMuS2+bAd0Q+LAkak3P3nBSxB3xCZhTHStDji/T9SMJDoUL15b1pXtWLnwhlcCv4416OPErDkOsjMjZEbKkh4HkDqx70aQUeBxMgIhW0+dG2jCP/5c2age9szuuI8UAAAIABJREFUBKTWVkiiQkj6uE/gB7uYthf8qwJWZmHrdhvBD656rFuwlHuvcrugalunvK5395hHKfNYVkz0SM+SKbP6nrlT2vP45EpWn7j7KV+l0bM+RsASpDL0DQwxMtAhMuglH9uVJBIZCl09jIxNcClsxp/n77yLC6ZR4cWLRAIiAZGASEAkkIXAZxOwBJkR5nWmUKhiSWTSNOJCvPE9OofIQH/S8vSAkSAxKIl9i4FYF7BPT32dFB1K4C+LeXnvNmkpH1pFCkj0CpOv2UhsnZT3CyTHhxP060KCb94i9YP3v6fzT8XAKtmxBbM6lkW5WNDT1UEiCJD2hjFdp3E1UHl4KGBgU4QFCzrgbGtMSuxrti5az7Zf1GTgEySYFnDFw+MHXB0skJJKWIAPSydt4a/ABFLycEGSSKWYORZi/LgWuBS0REciITUlmdcBPmyetpMzvrGk5N2AKC037L/9Fq/hdbE11SMlOoJfDh1j8ba7dJs3NXcQd3VDUlMLLB09VmwZiYOecpGkj1wmQQBeXVhP+8kP0p8ulevyQ7929GtSEj0FBN46z6hxxwjOEbi35/hhdKxll36PkrtUKoG0KDx6enJOw5jhch0D6navT/fG5bA01E1/VmJsBNd/+Y25qy7xJiFnHxYYvsqDWvlJXywKIXep03ETyrYo1LghXn2qYmGoS3J8JOf2H2PulpskJuc1iARMCxVi0oS2lCxkgQyBhMiXHFqzj01n/dC1tGWKVw/KFzRh0fB5HLulPqPdxwpYSgGwYJlSjBrWhOL5TUBIIcTnCUvm7OGqT7SaIMZ5B3F/100EC1YcHI+LMYRf3UHrMTkC+UukmOZ3ZNjoH6hUxA6FXEpaWjIRwb5sWbCfk7dfk6xiDEjKleP0vI7ve6MgpI/FtLS09H+y/h7tOcjANX+p7LnKfqOja8qA8W2pXt4RI10ZyhRnMZEhnNqxh42HA4jXIqBap9FefOeo4OiMkZzUNESJsgxGdvQdMZJvlAykEpLj3nD/+hlWbjiGcZXm2Pnu49LT7GYAvWaupr6z6bt6SSTpOThJzcXrJR7dhvJIrcAuoDAwodvA8dQoWxAdSSovn99h88JF3A5PZfVGzYK4y51bMn9EPeQCJIQ+wMNjGW+08KDUNS7J7JnuKKQCafHBLPeYzoMo1Q+QmjfHdWVNpMqPTvovjbTkOPw6juOd/OJanjJTuiEo5wXlLzWV8K1b8D2mIpmEsv9Y5cfGvSuWLjZIhDQSQv0J3rSLyOuBpH2wDwhIjK0wd2+LTQlnZDoSUpPiiTj3EwEb/iA1a5TyzBJLzK0ouXKi0uAk4ycI6fOY8qObsw8nPfyF+x5H1C+IlHGbChUhX992mDpapI+FxLBAgjfvIOJKAGkqIpFbTp6EtZM+El19ZLIMRrG3TvN4xrGM9yg3xD80pUDL79A1kJLg/4AnE9eTHKfKHEVCzQ5DaV3JjK1zPbn8keKV8rWaClj6DVvj2L4CgkSOTE+RwS4hiEfuXsQp9Q7lN8GhFAVGtcPY1pjU6BBerFhJxLXsWQWljoUpOXugsgtl1lua3ibRv23n6YpL6pln/YtUhiy/C7YDmmLqYIlUJiEtJZG4AG8Cl+4k1j8qV5tSugHFh3+PTK6LTCeVgCmjePUABKP82I3tikURu/T1QJzfQ57P3UrCq7wFXUGhi0GHtjjULoNCT0ZacjxRty7xYtlRUpLAoHkrCrSqRsqj33g07VCe9fpYAUsphJr16oRt5WLIFVJSosN59dMxXh28qXIMfAhujc6jaFPOiCWTpuH9GWMxtRrsSV0Xc05vmcXhK1G4TZtDKZk3szwWEpSHDm/foBddK9ghlWQO4rQ0kmNCmb34x3dVcyxXl06NKiPJvCY1NYUjO9dy95n6b7mmApaFgytdW9dX+l6ir5+5Hk2NZP+sZWSspgTkRg40b92YovaWkBDNX0c28dvjiOxre6mcgUOGYaz8/qWHgZOkzyGpr2+wYNVxsjv5fqjVxL+LBEQCIgGRgEjgPYHPImD5h32Da6NGhFxYxatHj5Shl7Fp4km+Qla8ubeX+wc2qWkDAbu2K3Ao5kjEtc34/vlL+sZJYlCCIp1GoicJw2f3SF6/UGedosCq5XwcXYvw5vYWnv/xc8b9uvko3HUG+tJInu2fTKiPZieg/5SAJdfXw9RAns5EYW7BxpUDkBGVKWDp0durH62c4xk3bj9Rpavx45DqyJKjWNXJk3051yu6RkxbPpSqBaSsnL6RC48iSEOCQ9WazBlcjQifW4wcsR0/FXGgdZ2KsHhGFxyNY1kybgPXQxJJVW7cBQm2JcqxeHJjQh9fZOCA/YSqiTskNbVj/vJ+lLbT4/Sq9Wy5EAoyXdoObE0jF0MuvzKmupM8exZCdSNSUwFLEDAzNyJjvyRQpX1nhrdyeidgWZWvyMLJTXh26iirjvozcuFQylsrCL56gk5jfsn2dn1DPeTSjIWjoGfAyg2jsNWJ1VjAauHejT7NXfH78zTT19wgOVMwlcgM6DauG/WK6HBg+ixW/5V9w2ZkboyuVI+1W0djFH6XxmN/Y8nsXtil+uE55TCBsSmUrl+bkT0qE/38Ju36bFebyarlwN70b1GYKwcOsGz/Y5Tag803VZg5tA5CfCzxkcE8SbSiqpMJL37dQPfpWdJy5WiLjxOw5ExdPYrKdsmsnbWV8z6xpAkSyjZvzMh2ZQi5e5E+ww+SW/vQUMD6/zxGkzd7UctBRtqrq7Rov4u3Z+m65tYsXjGQwqbxrPTayYVH4ZniiwTDfMVZOLslSX43ce+3k1yziFyOlaneOwKSevXZ2acKD04dY+rG7AJFUmw8EaqCPitMmbDAjVquVpz8cT07fn9JSqpysAjoGFritdwN87hgPIYv5eoLTYJ3mTNy1lScdSOZM2oyvprcgi4tR0yjXUULdi+Zw3nv1+kMZLqmtB08nhpOxukb8W2LRnD0L/9sLW5gbIpOpvCATMHUuQuwJYAZo2fjn013TeVNWITaU/Ri3/dhQt+6SCIe4jV/DaExyVg6V6Bvr07w/DRmLk3Q0yALYfEOkxlcwy5dkCbpNWunTOZG9tAueX7Pjcp2xatvVTKklEQOrpjMmXtqLC8kciSGupj17o9DNQcSnl3i8fSDpEbFvnfblMqQGlqRf9F4zBUBPB67mvhXMaQm5hRgBCwGDSFfFTtebvmR8GthpCk3fi4VcHRviiTCj8eDFpGk9jBAwHLwEOyqORJ/6yy+68+TmpKGoGdJvnFumBjG8mz8NKJyJjGQSJCZGr1jIitVnuKDWpLy8CceLMoe2JzkBJLfqNtJC+TzGIeliyXhx/YSfOoBaakCMudyFBzUFHlcIM8mzScmx/dHYmyMRJYxfyoatqFoyzLvBSy5HUWWDiHxzs8E77uJYde+OFSxIy32Mff6LCc5S/4OZWDpOl1H0rycEVsWzuaq/9+znNNUwBJ09ZDqKzLmf5k5RRcORc7LDAEr3hDLsYOxsQnn+aIDULwqhXvWgcQonvSZSGxW8xSpFKl+xuGF8mfYpCOFWpXWWMCSOhSm0MQ+GBhE8cxrE3EhMaQpJ3JBgrxYFYoMaUDC/d94Mv1Q+vz+7qcUrox0MHMbRP6KZgR4jCHx234UqGHPq4MHCDv/DEHfnHwTB2BsmMwLrwWE3X6pcgxJ7J0pOt0dRbI/T2duJ/FNIhI9MyyH9MaqgPJAJZ7I+34Yly+FPCmUB92mqZjT3z/6YwQsvTqtce5ZjejLxwnadZ2U5DQk5vnIP6YXRroJ+M2YS8Rj1fHQ1E0MglRB5daD6FTJjKVTpvE0NlvHy3M+0eaPZZu707dBKV4+uUGwTiFcjYLx8lpJcHTevoMSuQ46CgXNevSliJkezy6eZP/5u8THv5d8lBl59S0L4danHRK/i6zff4GouPg8Dyc1FbAkUjn6ejoZY0CiT7uevbAziMkUsCRUbNSJ6oWknDx2nHBFftw6NFUq+Zxas4KrIVknZwE9Pd1MkVXAzKE4vdv/IApY2nQi8VqRgEhAJCASUEngkwtYYTfOoGtrhc/eOcREZHEbEEzI32YRDsWsCD4+iuc3lMJWlp+gh2Xz5TiXzof/kYkE3Mxxoq1vj1OHeVhaxPBwpRtvYnKeoutgXn8uRSoXI/DoVPxvXsweK0Zuh2OnuVjbwpNNvQh/+eFFyz8lYGXjYGDM7kOTsZIoBayZlOk3kHLJNxk/6w+iUkAoVYNjS5qhRxInpo5n/h9Z7pYaM3z+IH5wgTG95nM9W6wQAftS37F6QXPiHlyg99CDmXEZMu8XbFm4YxBlTOIY3G0W90Nz8pVQasxQFjfMz95Ji1j9pwpXJpkFHssHUqOQjEXDF3D8fmSWNhBwqFCOlbM7YiAVPq2AlaNrV6jdgnmTvksXsLru1GejZw22Td7MyYfKU3IZE9ZPpW4hXeJfXKVx9115TA0KFuyfSjnTBI0ErHKdujC7V1leHD9M30XnyKk1yM2c2LJnAObRfrTpsJSoXEeQUvafnINpQghPkxQ82bGTRQe9ea8bCDTs3Z8xnQpydOJEFl3MbY1oXqsBWyfU5Y/tW5iz6U62uuWvUY91UxsQ/NdJentep2nrMvidu8IN/2yh87Pdo62ApbQi9Fw7gSomrxnmvp77Idk3yM7Nm7J6aA1e3v6DLsOO5mCvqYAF/Vd50q6YAWkRt2jbaivp9g+6lszaNJQqVjpMcpvKnz65N71VB/RgZpsS/LJhHTO25ZiDcpRG2rwZZ4bW0MKFUKCn5wi6Vrfit1FeTL+etf9nPNzAuR571jTA/8x++s1WbcGVvRhOTFowEpuUIKaOmZFbdFPRe52rdWXGgJrMGj2AO0E5OpkgoVTLkYxr/w0n1sxk+9lb6vu/TIdFazaQX/DTyoWwSJWOTBrakoRnfzBs8gpis1gaKVO2Nx48jS6V8iG8ukG3gV7k5RQoGORn6KihFLFScP30XjYfuaCV64lUbkb34SOpUNCUZ5eO8eOOU0R9KPaMZVVcV3RECLzBveEbc/ORGGG/dhqJi6YRcle1a5z5wME4VLPC12MxEU9zWOc4l6eYVw9kMQHcHzyf5Ojc49hq1EjyVXbg9f41+O/KLjBLilTAdVZ3JOE+3B20mNQ83Mzl5atQYnwn7VwIJTLspk3ApqgBLxYu4PXF7Ja+SquyglOHYSh7yf1+87PMTzlQlWpEqSmNSLh1mqcrr1F4/ghCVy8j/IpfuqWGYZchFG5eON3C9b7bRBLf7n0FHWp2GEirb0zZvGQ+13y1EyhUdWhNBazsaxKBouvno68I5dHApRj2HYhh9B/4rr1EanIa0orf4zq2NdLUBHxHjSb8hfqhpKjVENcBjTUTsEwL4DRnMEb6cTxw9yAxOue3WMB42BicvrUjcMlCQs7nNg02HzyGAjVseXPLDx3jUHxm7yMhLMtIM8qP68rREHSJh2N25vpWIbcg/+xRmBu/4sGgRSQnvC+DoGNM/kVTsTSL58momaTaFkfPKI7w3+7nGZ9PWwFLr2ZzCvevQfjuVfgfevremk0prBhYU2DJBMwM4vCZNIc33tr59wtyPSq3cqdjRWPWzlvI3ZC/38dytr7csQ5eo1qjlxrNqQ1rOX3rCUqMLlUaU720fbbLI7zPsedshn3T2595pZa41y+B/9WTbD51LVfnkpo4MLhfa7YvWcKrLO2jrhdqKmDlvL9Z7+GUtklm/6xVyOt3prLhY3Ycv0JMQjISy4KM7981/YDh6o7VnPJRbwEmtSzA+P7dRAErjxWn+CeRgEhAJCAS0IzAJxewlIEifHe7E/wk96JK5tScCl3cSY16xLUlQ5XeF+9+Csf2lO/Wk5iby7l75JjKhZDMuiGl+g6DwHPc2DAzWw0V9s0p28udRO/N3N6xM/upZOaVEovvKeU2HmnoX1xf5/lBQv+2gHXk9FOK6L9miMdPWTYJurTqWQ8H+Rs2rfmdrOddFdq2Yl7/b/ht1gKmnVW9kBi3fBL1XY3YPW8hP558f/IqlKrOsSXN0Y0LpfcPs1Flo6YwbczRA7UJ/mUj3Wfcy8Wvdu/OTOpcDp8LR+kz+XcVfCUMWjmNVsV1/xEBK/SvHYQXacCxKas4+vD9Ate8XDm613Hi6W8XOHo1pwlD1mJrI2BJGb/Wg3rO+jw+sJv+y6+orP/07XP51jqRtm2m8joy584zQ8AyUyRyfPkaFhzM3QqO5cuyYX4XYm/tpcnwHK4oEhkzN3pQ1SGBKe1mcD5XF9Bn7q4plNMPo1GzuRoJAdoJWALf9OyHV9fCbJkyjy3nVZ3sKxi+ZgJNC8nYMGAS255kxaS9gEXaM7rUWUEgIHFx4ecVvdPd9Xp09sAvOHfEDuGbOpyY04iwy2fpPO5knnOA1gKWYMOaw6MpbJjEafcJzH6kylVNzs5jXlhG3aNeRxXiSK4SFcNj8VAs4l8weZxXtvGurvCNxq2gc+FYevQdTbIaiy03j+VY39vDzH1ZFfAcT/wYAUvHAc/FXhQzjGLu0IFcD8tdAOn/b47XblqJYcTNDwpYH5ykP9MFDgtnY2GbxNMBk4nOsTeWFiyC64xO3HebTkq8ivqVbYDLuB+IOrkN382XVZbQqPdonBs68HrTAl4cz575S/ZNM1xG1SX5we88mro/txBesRolxnZA6cN1r99EkiLVS4AfI2ApanXCxb0K4XvW4rcvuwj+tjLycrVxndCChAfHeDT1tHLI5f69FbDuXSZKpxDJh9bw6tL7OUFqXRCbllVJ9r7Bq58fZX7zZVT8oQ89Gjqzed5UrvipF9e1afq/K2AFnPXH2CIY7/ln3r9Wbop569roSsIJ2vFrnuKNNgKWtEJ1XMe1RRIXzt3uU1W77FfrQOnh1Yg+tQOf9RdzocgQsOxJCrjNo3EbSVbhKldg0SzMbRN4MsiTmBzmqIpqSlfEH4j5ZT3eq3KL3LK6PSjRrzyvNy7F/8RTjZpCKwHLwpnC8wYiD77OwwnbVLKVlGhCySn1Sbx/mkeeqteMeRVMkMqp3XMszYqksmLBEh6HfJq+pnynYOhI/8E9cLYwRV9fwqVds9n8h/IrBSbWDhTI70TLLm2xUSRwZPcOnng/xScoh2mpxA73kb0wivFm6cpduYT+/C61aVNVj6UbjmuU2OPvCli/H7xF+SqGrNpyksS3hxKCDiWrVKeAcTLnfj9PVLz60wFRwNJomIgXiQREAiIBkYAGBD65gJUaeo4bK2eq3hxLXHEZuxATIY4b8zuQkJhpHSAxxbH/dmwtBO4s6UDMG/WnYfm77MbBUYcny1rw+t333gD7Xluwzyfj/oKOvIlT725g12YTBV3M8N3UnqAXeQcE/lcFLGkSsSHPGdt3Dfc0ORwUjJi3ewJldcL5oflctab8Lr27sqJzGfx+PUmP6WezdBFTBk9pjYPkNROnHkKVfZrCoBFHj9Yh9M/NdJ6Uc2Ojy4LdkylnkcKmwVPYkv0w8d17Pn8Qd3hrgRUfHcOVvZvw2PpMg6Gg6hJtBCxwaliPAQ2cubX/OFvPqzqOF/DcNo/qNkm0azuV0IicJliZFliR96jfYaNKywab0iXYubgnaYEX+KHLwWyLWomODrsOTMMi+Rm9m69WKUK2XTwBd1cFnvWnokpizElBGwFLamzJzoPjsEwJol+rBTxR4aaqfP63zbsxfWhpwq7tpt3oK1k26B8hYMU+oH2T9bxSPlhqjPvEthQ3TsbTcxthSpPFHD+hQm2Oz2tM1K3faD88My6Pmt6htYAF1HdrR+PiBuyesJG/VAb5kLLz2BysYx9Rp91aDfql9hZYbTx+pLUzjOrjTkCiagXLonxd6huHsPO32+rL8BECVtGm/ZnetTZhj3/BfdJqlc+WyhSs2aRZDCwNAH2WS4zb9sGpXWkiT6zk2caH2d5h0KgfBSo85sGMX1W+O/+cGVg5yXk2bjyR3qr5y/JVouSSLqSFXOPOwM3vx4BEQcFVMzEzVxCwaA6v/szY9Gb9yYqUocjkrkhiX/Jw+EJS4tTHhdRawNKzpPCGKRjK4ng0aCJxL9VtSE1w+HEqFqapPOo/kbhwFd/STAFLSEok7voJnszP7q6truGMbMszZkxPQv7YzLpjV1EZHkvLVv9bApZ+KgnBPjwds4qkj0yqoo2AhYEttv1bopcWwvNF+1XHDK3cntKjviXm7G68V1/IRSNDwLIhcNooQu6ojvmWb850rJX9dJIHkY+yT1bG7fvh1KYYIeumE/hTbitDwbAqJdd3JO7PHTxdkltAU9U82ghYRt3ccG5aktDtS/A/5KO6taU6uGycjY4snMdDZxD7SiP/6nfP0rUuypixg4i9fYKVW04Rq0Vsvby6n0Smj9v4aZg8OcAf8WXpVr8kMUE3GT19TZbb9OkyYSZl0i4zYfZOktS8u36XgVQqqMfZTUv4KyDrqkxC9U4DMLm7lWO3NfOp/lsClq2C6IgIdq7+kZcfCkOr7nsqWmBpOWuJl4sERAIiAZGAOgKfXMB6fXY4Ty+oUS+Agm4nsLNLxXdxO4LeZAhN0nzfUbHPJEgN4frcbnkuEo1Ke1CiRVUSH67n+p69GfWy/p6K/ccjSQjl2sKupKhbDQBGZYdSolkjkp4d4frWlXmeXP27Ahbs81zGyt81ixwuK1eVIwtak+R3m+Y9tqjt8ZJqDTg+ox4pgXdo0mVzniNDIpNhbKyHjkKOgbk55WvWpl+booSoErD0K3HoWDuMIl/QqOUStQLaPylgpcb706HNYkI/OnyKdgJWbpgCeoa6GOjpIJcpcCzlRJ8BbShk8AEBKyIjiLuq3zsB6/U1Wrbdmc0NVKqry64DnpgnP8et2SpULfvbLZ5Afxc5kxp48qcG86I2Ala+wq5sW9OLVN/zNOh5SK1rUcka37F0agtSou/RuvnGLEG5tRew0l5fp1XbHWotk5SB8I2M9dHVkSMzMadaw+9wa16S8M8kYOVCqszoZ6yHvq4ChUKPouWLM3RAYwwjNRWwtI+B5VJrMJ7u1UkMvorH7E0Evw5Ld/fQ+vcRAlaH4QtpVdWeG8dX4bVZtcDzJQhYFKtCqemdSAu5y91BWTaegg72y6YRt2gsr71VEZXhumU+ilQ/7vdYqHYelFjaUHrlRCCMh32nEp9p5SXom1Fy/VSkkhAe9ZhJ3Mem/cosmrYClty5MiVmd4bwW9zpu169e6DSHdZ9NEVq2xO+fwa+u9Il5Oy/TAFLEhPAwx5ztAraLDUshaenGyHntrL6yBXU6LAad+m/JWAZSQlesYjg37Jbymn8cmU8MG1cCFV2KzlSAz0kOnKk5jbo1qlHwZrOROcpYFm/C+Ku6pEZApYuvjOnEn4zu/WRSRd3CjUvSsjG6QSeyO4Cq3yWYFSVkus6Ent+G97LVFsZ5nynNgKWw9zpWBSS83zMeCKeqVF3JFKcf5yNkakcv3mehF3WPNOlnk1Rxk8YQsr948xeczLdte/T/AQcavVnbJviLJ4+gecUZdpEN0yJY/P40VyKfiuyKQWsGeR7soa5e7ML5FnLUeCbxnRrUJ7Amz+x4dh7q25B3xn3/nXYvXCNRm7lymf+LQHLTp/Hv+9mzznNrO1UsRQtsD5NDxOfIhIQCYgERALwjwtY+brspYCTAcH72/FcmVtYuRB2cadU2+akhf/JlWXTcsdjyNJSus4NKNt5OCQ/4Mqs4ekLbD3XNpRp04eUqBtcWzQ+z/sVhZtQvtMgUuK8ub5wIHklJfxXBaz0GFgZWQg1+RVv+QMrB9ci9PZ52g1Tnw1IUqk+x2fXRxHhR51WS1U+WmZgzthpnalS3A4dhYy0pBh8nnjz4EYqTbqV55UKAUvasiVnBn9LtN8NmvXYrrbI/6SAFfrnBtpNUh+g/MNcP17AKl2nFqP61cTaRBeZFCJDgrh3+x6mZRtQ0uLzCFgIUqasm0LNQhJm9Z/Mz49z1lDOgt0zcZUF0Lj1Eo3cDrQRsJxKtWXdkspE3NxPqxHq4zuVqF6VZZ6tSU0KoUPLuVkERk0FLIF0V0w7gTSfs9Tpo8IVUNeIAeM70LCCE7o6UiQp8TzzfsKNp2k0bVqWN/+AgNV2SEfa1ymBkZ4cCSm89H3O7TsPqdygGaYxmgpY0GXMbKoVkHFw+ijOqI63nK2hBYkBHSbNo2VJy/Tsc8nJCfjev8T21Wu5+1oLE5KPELCGLljPtw5GnNk4lLVqUiZ+EQIWEuyXzsfSMp4HnSa8E18kJb7BZXA17vVfonr6EEpRcqcbste3uTlwndop5p2AJaTxdOxQojPVZolJE0quq4/k1W1uD1iX57fsw/MXaCtg6bVwp1hnF+Jv7ubhzNyWPVnfqVOyMy4eldPH4K2xh3MXJ0sMrHdZCDUpdOY1MqNSeEztS9ilXSzak3dZPvTYvyVgKV7zaMAs4jSxhFZTkI8WsHTNsBnZE6vi+ZDKZaQmRvPm6WPeBOrj0MD1AxZYHy9gyb6pgeuYNiRc3M+jBbltdaV1e1OyXxmCFyzg5UXNhD1tBCzltYaGUTwZNJWY3PpZBmWlgLV6NkZmOgSvXkzwWTWWWjnaRG7tysTx7vD4JDNWnyDPhL4f6lg5/i7o2zLJawp28fcYP24FkWkCdfpOoXVZG+J9zzBuztvkJWYMmjmFgI0jOPg0D/VMXhj3UR0wjHrBvOXvDxydKjamrmM0a/JyAc9Rtr8lYNkkc8BrGff/htAnClhadibxcpGASEAkIBJQS+BfE7BeHmnHs5sZApZhyZGUbFWPtLALXFk+/QMCVj3Kdh6JMvbN1Znu6TFeDEp1o1TLTiRHXef6ogkaCVip8X5cW9iXlDwME74kAatW17ZM7lmZpIQ3BL3UYKUdFUyPwdkDmMtsCjDDsyPli1gSF/SQuQtP4+P7iuDX8eliR14uhNJWrTgzqBqRPhdp2Wff/4SApQzi3n6yemvAD88L2gtYtTq1wr2Z8n00AAAgAElEQVRdBSz0Uvn94GF2/fSMF/7hxCVlZKLTyIXwIy2wlPVRWDuxdWN/Ym6dod+EM9lcQcs3bc7s4dX4a9NKPLZotunQRsAq3sONld2KkRQVSpAql6IcwFOTIxg5aBPvL9VQwBLMWH5gIq4m4HvCi57z3wdwURibMMWrHxWLWpEY6s3y+Se46xdKYGa6+M/tQojUgH4e3WlWpRCKhFDWLT3ExftBBAS9yYxHpa0LIVRvO4KOtZy4cWAaa3/OHlBbvUIixb5gIRq3d6Nm2ULpGTrTUlMIC37OpV8OsO3IlQ/HQPsYAWvher61N+LEjz3YdFa16eOXIWCBYWM3CvcsSeQhL55tz4iVZ9y2H9bWD3m6Qo0DrqQxpXY3RJoYTdRLzSxCAhfMIy4zJ4bEpAUl19VGEniVm0PVW9J+eO7KuEJbAUu/8xCKtihM/I2dPJyVd5IBHdfOuHhWBv8L3Bq+O7cg/jcFrHTeduUZNrwrb24cZvHO3zStdq7r/p6AFZqRhVBN8kpNCqWtgCWxKUCBUd0xKWhFgt8dAjaeIi4glOSITJM8jVwIP17AQqLAYuhw7CsY8WToVGJfv18oCUbmFFo6GaOkp9wftoqkWM1c9zQXsOwoumks+nopxAQGq4xnmpN5+J4dhF1UkVgmx4UKuzKMGNKdlIenWbrl1Ce0vMp4kXmBCkwf15uYB/sZv+xs+gGriVNFpo3qhZwUNnlO5LJyfWZSDM/JXVk/ehJ+eYpCAt93Gkh1R11OrZzP1XRLTYH6XQaQdHM7v97VPHj93xWw9s9axt9ZTYkCliYzhXiNSEAkIBIQCWhC4F8TsLJZYLkOoVSbxloKWE+4On1w+iZMv0RbSrfuraWA9YxrC9y/Ggusb9q3YE6/7wh/fIXW/Xdr0vbZrzG1Z97yvlSwlXJ+w06m7ryba+EoClh5YRWo2q4DHn0rkPjyIR6Td3PDJ+eO5/MLWMoSNhvcmyEtihL48CHnrvgQnSBgVcCRerWKcefUESYv/itP16CstdRGwCpSvys/jitD/MNTNB7ws/Z9EM0ELMG6OPt29cEsLZkD/TxY/jQjfovEzBLPpYP5Nr8Bf23dxdzt14hMzL47+LwCli5uHu50/D4fIbfOMHDiL7yOzamQay9g2Vf4gXG9fyD84WmmLD2kkeVcVvgGFvaULVeRBk0aUTyfWfqfAu+dZf78Nfjnyuaa5c7/uIAlKVqKUjPdEGIecafPClKSdXBYPIGYxTMIe64mi63wHSV3tUMW+Yg7fVdoPM7eUv/XBay2Aynarph2Apbv79wctT/3eP8EAla6KOBQkYGDOhN14yDLdv9BlqSWGs8xX5KAJVg74jjVHRNzKSFbNxF06i5pOeMOfW4BSzmf5nOmyLwh6KZGEvb7VWJfvUFqaIZRpQro64fjPWk5sS9VBvpT2S6aC1iGFFk/DQODWLyHTyIqSONmzvNCuW1phg/uTuL9M6zZ8eliXmV9qUOZ1ozvV4fIW9sZ/2Om1aCgQ+3e42hT3oaYF+eZMX8HiqLfM6JVccZP//GDlStYui5dm1Uh9M5hfjx8hzQ9J9x7VWfXj5sJ18IzXBSwPohavEAkIBIQCYgEvhAC/7iAZd/zMPYOUnyXtSMoPOOEXuFYh/LdRpOW9JCrs4fluUA1cBlAqbbNSA08yZV1GW5Q0oINqdh9GKlxT7m2cJAyEaLan55rB8q06UFy6AWur8zb2utLssAyr1eHveMbERN4n2ZdNmjd/TpPGETvuo4E3vidLiOPqrw/LwFLKFGbY8sak+p/k6bdtql9/z/pQvhPWmApDKzZvX8UJopkFo6ay7Hrqk5GP7eAJVCiWRvmuRXCc/gapMVKUcHZGqkEkmIjuf77Vf56pPmJrbIRtRGwCrrWY+PyBqQFXaJJ571oH75HMwGrYK3v2Ti5KakJb2jRaibRmUGsv+vWnWk9SpH06iZtumwjSoXG8DkFrKING7ByTD2SIwNp1mohObSzzDGhvYCFfkHGTB1NfoIZO24m8akf68chIX/J7+jSvTPlC5rx9JctTFqdR/aujxCwek5ZQaOSVvy8aThrTqi2iPhSLLDAGIc107AwE3g8cBxxxhUpOrAwj4bnkT1SsKDEtinI0/x50GWeVnGf0kVYQ1dKrO+PNN6be92XqEymoc3krq0Flk6xprjMqEfqs1+4PUa9K7qyDHotB1CsU3Fizq3myVIVrtqfSMBSvss0fwWGDe9G+J87+PHIJfJIdqYSz5ckYFkMGI5DrULE3/uZh1OPqG7uzyxgCab5KDh9EMLNA/ieisCyZikU+nLSUhKJ9/Mh7JfbqjNP5tE5NRewoNDyOZjYCPh5TCLsvhZuz2rer7AuzqiR/Yi7c4oft//0yQK253xdwUpdGNujGjGPjzB+8al3Vq56ZkXwnD4cQ0kaFw+sISBfI0ol/M7i3XlbOabPCSaFGDywM3qJwSxevB6rSi2obfKczSdvaDMV/L0YWDbJiBZYWuEWLxYJiAREAiKBz0jgnxWwJM4UG7kCM3lsZhbCzIWJngslhi/CSBrP9QWtSYxVr0CZ11tB0aqFCDnSCp+bmZmPJE4UVT5XFs31BZ1ISlRzOg6YVZ9LsVqlCP91LI/O5ZGBS3lt1bkUq+fCi23NCPD52E2jlq1nYMzuQ5Ox0jIGltIkfddeNywSXtGi6RzyTAhtYIidbgpBr99KDAKLdk+njJUOR1fNYdHeUK0FLAQHth0bQr7kIFo2X6gmqLaEIaum0aKYLkunL+HQr6oy9WV5tawWx0//gO6rB9Rpv15jkG+zEP6TApbJN+3YP6cSQvgDOrZej2pHr88sYEnlLN8zFeeYO7Tvu4c38Zq5duQFVhsBy8TBnn2bhyFNe4l7k3k8ykPBkuvoYW2QREBY1iNkzQSsdmOG0b+hPaG3f6LTsDOZmwQJ07bO5Lv8Mu5sGM1QNRrqJxOwpDo42Cp4EfDeyq7j+OG41ctP4JVTdBmrzgLtIwQsoHyrYfSpU4jflo5nzyP1WQlMyzfAo1F+hs/MS8SWM33FeorpBDKw7zjUJu/6gIBlamlDYsRLshqZ1e85hT6NSnL3p/VMW/+Tyq4llVuzdtMyDCNu0m2gV6708BoP9H/gQt02Ayjevjhh2+cRad4U09gr+O56H0xZVRGKrJ2HgWkazyZPIPJh3iYSCisDEl+9n60FXX1c1s1EoZOA9+hJRD3P436JHNsJnXm9aBNJaib8PAUsiRSdfMYk+L93dRRs7Cm1fAySJD/udZ9PktpPqQQLz2k4uBjyYthkXgeq8K/7hAKWkrOuRRkmTejDy3NbWHv0CvFaZEP7cgQsAwqtnoaJBQQt9uDlBTWpXD+zgKVXtwXF3KriP2M6oXfUlEHL8aeNgGU9bjz5KtgRumsx/vvzjm0ltzUj+WW46myNSgt9m6KMmzCE2FvHWKJ0xfyMSzlbp5pMGdWOtDd3mTBhJZHvPsECzg0HMKxpCaRpySQlRLDZawrXVS+1cpCVUKvLcL4tIOfwysU4tnIj6I/tXH2qLjiY6ob50iywpLqmONiZQ0o8QQFBJHyM6aWWfVS8XCQgEhAJiAS+DAKfXMB6c3ksD07dUll7oUBDKvUYRkrEda4vm5DNRc2w1hJKVi/Ki/W9CAhQYzMuFKDYsDWYSAO5PL9XtncYVp5JyQblCNrTBd+Haj7sgh5FBuzDXC+Ea/N7fjAGzBclYAFtvEYzoLIlfy2cwMRj6lf3jfp0o1LSTTw3vxXwJGw9Opf8BmnsXzCBFcdV71pyWmAZmltgHP+awMz9dL+F42hf1oRDnhNZ+ntu8URiaMy+/ZMwlUu+OgHLYvhg9jYtSFrwDRp12q4m+1huAcvZ2RJv77erWCn7T87B9GNjYAkyJq2bRO1ChuljIzE6Am9fXx5evMW+E08Jj0smLTWVpKRkjeKKKJ+hjYAFukzdMY0athJWjF/A/kvqfD8EKg51p23gSsZmJhLNGMwfFrBktmXZtbULZknhTGw8k3cJ3AVb1h4ZhbNBChfnjmPCKdW7lFwClpEFdimRBOVy9QNJ9fqc9KyPz7HDuC88l22+kZUqw/rO9nQfd/zd/++/ahLtipny/NxBenmoCzqdXcCS6SgoYSNwyy9vVxyFdWFmTBmBQcQNxkxZS4w6bdKlNttGN2OY2zBC89jgdxq5iBYuCQzuO46X6p4lVTBz9XqK6IYwuddIHuWYFnp4Tuf+rMlczlr0Yj+waVp3Uvwv0mfkQpXujmatp7KqvSuSVzc0ErBkcgVSiUBKUhLJqdqLsm/vT01OIilFu/ultvkptWwshN8hKsGeV0s9ePMk74+7Yf8RFK7jSMSBHTzf+a6H5rpJKNwG5+Y+PF1wPcvfpFhOn4Z9cSNeb1nPi6Oqv6XKGyS23+E6woZ7Y/ardSuVlKhA6andSXl8mrsTs1vbCWZWlJpen7uDtmeJGynBzGMWBUvq88xjOpH3VWQXVL7cqiguKwchjwvgntscUlR1308sYKVD0ivBjBn9Cf1zG0sPXNJ4HvtyBCxnim4bir5OAv5TxxF6T80gziFgCWbWSKJDSMkco+aDx1CgxsfHwJJX+h6XUa2QCAKkJhIbGMSbxw9588s14n3DUIJPS0khTYvxpI2AJa3aENfhjUl+dpkHY9VbdKNbmCKzauIzYp1Kd10d62JMnDgYyePjeK48SR4Jqj/Jil1hUYCZ08ZhIMQzd8p4nodmHxhdx3pRtaAJyZG+zPWYh3+W9JouZcvgffOWyrWDjXMD3Dp+Q+jt08jsC7Nj5Q60k6/+ZhbCf9oCSzCij6cX5S0l6e1ya+8afvz15idpI/EhIgGRgEhAJPDlE/jkApaQFMTtpT2JVXEibNN8FYVK2eCztishL7NfICjyUXz4Box4wZ0V/YmLzr1wM687l6JVi/NiX28CHmRfWAsyW5wGbcBSL5zbK3oT9ybTOitLG5nWnEGxGmUJOj4cv2sf2IV8aRZYymD4RUqyfXUP9BMi6d5xNoGRuYUonfLV2TqqOKN6rcUvC6Ip6z2oWciIRz8dxn1O9s16BkIJNQa7M6VlIV5mZiGs0Kwz3wdtZ2GmQYJJhW/ZMa8l8T7XaN1nZ67RUWHYAGY0cEJHh69OwDK0q8mBbU2QEcXUPtP541nujbKOXUHWrhuMvSIzC2GkgiWLGzF06J5MVn9TwFJKQHr69Bzdhy41C+TirwzinZSYSEToa47MX86O2x8OoKGdgAV6VsXYu70P8phnjO6xktuRuSfJIpW+Y86Q4nTssi6Hi9UHBCzBjBU7RuBiI+fkqqXM25s1RadAr2UT6VLClLhHJ2nhflal+9V3fbri2akMoZlZCGVtejD02hEWPFOxHVAUZufh/sienqft4OzuVPXdelEiaDeLjr2fx5q59WVYx6LEhjyiace1Ki0CTCp8z7bZTdEPz8hCaGlflBX9JLSfrD6V+tvxV6hef0a1LMGhBVM44/0+cH02wvmqsnbRMOJuHmSY1y61CS2GzFlDseizDJquIvj2uwdK6T19FQ2K6bBsfG/OeWfpL+Y18XK3YtLMvTk2jjLajplP2/LmHJnvzrar2ed5uVl+Vq2YjZFUByH0wwKW1L4uXqNaYKgQiPC9xsw5G/K2Ls3R3XQMCuMxbQimejISwp6ybNZCfNQbsOXurBIjHLfNxFQOyS8ucm/Ejg/HINMxofCyyRgYxuE71ZOIx7nHmcTMDpcVw/AeMoX4HJtcDBwpvmoYOmkveTLMi1gVseAFSzuKLRiO71gP4oLzMHXUdaLIlmHoxTzibu8VZNX/dJr1wiJ0N4F/5vgW65tTbPUk5JH3eThsHUm5PsUCliNHYV/RAp+hHrwJUSO+fg4BS6lhWZRl7LieRFw7wOJdaoLp52jJL0fAkuKwcAYWDgZE/7GTp8tUuJgJEozch+FUy5Hos7vxXn0BvQ790PljLRGBGd+dvytgKb/3ipLlKTy5G4oMDeH9L00pXiWTEhtL9M3f8Vv+s0ZCojYCFoIcm4ljsSttTuieFfjv81YxNqUUWOBJ7M5VhF7O7a4sty3FmBG9SX10inkbTn3SbINql/6ClApdJ9Crih3Pz21lwc6/ss3BdrV6MKFtJaTAm8C7zJixEqV9m8SsDOP6VWHJ7B9Vzm9SUztGD+qNDPD9aydbz6rg8YH9yBdlgaWTH49FE7HJrFNalA/Tx84nI5WG+BMJiAREAiKB/zqBTy5ghfoFYCgJwPvQIqLD3q689bCqPxnHSiUIOTML30uXVHIXjEvg0msWuklPeX5sOWG+zzKv08e6/gQKVCzJyzOzeHHlsur79V0o2ncOhql+PD+6mNfPnmZep8Cq7hgKflOZV7/Pw/fPPzRqd4v6yylSxYmQE13wuarteZdGr8h9kZEJ+w9MwkyawIQ+k7mopetigcoVWTajAzoxwRzb8RMbD94hJgkkCj2adWtMl6bOrB+7mpMPs2cqtCn2DcuXtMOMGLYvXMXG0y8zyibT4ftmNWjdtCKmoc+wKVeRmPsnaDXkT4Yt68fPg5dw910tBL5t1wTPftUJvHaZufMOc/dVElI9E7oMakGjIgn8mVSKFi46vPb25oZPIGe8DqPOIUco8gMnfqyFTrQvvZot47mGSL+p25Y5EyoTdXMvLUZc+vCGU91zZbqs3u9BUaM0vIZ6cOaOetdUQSql99xRdCpnRfDty4wZuwf/zH2dccGCdO9SlxplzfCLNaRcfl0823lyt2g1pn4bw+AFmVYagjEHT07BOOYx7VuvQZV3QcHyZdk4vwu8uUPrlpsJz2JoJJHJGeDZj5q2b5g95wTBSXIsTPXQ19VBZmhC5WrFqVDKEWtzQ0hNYHX/mex9mvduvliLHqwaUhLvQ4txW+qvQQsIFP6mOnOmNUEeEcihvafYeuBhupgk6BnQtlsTWte0xWvCOm4+y6lyy5i0dTa188Od9csZuj2zxSVy6nZuSI9WVbHViWXz/A1s/SWreJVRLNOCJVm7tgcWsmQOLVnJ8sN+GZsHqYyqjavTrkVVTMNCsShXlGSfS7Tqd5jB6ydzbtJsbgaq9sHqPmEo3WpacmL9Thbszojz83375nQqm8qY8UezucrKza2YuXwoFW3k3D2ynzHLLpPhxSnBuXIZurX7njI2USSZFMY8NZBezZdh2aMXP9zbxLQrH7YMksiNGOQ5E6fUx8z2WkmwSjOsEiza6UF+SSr+986zc/MOrigtJjJ/EqkRbfoMo9m3+VjjOYE/vPPOlGdQqBnLZ3Yh8uHvLFz4I37Ryejmq8D4EZ34ZfUMfn+a+3498/y4T5zON1ZJnNyzgd0nL5GQAvauNejVqy1P9y6m7uBZGMriuXPlGr5PbrDliCrRHIp3mMzgGnYIyvInvWbtlMncUCGKquuYRmW74tW3Khl78EQOrpjMmXvapZOT9xpNiUYOvFq3nICfHmswBkBm70KByT0x1Ivn9U8/E7T7HKnJaSDVwaBObfK3+pbQ5csJu6t6S6YoXgOniS2RxQTz6vgZQo5dzxRE5Rg2rEe+ltV4s3M1wb99aEwKGHUainOLgrzav4OgfVdITZGgV7MhDj/k4+nY9aSqiKkmLVQc58luSF894cX6XUQ/zoydp2uOtXtXbCtYEbhiFaF/5ZH57ZumlB5Tj8RHv/Fw0gGNuGl6kZl9RQYN7kzUTU2yE+phv2QalvnkvN7owYsTGnYgQaDYhvno6b7h8eBpxIZ+vO+ZXsPWFOv9PXHXjvFo9uk8qykvWZ3CE9ugSI3mxeIFhF3JHL9yPQzr18K2XhVSggIxLO9KwvVjPF5wEbtZQwgdN5OkzLa0GDkehypWvFw6kaBzqgVOh0WzsLDX4cW86by+nD02om6VOhTsUZ3IQ7t5dTkEmaURMn09pHIFcidHDCu6YGRvi0wmIebaGZ7OPvqB76wZRTdMQY8AHvSbTx5RHt6vJkwssB0+ABsXEyL/vEDgjlMkvFLWRYK8TAXsuzYl+fIBAvbfzBX3VJltcPigbiQ9PMOqbZ/XbTBnY0rkJriNm0wZWwWPb5zjxPHTPAlJoFzNxrT83pn9W49RvXNvXKz1iQv35+7jAOwKlyTo/DY2/qTO4lJBA7eRfGMjYd+6pTwM1m4OU1o3u7Rwp3VJc8LuHWHlwbzDZ7yvk0Art+G4WqdxfOkibmj72ixw9G2dGdGnI2lxT1myaBfReX7yJBQq34hBPRujJxUg7RWrBnpwR9MJQrxOJCASEAmIBL5qAp9QwJpFEYfzPDj2EwauLbCp0AADU33S0gTk+rrE+V8l+MJewp6/FZXUcJXZYV21HVZlqqKQpZGSkopcV0H0s/O8vHSIiBe+eTeIxAKrqu2xKlsdXYVAcnIqMj0FMc/PE3LpIOG+6u83rjUTuwIZ7ldIdDC0K4hcJpCWEkdkwAvS0jIWsG9ubCLotnYBNPMqdKOebWlWySr9ErmhGU75MzKFxYSF4P8qI/5EalIC48eu540GkbFl1gXp1LoaDesVx9JQh9TUVFJTE/G5dp2t63/m0nPVooV98eJ06lab6mUdEBKiiU1KQy4X8L55j1MnL/Lz1RB6efSn/beOpCXEcG73PmZuuZejagLOVSvSt/v3lHG2RkhNJiE6kr/OnGfl6gu0WzKNyikP+OOSH6+jY7h7/CY5W8S1eXMGN7TH0qEAFvrKs0qIDAkkODSCVYM2kHPpJTcwYO7s7ugqjyeRYeeYH2Md5X2p+Hn7EZecsVK69+tplu/Ju/817dmexpUsMruAAc4FbZAIEBcRip8y/bXylxbFpJFbeRdC7B0BKQ06NqZNkzIUMNclMioWQSonLe41v5y4zNFj10iwLM3iRW2x05cQ4f+EKVN3cs9PYOjcHlQoZIe9ua7yBUQEB3H9t9+Yseate5HA6DkDqFA0H9YmOulvfPnCj3NrDrPygpKgQDW3gUzrmI9xfaZz1Ud9RynduCGLR9XlzfU9tBiVXQwu07sz/SuaZI4BGfkdHTCUKxeQiTz3DngXh+LVrd+Zsjpn27/vCpZFnWjVpCq1qxfDwkiHlOQUUpPiuXfpBtt2/MItn+yCUeOR3WhRwgYnR5sMsSE1kRe+QSQiw8zchPgwf3799QGnT1zlRZh6dzvjgkXo3rsmdSsUQpocT2xCCnIdCUF373PyxJ+c+DOIFsN64PaDK0JCLLdOHMNj1VXi1CympaZW9HRrQvPaxdCVpJKQmMDt3y+ybuNpfF7n3tAaWFrRrnMDGtUujoksmciYRORyGWH+vpw6dZlDJx9SoWVzxvWpioEkCd8bF3Ebf0xt/Jac84bE3IVJ4/sTfnEPK/dfUOE2Y8+E+SMIuHKeiEQB1wrfUtjOiMSEJASJDF15Gg8un+fEsaPcCdAsoH+Z79vQqW1DClgYkpKcQGTwYw5sWcvZO6ojvWXMY5Y0aNKOxvWqYKYnIzk5iVe+9zlyYDfn7gSyYvkibl88h0/gKyJfvuCvW6qFIYmZC2NHuWFvKuPxXyfSN6PahHSW6dgwYOwIitkYEHz/D1at3UOoNg9I/xY4UXJ7X56NnkKMv+Y3C2aWmDf4HrPvyqNvZQDJyaSlJBH79CGhR04TeTPv9GrSfI5YNqqOadUS6BjrQpLSBTiZWO+HvD56lohrH4ghmNl5BD1DLNq1xbpuSWQygdSEWKJvXSVo3SES8tiQChb5sWxWC7MqLkgliaSmSJHppBF97SahJ38nxjvnoY4pNpO7Y6CX8WJFPgd0DRQoU+jFvXhBklLFBOLvHCdw5wfWAXl9MDP/psxO2K93fXbOmcVzldOdBfYendExNcHQ3ipDBE2JJ+p5IHHXfyZwz/ujl7evM2rTHqvytun/KRhaYmhnkn5fUvhL4kLfxoKKxG/aJpJzG3m/K7XEzh7Hwa0z/1uCTn57dPTlkJpMtI8fqZlriYjD+wi7pMJ6qEhpbNrWxsTVAeKjlV0HiQzi7tzk9S8XiLoTivWIwdhWLkRafBSvD+wh8PAdZFXr49CyPIYF7JBKBdKSYony9cV/3loSM+MNyr5tjkPzEhg72qL0EEyJjSTq0UOez9qeUV7LIhSZN4DUq4fxXvGb+pbQtaLQ/JGYmMfzZNBUYrJ2BxMn7Ec1RZH++RYQjC0xsjFOf1ZiaCDx4W8bLJoAr/Xq+6FcH6O632JRqxKG9pZISCEtLZXEl/6EnfyF0LN3VQaTr9RmEJV1nrB+x+cL2J5nF5Vb0KhNG2pWKoGRjpSEmAjuXb3A8eM/ExSdiJ65A83adeS7Uo4IyXHcOv8T+46eITxevUhqULQJQ34wYsWynbz5sPH0u773fdN2FLQwwDa/HYr0QZDMy4Ag3rx6xu5juQ9zbZ1rUK9awfT7pQoj7GzNUWpISbERBL7KFH/TYvnl4H4C8gq2KpHRsm07DDM6AfomVliZ6qf/++vgAKITMioR/vwax86pSAKhfL+FCzMmDcQo9jETJi4l+7GrBpOEeIlIQCQgEhAJfJUEPpmA9VXSESslEvhSCAhmrPt5Ik740qtO3tZqknx2/LxtJCk+v1Kvz/sYTl9KVf/r5bQqXY+RPRtxed8yDlx4a6X6X6ci1l8kIBL4FAR0W3WieMcqvNwwk6CTmZbYah5sPngUBaqb82zEBCI/ZAz4KQonPuM/RsCQafNnE3V1O/N2fThj438MjlhdkYBIQCTwnyUgClj/2aYXK/5VERCMWHx0CqX1IhjSfjZ384jgbezoxKENA3i0Zw7uq9UEaf6q4Hx9lXGq2oKBbb7h0OJZnHuRZ87Rr6/yYo1EAiKBz0ZA0bANLr1rEH5wHX478nY1s544CbtCMdzvu4ikD3tBf7Yyiw/+CgkIEoq2HM7gmlasmuPB/YC8E518hQTEKokERAIiAZGAGgKigCV2DZHAV0LAKH9V9m5uTZzPRdwG7CNUlZuBzIRp60dRzS6JLm1mEay5L8JXQulrqYaAfamaNEACgZEAACAASURBVHKMZO3RrFnsvpb6ifUQCYgE/hUCEjn5Z03BsoCUF/O8CFMT+Ehety3F3b4jYvd6XhzQNKbSv1Ij8aVfIAG773syoZ3ykMaTs0/ytgT8AqsnFlkkIBIQCYgE/gYBUcD6G/DEW0UC/1sEBPI5OTNxZlecDJLxefaSl0EhxKWAwsAUa0tTHBytiPW+wcSZR/AN0Tyez/9WPcXSiAREAiIBkcDnIiAYGGHapgMOjVxIDAwkITiEuMhYlNkBda0t0LG2RsdUIGDlRsIu+qiMQ/W5yiY+9+snYFawDCO7VGf9hq08D4r8+EQ8Xz8qsYYiAZGASOA/SUAUsP6TzS5W+usmIMWppCOFHSzQlWcEUE1LSSE+LoYXT17w8IUYCvXrbn+xdiIBkYBI4O8TkBhbol/SEYWBDhJlxHfSSElMJDEshLj7fhmZNcWfSEAkIBIQCYgERAIigX+QgChg/YOwxVeJBEQCIgGRgEhAJCASEAmIBEQCIgGRgEhAJCASEAloT0AUsLRnJt4hEhAJiAREAiIBkYBIQCQgEhAJiAREAiIBkYBIQCTwDxIQBax/ELb4KpGASEAkIBIQCYgERAIiAZGASEAkIBIQCYgERAIiAe0JiAKW9szEO0QCIgGRgEjgKyIgl8sxNjb+imokVkUkIBIQCYgERAIiAW0IJCcnExkZqc0t4rUiAZHAv0BAFLD+BejiK0UCIgGRgEjgf4OArp4+47xWEezv879RoI8shc/Du9y8fO4j7xZvEwmIBEQCIgGRwH+bQFJSEuHh4f9tCGLtRQJfAAFRwPoCGkksokhAJCASEAl8HgJKAWvygvVs232YuPjEz/OSz/zUSqWdiAzx5cZfv3/mN4mPFwmIBEQCIgGRwNdJQBSwvs52FWv19REQBayvr03FGokERAIiAZGAhgTeClgr1u0gJu7LFLBqVXYlLtxfFLA0bHPxMpGASEAkIBIQCeQkIApYYp8QCXwZBEQB68toJ7GUIgGRgEhAJPAZCIgC1meAKj5SJCASEAmIBEQCXxgBUcD6whpMLO5/loAoYP1nm16suEhAJCASEAmIApbYB0QCIgGRgEhAJCASEAUssQ+IBL4MAqKA9WW0k1hKkYBIQCQgEvgMBEQB6zNAFR8pEhAJiAREAiKBL4yAKGB9YQ0mFlctgQY9x1BO8Yh5Px4m5SvkJApYX2GjilUSCYgERAIiAc0IiAKWZpzEq/6PvbOOb+pq4/j3RpvUUktLadECw4rLkOG6Mdwp7m4bMGywDQYMKe4+3N3dfbh7oe7eNH0/aZFK0jasY2Vv8h/l3CO/I/ec733O85gUMClgUsCkgEmB/7ICJoD1X+7d/6+2CeaOdB4wEHu/M/yxbD8J/7HmmwDWf6xDTc0xKWBSwKRA9ldATJFibty9/eBfr6oJYP3rXWCqgEmBT1JAJLMlr008T3xCPul500MmBUwKmBRIroAJYJnGw39JAXPHAgwZ2peA40tZfPAO8f8himUCWP+lkWpqi0kBkwImBbKpAnKbHFQrVxxBZEfN7+uRR3OHNgOn/etfhf4/AZaAQ+6StKwoY8nmi8Rp/8lBIyByVCMxlxLv5018mOafLMyU939cAbvcxSiSywaLHIWoXrE4r/ctYs6Ru//xVpua988oIJCj6NfUL5jAiu3nE4sQ2TkgsZanLE4bR9wrHxKS38Mxs0bqbInwIWUC8W/fEh/1jy6m/4wM2TFXMxvatqjNsR278AmP+YQamtHEoyUP9m/jnn9Epp/PfgBLwMGtPB3bN8bBTEAi1rJz9VIu3HlGXDaFERKFBU52qjSaB/u/Jjw6+Z+lODo7IhV9/FtchB8+QZ/S35nu4v+7hI5FGzKmT312ev7C0Ud+//qeO6s6wASwskpJUz4mBUwKmBQwKWBQAbGZJW65c1OqRS+alnBE8L5MaxPAypIRU6NCEaKCXnP9/MlM5eeQtwy9PBry6NACNl7wz9Qzn5pIVKAIjoObJR30tP74jliIJvJTczM99/+ugFKlxjlHDlp164azmYgHO+abANb/+6D4xPari1WjR7Mq3D60kp0XvBJzkbi7Y1axOFbueUlctGICCTl9mag9l9HGJSvIOg/KJuWxKlsQUUIskdevEL7jFJogE6D/xO5I81j9TgMoZRPOvLmrCNUYDwYrNe5OrcIKNs2bz4OwzHkBym4Ay7ZcU8Z2rMSuuRM5/iAMaYVuzOhYhg1zJnD2vk9WSZ2l+chtnalQ0p2yFcugFAmQoOHm5fNcvXQKr+Dk1E1BiSpVqVyhLLYKgYBnN7h44TTXnoRmaX1MmUn5bsgkGrrFMWX0OF4E/zfWKBPAMo1skwImBUwKmBT4bAqIpZYsXbkM8wATwMoq0Y0BWE6FKtGpRQ0eH1vJtvNe//jXOHFRdxz7fv+uqWH4jp6NJsUmNqtUMOXz/6SAos5ApjYuyEMTwPp/6vYsa6u6RG26NKrAzUNrOXDpRcp1UBBjPqg/1gUsib24Ef/VjwyUK2A9eiiiO7sJ2vEwy+pmyihJAUEqp0arHpR3iGKu5zLCjbU4EkkpV689dYtZsGX+PB5EZJxBdgNYw36ZgezBbn5fe/zdGDXn95lTiXmwlfELj2XroWJfrBm9mhRBCLjNHwt2kML4KlnN89foQON8Qcxavhdtxl2UrducXSsntXRm8m+jCb6xhUnLj2M8Ds5+LTMBrOzXJ6YamRQwKWBSIJsoIGXW7HH8MXAsr7OoRmKpjCUr12JhAlhZpChkFmA5F6lCm8ZVeXxyE7vPPfnH4dW7UwiyMiVRlM1J9NHTxDwKyLJ2fykZWQ7tgWbnMqKe/Be2jcarLi7XnmEFHzH1z0vGP2zgCUnN/sxs9pUJYGWZoulnpOzbE1YvJjL8MxX4Dxbj4F6Lzo0qcP3QBo5efqp3HZTVbI5988Ik+N3Ae8IeEvQdrOXO2E1oQfj0OcT4ZfeTtyV245oQPHHNFxWRTGRmQbVmnanoGMXihasJiEpuBpeJQSJWUKZWS+qXtGLLwoU8CE3f+iRbASxlJaZO6cDdbQtZefzmh8ZOmjEPq/Db/DBuAVGZkODfSqK0ysvgAe0REcjKWQt4bQAgVu8wGJv7S9l+JfsvLpVbd0VzZgUXvbL7fE/V64KIOr3G0bS4Fatn/MKFJ0H/1rDIsnJNACvLpDRlZFLApIBJgf+YAso6LPOszvgeo00AKxt3bWYAllOhr2nfrDoPTm1h79lHnwdeZWPNPl/VpNj+2o+oFbP/bwFWqbbDqS8+xeS1JoD1+cZdVpakxPqXvsRN+eMLB1gCTsWq0KVpNa4c+JMjl58ZXAfFeYvhOLwJaEPxHTMPTUjaK2hCsco4tHDB7+eN2X89tSqC+qcKBIxc8UUBLN0oFsmU1GrdnTI2waxauYm3oYZseQyMebGCcnVbU7+EJVuWLeeen2GfWNkKYJVsz+welTmzbg6bzt5LBbDu8MO4+dkaYInMLBk4ZCAWYoGda+dw67meYBsyZ7r3a86x2XN4mrlbnlm5sBmZl5SWvfvxcrfnlwewdC21r8TUce0JvLyVKWuOZf81K4PeMQEsI4evKblJAZMCJgX+XxTI02E8U2vKGNrVBLCyc5+nD7AEHPKUpmv7+tw7vp7d5/RbHGTn9n3JdRMcy6IeW53QmTP+PwGWIKHXmEnYPttiAlhf6EAWnAug/qkpYSOnfsEAS8C56Nd0aVadGwfXsO/Sq/QPcCon1L92RyJA4JTZRL9M65fHrFkbzBWPCfjzSrbvWUmDZjjUssZ3+JcHsBLFFYlo6NGX4lZBrF611XiIJUip1LgTNQrJ2bZiFfd89Vv7ZCuAVa4jc7pU5Nb2JSw+fP3dGCvAVM/BaJ4eYIzn7mx+FUzGt32HUcpWzN2DG9h2+XGaeaLMV4bedd2YuTD7Q2CJyp1+/epyYeX0LxNgAf3GT6OoVSgzxv7K48gvzIos1egxAaxs/9oxVdCkgEkBkwKfXwGZtSPTZ8/EMf6ZCWB9fvmNKtEwwNLBq1L06vgt9w4vY+v5N0blm6WJxVLQatB/FydLS8o+mYllWA3shYWbnKAZ/4cASxBhW7AxY/vVwvfSahPAyj4jM/M1EUsx79gJ67K2BI/4cgGWU7GqdGtalTuHV7HjncP29EUww2rCUCzsRURsXk7IibRrp/WPA4k/tYnwC96Z1/PfSKmwxH58H2QSP3y+VID1TreGnfrjbh3KkiXrjb9OCFRu2p0aBeVsXbyMe0FpLbmyFcDK3ZiZP9bD++x6pqw7naiA7OseTPcoxYXVM/nzgiHfbP/GINNfZs6aXelcyZmQJ0eZuz4p0mfyX9EqrSives6KPVlnnfuPtF4kpWbLblQqYMHhFV8uwKrebjitquTj1KbJbDjx6h+R6nNlagJYn0tpUzkmBUwKmBT4EhQQm1GmQXsGtKuDUiKC8Ef/HsASRHQYNJbSLmYc27CUPVeeGKegSErDLkOoVVTNzX0rWXXkdprnzRRKxk5fxryl64m2s8S6QVGiDpwk6gt6txsCWGq3CnRvW4fHhxex+cK/ET5ZirhwHswqlsKyeB78J85BE5ydvXYYN7wMpxYQ5S+GTfcGyK1kQPT/HcCSmav5rl1HqrvnQReIyuvCvwewROZu9O7dHGWMD1vWruF5sHF3VcRyWzr16o5aGsHODWu45/X/ESVLlLcg1h0bolBbALH/AsAyQ1atDOZVSqI5uZ2wM58G4HU+r3o0+ZqbB1ey52LmvTlKW3XBoVpONA+P4et5LtV0t8fh9zaETJ9LrF9WrRup8hHEiPPlRVHnaxTip/jNO2tcQSIp0ipVsG32NWKpCKK8vniAJYjE1Grfl3L2kcyZ9QmO3QURFb7tTN2i5myaOzeNY/dsBbAozKRZ/ZF6n2fU72vRCEp6TJpKKeVbJo+cxKsowxY0YokFX1WoQnH5X2w49ta4cZOVqeUV+WF4beSRL1kwazUBqapcx2MgCX+t4MjNsKwsNUVeZio1JUuXo7SbNVuWrMPXKMMjAUt1AZq1aoSLSoFA9BcNsOy+bsnPHjV4c2kXk1ce+Mc0/xwZmwDW51DZVIZJAZMCJgU+owIycwf6Dx9CkXw5iQ8NJixGi8rBHlFsKK9evkVm58yBxX05eTdlpZoP+Zmvc+oOK7qfgHNOFyRE4eXln8pvhh+zh0/hpaE2iS1p1msA9csWxtJMIDYuAZEQx5uH1/GcsohfM+nEPfe3Q/jh2wKIAG2UN3PHTeS+YfcVaWpjUbgpk/vXQawLh66NZMPMcZx6Eplyc5MIsJazPPAW5gXUupsK+Oy8iOXXJZBbSxDJpSREReG/9gIapzw41HRBJBUSDwRxr17zdvkt4lP55hblcsKuTgHM1AqIiyEuOh7EUmQWUuKDwgjad5nI5ymdyYodc2JXzxlEYqS2FkSfuUngwyjsmpdEmdMS4jUIYjEJsbFEP3qF39aHH67A6ANYOoft7ZpU5fHxdew4/8L40eeQD5VHTeTONmjDgxJDyEvs7CAyFI1vCIJSQcDvy/Rew5F81wilo67XAIUV5oVzIyRo8R07E01Q+gBLUDuRY3z3xEcTYiOJ9U8NCwSkjo6IRHGErp5H+CXDjl/FJcuj+r4CEksJmuAwROYqxFINsQ9uEbz6KNpY42XJ6AlZxXpY1nL9kExsa4/ETEScjy/aVNwkfNNyYh5lX8fu1gWq071VDXLYKAkLCSZekGKjsiQy2A+fgHAcLKKYNmUZKXugEANGNMdS/H4ZMcMphy1xYYEEhKW0eAh9uJO5W+4YlFRhmwuPzh4UdFUjTtCgRSA+OpwH106wKrBI5py4SyzoMHgobhZJ4zHw8Vlmrz2cUTcm+38p1TsNpnpe88S/xfjdZfa8TRhahmS6se+eB2VO68T08SG+RN5+RNi64x/ylBQrj2WzSigcdWutluj7DwnbvI0477RjQexWDFXrakjtFMQFBiMoLJHIIe7xfYJX7Cc+Jv2miPIWQtWqBlJHS+IDg0iQmCFVKdH6exO6cTPRj9LOR1GJWth8l/dDxiJLFVJLGXFvfVNFCYsncvNqoh4aBoKScpVQNSiDxMYMjX8QKK2QmIHm+WOC1+5DE5TKqbYqF6retROhpyCSIcthjyBA+KYVhJ70QvcPRfOmWJbPiyCRIJZJ0Ib6Ezh1GbF6wsOrS9am87fluXFoPYfT8XmlT0WRYxkcxzZAiHqFz+hVxCdbL4QStXFoKMdv8t4MfcnIGzbEqlIhRBINmvAYxNYqhLhwoi+eIXTXzTRGqcq2LTHLY4kO1ojt1UhkAvFPTuEz41RiNUVupbD1qIbEXIpgphsMUUQdP0TwrlsfmqHs2BaFa9KY1f2kat27LZYY7+CUTdUEEzJnC5qUr8UUaURFy2PbvAJiKzHxweGgG4OyBOIe3SNozRG0UWn7X1a7BsqSBVDkVaN7/RIfRcSVc4SuPg/Orlg2LIesUCFkSjGxL54Q8/gBYduuZWpeiuRKvmnelYrqaBbMXU6Ixsg1VGRGmdqtqF/CKk10wuwFsARGTJpJbotwlowfD1W60b1BUVZMG8+VZ6n6MZly9s6lqNWwGgWcLHh7ZQXX4r6mesm8SMRipOIEvG8fY81Rb5q2+Z7ctgrEMjkJMeHsX72Mm35Jq3mxqt9R/Cs38ieuURDm94p7929z6OTVDyXlK16Z6lUr4GyrJCFBw+M7dzl8eBeBKRZHMX2G/oidMp49y6dx401yepSTnoO+4+D8RbzIwDe/Td5SfF+nMg6WEgIDQ5Ca22Api8f7+R327j5CUKrnXQtXpka5/AiCCDMrNQ7WskSAu2TGCnwSdBEu7Wjaphl51FZIpXIkQjx+L2+xfP0+3g8nlwI1qFMlz4f2mts6oFJICPJ5S2SqZeva0ZX89TIdMiZzolnr78ijtiYyNJC4BAV2tgqCfF9zcNduXgamnYC2uQtTtaw7hb4qgCxxEiXw4sF1ju7bx5tYC2rVq46dOh8Fna2IDHzDo2fPObP/GOm6Z3epxtSRrcH7Oj/+uiRT8y15ohqte1LG1SrxT7ePLeLAtX8OPGZUORPAykgh0/+bFDApYFLgC1LAXJ2Pn3+bADfWMmPNcd6GJu26dYeBwhWq0qdXNxyVEtbOHsWuM+lYNEnlzF68HKeE58ZZYCly0mfEKKoXtGTdIk8Onr1OtCYBpY0TFarWoVPj0sjMcyLxvUzrgdPS3fzblu/Cz53KJfoh0YQ8Z8r4qXgZAR2UOasxeVRrdB+fiQti2eSfueqdcqfz0QJrE8pB32ChFBPnH0DQ7jtEPAtDlLsIrl3zEu8dijYhAr9NN4kL0mLRsRoO+ZUEbDxF6J2PL3FZ2cI4NchL7N3H+B96gibs4+ZeUCpRta6AdU4Rb2cdJSbZyV9QmiceWsxru2NpLyXs0lMkBXIQd/0hwZfeEh+ZBMHMSubB4buCEOTLm4VXiY/VpolCmKNwFdo2rsKjU1vYc+5xhgesNMPbqRAOQ5sQd+kYofuvoY141waRBFmZiqjaVkMijSFg6B/EZBgUSoT5D0Oxzi3LFMAS5SyC009NiT51gOAd19HGpDycyJu0xrZOAeJuncd/4VEDM1OMvGETbOvlI3znDsJPPSLh3YZT/FURbDp/hzjSi6DFG4j1Ns4ax9ilwKJfX6yKKL84C6ycZRoxpEM1Dq1bxsnrD4h5t6uXKKwpW+k7WjeuiDTeF8+ffkEPA/kgk1RWiynTm+J30TgLLLs8penb2wMbzRtWrVjFrSe+iQDLzrUAlWp+R5k89tg5WGUchVBkxve9h1JarbOEg7c3j7Bo2xkjulFMiWZ9aOJun3gQD391hdnL9pDRMmQ1dAAW+a2J2LWOkINP05QnODrjNLYToUuXEHHDX299ZNXqY9O0GFH79xF25C4J74aqOM9XWHdrhEwcRNCs5cT46j/Ay2t/i6pRSbQPrxG0/giawKTJKqgcsO7bHoVdHIGTFxDjnz4AMGvdGdtv1MZZYOkOjk1aYFMzP9GnjxOy9xLaiKRyRHnyYd22EXJVNMHL/yT6gWEIbd63D9ZF7ZIA1uVgrHt1Quz3FyG7rxAfaoHN771RWAjEPziIz+zLyXQUUBevRpfGlbl6YD1Hrxjv+09QqlBP7otYEk/g9NlEP/0I+8w6dUMReJqg3Q8NjyWZAovuHbHMC8GrdhB1x0d3Bk38SCGrWA3bVhXRPLpG0JIDKeBY8gyFHOVxGl0X7VMdwDqNrG59VJUcCFm/n5iHfihadMCmeh4Swn3xGbHYoE8ku8k/Ipcae4VQjPzbb7GtX4SwzduJOP+QhLjEBiAuWhTbro0Qhb8iaME2Yr31IF1Bgtn3LbCt60ZCwE28f95FwoehJkHRtw8Wspv4zz35YX3O7MQUyc2p3qILFRwiWL5sHT5hGZDc1BnrohPWbsm3pVRsXryEe4FJfZu9ABa0HvIL1QrYEez/Fk2EL5vWref2q4wtQFWOdejfowIRAb48uX+dY2evEIk1nQb1J6c8lsCQcO6c2MnpW17IHQoypGcrYl6ewnPNKT6wGZGUtv2GkN9axpEtS7hw3ydN98hdijC8QwP2rlrAjbf6KWiTnoMpprbgxuF17Ln4cS1UFPyGbpUUzFt5MJ09ikDBCo1oXKMgN47t4vTVh+i+B+p+9q6FaNTke2zivdm5cR1PAgy9y+X0GToUO8E7EWCFO7rTsV0tbhzeydW7z7DMX44+repCQhy7Z8zgLwORLis37UGNotZGW2ApXErTo119/G4c48CZqwRFJq3DEitnvm3WnKL2cHzHZs4/1n8V2S5fGfq0awAEs2LmXLySTTWlWwP6fatm9dK1+Lzfp6U7iQoyfuYgbCKfM2r0NKODALQY/Cs1C9omlnB+82jWHP/3ohmaAFZmV0tTOpMCJgVMCnwBCpRuM4Hh9Wzo1H0QcfFpvwhJcldm1sR+XPtzOssPffyalqZpnwiwGvf5jfY18nJ9/RR+3/5Xqo2JgHNlD6YN+A5pJgCW7mv717UbkdtWyr2Lp/nrua9xPSCIca9Sl8I5rXh98wxn73qleT45wFIM/AZLczGhBy8TcPZdWYIY1zH1kUhi8Vl0nMg377Z31cuRt6aasH1X8U/mA8XlpwZI5Rq8FxwmSs9+RFIgD64eRdE8/otXq9NeZ5E1qUzO0ioS4mIJ2X+NoCsBaeosq+ROzvquxNy9ztsNb6heoQhRQa+5fv4U6vzl6NS6NvdPbPo0eIUI5eB+WNv74DN2UyqLi6SqiAuWx35gDSKmTCX8Vcb2+MoBg1AVMs8UwBLnqoXj0K/wHrUAbVSqg7WzG44/tEak8cV/6nLi/PRvWMXFKqHuXZPIPesJOZAW0opLVsOhe1W0T67jO3OvcWPKyNRfJsCypfeEseT0P8W4Odv1HC4E3Ov1pMt3eVn9yxiu+xoOTf9JAMvcmQE/DqWARSQrpkxMk78gVtCg/1gaFrDiwY75zDmSypQ0VR8JcjU1qpdFpgnlyvlz+EcaZ7EhkphTufo3WIpjuH7pPG8zsCJMnCM1v0XdvBSxl44SsCqt7xdx/tKoexTHe8wqvYd3Uf7yOAyoQ+yFfQRteO/A+WPDRHlLoB7WCCH0KT4T1qONSTkPRYUqo+5bHe2rv/CfsQdtqibLqjXBvlUxtK8u4TPlULqu6T4FYIlL1UHdtQIxZ/cTtOFq2jFk44zdDx5ItW/xHbc6Tf3et1TRvSc2pdSEb9uIJldVzEKuEbT9xrv6KrAc0QfLXAqiD60lcOd7S1MB52KV6dqsOpf3r+HQ5RfGQ/zETpSjmjgYpUpK2J9rCTv3/F21BFTjhxK7YSWRD9Kuz0mJJOhgu12dXATNmkvUo7SWCvJW7bCrlpeoY7sI2vrReir58BXMi+D0ezO0z04RcEZAVUNN0KzNHyzvZLW/w65pSRJ8HuM9cYPB1elTAJakTBUculQl+uAmgnanXUeFQpVx7Fed+KcX8fc8oncMCdYO2I7pgVyZQOCMeUQ/SYIvorzFUQ+qScC4+cSFZvgVRG+7BImceu16UtI6iNWrt/ImxMjr6SI5FRq2p05RBdtWrOaub1g2A1hmNO87nFrFnAn3us6o35Z8sIRv1Wso7vlcsLU0Q0cF/d6+ZfOKhdz2ShqP1g61GdCrItrwJ8yft57gRIkFqnX8iaq5BF6c28qaY+8iGyqsGTm0PxLNaxZOXYV/sqXEuVoHulTNw/0TW9l65mMkxPcd4lK0Bs3KmzN7xR6DY8+9fme+L+uCz93jLNn28RpsybodKBR9nY2nDFvhmruUpZ9HPR6d3sz2M2lhsU3einRvV5tYr5t4rtxlsA49B49ELfZh7fLj1GjXgMtblnDbJ+m9pXAqTJ8uzTHTRrBq1my8YvTvKz4FYMmtXOnWpxMyn/MsWnOUNMaKIie6DeqMQ4IPKxetwFvfEBbJqOLRj+qu5tw8uold55N0EEms6DSgLw93L+bs48BM7kxyMmrqKFwEX8b8MDF9ay09OZoAViZlNiUzKWBSwKSASQHjFOj423LqOPrTpeePH0yhU+dQv+dEKgYe5+ctH6+1pCnlEwCWzKUu86d1Rx78gI59xuo9NIilMpZk8gqhcS3/tNRpAZYIn6X7iHx/P1IQ4TqmAZIwb57NSgb83gGs8APX8Tv33jeLQCLAMkvAd/l+It6fd5JVTZTHkdxdy0KoF8//uJFGo/cAK+rmHby36MkgcXdqRa5hVRETh9esI1Qu8FUiwLp14xrd+g/E3PccC9adJCrOuIN6YjXFEmx/HYos4h4+v+42ePBT9OyH3Hspwbsy/vJtDMCS1m+Lyvk6fsvvp+xQiQLVL4NQWokIW72aMEO+bOS22P7eFzORLz4jF+turuj5iVCNHY5SHU/g6BlEh2YM4T5tdMEXCbDsivPruF5E397Bb0uOGBwD/cZO4eb23zh927BFwKcArLKNe9K5jjuvr+zhdwN+hC0uzAAAIABJREFUOiQ1+2fuCuGndtzffs4F+xmdkEa9xmfMqjQgWNG9F4rgQwRueaa3JJufh6OwCsHvpyXEpfU1DcixHDsESycJQVPnEPUiWYh6iRzbXwdjZikQNGc+UffT9o+yZ29UJexJCH+C98j1WQuwLOxxmNQbaUIAvmMXojEwv6QVG+DgUZqYCxsIWKPfGvg9wIp59ghRXAB+nkdSrQtSxA7mxL/9eKVKrMpJt+6dsfa/gOeaY8Tq+ZCTue4VIe/eE7tS9sRc3EfA6ndX3ARrHKe1I+CXhWhC9K8dQq6CqH9shfDmPD6Tj+rX1zwfDr+0RRLrjc+oZXo/FnwAWG/uoZFZEzpvBXHJCYPuIGtvS0JwYLpWTEYDLIkKm/G9kIt88B690qBcNhOGobAXEzR3DlH39AMkcfl6OHYqh9b3Dr6Td6DFEutRPeDMWkKOprXqyVzfJKWSWNrTu08voh4eYfmOi8aDSqk1XQb0QxXwF4tW7yUkNo6goH/PquR92wWd/85eP1Ey/jWKIqWxFUew8ZefOJnsY4G5Wzl+H9qZgOub+WXJiRRuHt4DLN0VwmUHPn64+8bjJ77JLWLTink89HrXzvcAS2eh9NuyxCt2H3/5GDiyHdKAW8xespOUqFGgaru+WD/YzJ6r6XxczF+DUW0ro/F/xPSFGz9YCTbtMYiXx1Zy9UmytStZyYLEio5DBuIq9mHhrCX4610HRTTsOpTSTrBv1h9cM3AVNglgBXDfW4T/tXWcuJcSKEsVliiFSEJ0lu4GfsYDLAH373vwfVEVa2fO5Hm0flBbtkFH6pfJxcMzG9l0wpBj/pwM/LETVuJgNs5byqPQeAo27ExDy3vM23guVb+kN4OSAJaryI8xwyeQWexlzJz8XGlNFlifS2lTOSYFTAqYFPgMCtQbOY9uJS1Z0L0nJ8Kjjd/Qva/jJwCsBt1+pku9Ijw/vYkf52zR29r/NsDSfc5TIDGLRxOk/5KROK8TubqUyRBghe65TMAlQ5tCKbbD6+o4FgErT1PGweWdBdZJHd2i7w/94flxFm85h8ZYNiOIsZ4wBHO7BAKmeBLz0rB1TWaHszEAC4kEkViDNgUXE5A08UBdJxeaR6fwnZXkC0bfT1KwAupBdYh/dBifWRcNplN27IaqQg6iT68icMM/57H/iwRYZm6MmTQY29hX/DR2GtGfAkLfKf8pAKvPuKkUVcs4vHwsOw342Mj+AAss+vfFqrAFIZ4ziHiYbB5JnLH7vRWho2YRp+9MIyqDk2cDtE9P4DvT8HVHSYvOqGu4EHN+LQFrP8JuwbYyThNrIATc5e34bXrfAaL8hbHtWI3ITSuJvKP3ZPhh7hhrgSUp/T3qbu7EXduA37LHhpcJdV4cx7VHrA3He6QnWj1h3d8DLCLfAelM3viVW+Vg4MCeRN3fx4KtV4hPMHYhfFftwvXI0b8cCf4P8Rm/KUlLtzqom8bjN+2YwfervHEH7OrmImL9TELOGLYMSgTpjgLBs/4g8nHaOr4HWIIogbC1awn7FH+GgLEAS1yxOmqPKmhun8FvwQnD6+g7EBq1bztBew1Y0ojN3lmySQjf+CfRkhLYVBTwmbQ9s68Q/Wu9UkW/wQMQXp1j/pqjGV7rTZ2JILWmw6CBuMY+YcGCdYl+lLLLFUL7ar35uVU+powZRYl2Y2lYVI3frb2MX5DMYjhXKTxHenD4p6HsSeUSK+sAFjTtMZiijiL2LpjJ9eRe2CVu9BlYk60zF2fgGN2Z3sO7YC8LZeuUOdxLnMNW9Bncgh2ey3lrYGqqHEvQv0cjop4cYcb6CwbnWpG6HWlWPhfel1aw9FBaK3tdaYkAy0KC953jLN1uZDCEdwPHaIBlkZf+g9pjEePLjJmLiTWwdun89PX4riJhXteZvcKwRXjxep1pXM4Fv4cnWX/qLf07NcJz1mwiDFiM6Z9cufhp2o84xr1k1E9TScf13d+am5/jYRPA+hwqm8owKWBSwKTAZ1LAsWgVZo8fCJoo3jx7ys51izlx5xOi0HwCwOoxcQF1vrLj5IYJzNumfzP7nwdYqfvZTImyal4s8qiQWcoRySSIldK/CbBA2bEOjm4ywo9coFiMYzKABTKlE516d0HsdZ5FG08YDTGF0vVx7FoWITaKuNfPCN28j9hX6R9y0xveRgEsPRmJXPPjOKItghCN33hP4vwNXzmRNemIfR1Xoo7MIWi7Ycsgs7rtsG2cj/hHp/BJB4j93Wn7RQIsBEo2HkT3Om7ERATz8vFtNm/azpuQjK3tUutlPMByYfy0H3GQBLN07DhuGHCP9CUALEnVWqjbfE3czeP4Lfp4aJKUqoBdQ2d8ftN/gBc18sCpfm6ij28jcIvh65Hib5rj2Low8S/O4jP1ozWtrGMv7Cs4EHN2MwHrHvzdIYyxAMt82DCs85kRNmsOYY/S89djjer3/igtEgiYOIsY37THqfcAK2r/NoL2pH9VNHVDZRYO9O7fi6hHR1m29bxB/1DpCiQ4oP6jBxJJGP6/zCHWX0Desx9mjzcScsxQ+EEJViMGYuEiIXDiVKLTiVJoNXwgFnktiNi1lJCDaT9YvAdYCQG38f11J1qjv0gktc5YgGXWoj22NfISfXIbgZsM6y5v3wm7Sq7EXDlGwIrUkRqTKWvvjuPYRoi1UcTHxRI8dSEx/p/+cUSqcqJ7z24ovc8x78+TRKeOpJLRqJfZ06ZHV9ykXsydv57g2CRr5ewAsCQ2Lvw6YRRxt1bw85Ir2JWux7jujUmIDmTssDEEvwc+uUoxa1Azfhk+Nk10v6wEWIWqtaRl1UI8PreDDcc+RnLOVbYBDfNGsnCz7sNZ+r9G3QZTIoc51/Z4sk+3qOetTb9KMSz487TBeZnj6zZ0q+XGyzMLWH3C0FVdcCvdgjYNvyLu5WmmrT6pN79EgKUIZdPsRTzMlK+otO0xFmDZFihD39YNiAm+zcy5Oz76FkuddYFKjG5dk9jgl0ybu9qwkCI5HfsNIpeVQFhEPM+OLWHXTf3WawYzsa7ApF87IfO/zQ8T5hu9N8yonz/n/5sA1udU21SWSQGTAiYF/nEFxORyr8igAX1xtZYmRi7RRT15rosgs2sN5x+GZu6l9QkAa+is5VR0tmDPgg6sPm7AAuk/fYUwqXMFWxWqGm4o89kgVYqIuPeayNv+aCJiSFBZk7N5sb8NsBQdauFU0IyIUxcoGpYSYOnqYG6Ti1ad2iF7e4nFGw1bChgajtJiZbHuUBOZpQzd/Zf40BDinjwhbP9p4t4YdrqsL7+/BbBENliP6Ya5Wkr48mWEXkvfD5qy/wBUha3QvH6CJp0DksjRFVkOc7Svr+I9ef8/Niu/TIAFIpkS9woN8GhZHbkuJJxWQ0iAL4/u/cWuHfsIjM2cRYvxAKs8kz07YhntxcSRkw1+2f8SABa6K2KT2iGJ9sF7xJIP6655t55IvfcTvFe/5Z9Zv2HYFlEQ//o1cf6G55pgnxO5iyX43uTNhI/+X5TDRqLKJyFy7WqCzxuMFZvpMW8cwLLCelJ/zK0g+FdPIvU5905WsuWoUVi6iAibNoew52lh1wcfWO+jEGa61kkJFfa56dipHbFPT7Nq+5lPglg244ahcDQjbMMywi6EY/P7ICJ+n0msnyH7BRU2k/uisEwg9q9H6ZYpKeiGRCkh+tgaAremjRab3AfW+yiERkqQmNxYgGXRuzdWxe2J93lB3FvDFmQi19zI7BTE3j2D/zzDllq6Oih79kBVwpG4u2fxm5eO+4IMGiizz0279m2w8L/KkvVHidFmbi36kK3ckeYd2pFH/JplyzeTPHhldgBYucq0YWS3KlyaO5qVd0NAbEHnURMp7yzH68QSJm+6kTimchSvytAWJflx/Jw0e7qsBFiYF2XgoKaI/e8za/GWD2XV9+hP1PX1nLxtGC6917x0PQ8alsuN791jLN52njJNe5HzyV523TRs/ezerC/fF7ElzPsJXklOvPT+LFQ5cXGyJN7/On8s3Kv3Ot17H1jvoxB+yhwyFmDlKVGXDo3KEx8dxOPnPob33RZ2fOXigCbMm6meS9NdL9Ql69Dtuwpow7z5w3NpqujgGbdK7t6Iqb0bEHT7MD/P/3sWkBmX9s+mMAGsf1ZfU+4mBUwKmBT41xQoUr4GFcpXoHIFd6zkkkSY5f34KmuXLOPSsww2HX8DYO2e15o1J/VvKv/rFljSom44NimAJCGG4OP3Cbn05kP0MN1AyKwPrPSvEEJGAEtXloVdHlp5tEH+9hzLtpw23heMWI60VFGUJQujcM+rC56FztFKzL07hG0/QuybzDnN/TsAy6xJM2zrFEHz4hq+f+wjoxOo+ZDBWLuZE33+EJFPM2ExFBlI9I20zvSzatJ+qQDrQ/sl1pT/ujwly5ajSD7nxIigCdoY7l04yqZdR/APTz8e36cDrFeMHzEFgy6ys70PrCQFzQcMwLqggqDfphHlnQAyJ+zGNyN08gLiwvWvkYrBI7ApICXm8gUiHmYicEV0ENHXPh4ElcNHosorIWLlKkIu//3rscYBLBWq3/slWlUZBbBmzyXsQVprgr8LsBL7wKkAbds2J/7FGVZtMx5iKbt2R1XGiZhzBwnc/xqn8Y3xGbkIbZQhcGKH7dQ+mCliCV1/wLDlRbJFRvvmCbHP00by+7cAlmX/vlgWtiXmr9NE3M7YJ1RCkC8x9/RHUXvfTFnj1tjVLYAQG0LA9MXEvM7E+pxqIdbBqzZtW2Hmd4OVGw4bfW0QuZpm7dvhyivWrd2KX6rlKzsArIrdxtOxtB3bJozgiG/SOzZniQaM6tUIUUIkM8aO5XFgFMW/6USTwoH8smh3mtdVlgIs4NsuQyjlmMC2ubO4q2Pq0lz07V2LbQtXkCqws95Xp12x6vRpUoXIgMfMWLSF9gOGcH7jPJ56G77EVqHVQOoUtMTr+hEuv9AT5TJVSQmxwdx7+NqwBZbYJzEKYUofX5l/0xsLsPKX/o62DUsSG/SYA6du6/Vxl7z0BE00d+6nc+Vad/HSpSzdPOpjLtJwZ+9Ktt9If86lbl2Zpn3pVqcYV/csZNm+m5lvfDZMaQJY2bBTTFUyKWBSwKRAViogktlQp2kzqpQvQwEXe0TxQSwcO4pjT9Jx4fgJAGvQ9GVUdrVk97w2rDmp34H4fxpgWdniOqgiEiEWvzXnCH+WdnOWVQBL2bkOjvlkhB+6QLG4tBZY78ePwtqFjt07IXpxjJU7L36aY3ddZhIFykY1UZZwQ+ZgSUKkP36TFqMJythR/KcCLJFzKexHfos4xh//MQuJy8R5x6xLT2zLqok+OZvATRmHG8/KeaYvry8eYCVrlIVjXurVrY170cLYWcgI97rMH7PX4p/OlQzjAVZJfpvVHeuY1/w84nf8DXTQF2GBpTvnlayJQ49KxN/fg8+cG4gr1cKmDPjPOWpw6Ek79sahgj3RZ3cQuO7jlZ3MjlXFoOHYFDQjcuMagk+lterJbD7v0xkHsJRYTRyEha1A8KTZRKZrrSnGcsyPWOYQETplNuEv00bqywqAlQSx3OjQviUJz0+wfNsFNEb4xBJ/0xB169JoX9/Cf1cE9t/F4jvlVDqWzEqsxw/A3D6BoN+nEqXfLU+muuHfAljKjl1RVXAm5swuAtZnwUFXlQv16BZEXn+KZaVixD+9iu8M4yxfpaoctO/UEZnPNVZtOEwmXgcpNZba0KJLV1zin7NuzVZ89bD37ACw2o70pKqrwNYJIzj6DmAhWNF21DiquigJuLOdyYuOU7vvWCxvLOTPU2ldRGQ1wCpYoQmt6hTj5cX1rD78BMevm9HQ5gkr9v2VqXGMZUEG9G+FZVww8zzX0n1gM1bOWU5AOt8/ctXrQsdyOfG6sIAVRzK28kqvIv+GBZZzEV0k1BrEhN1jludWIxytG2iJoKRpt+4Ib+6So1gFrAhk/qxFhLy7/pqZjugw/Dcq5ZawduoYzr36tOifmSnnc6QxAazPobKpDJMCJgVMCnwGBcRyJSqFiIBgQ9dOBEq1GcYPTcoT+fwQPUYuNbwJ/wSA5THCk0ZlcnByw8/M26bfb8Z/F2AJWPSoh4OrmKgbN/Depv/UkjUAS4rtsLpYW+tz4p52oImldvQa1JuE50cTIzXFpOdHRaZEJI9BG2bYW7JZi7bY1siP1usSPpMOZXgl9ZMAliDDZkx/FE5mRO7aSPDB1FHKBKSVy6E5dylFhC9ptRY4tPqK+Pv78ZmTLGrkZ5h//xWAZWahQqwJIyLawBgQSej0wwTKulpzbecyVhy+bhjGyGoxZXpT/C6uZvLaS5noBXN++n0SzvIQlowZx18GPrx/KQAL+1w4ju+IWBSMz/B5KDx6Irq/n9BT6Vzt+7oZOToUQfPwCH6eFzKhWcok4kYeONbPTeyNnfgvuZX+84KASClBG2H4MGMcwAKzLr2wLWtP+Mr5hF5Ox3pHZIfNlN4ozLT4jp2JJjitn72sAlg6ERR2uejZoyPxjw+yaPsV4jIbndC6EA4TWiLVBBL6KB7RjVWEXkzfJ6D5wAFYF7IkfNUUQi9l0vO8np76twCW/Nvm2DUsTNzNU/gtMhw0I1ODUyzHavQgJA/3ELjhIZaDemPppiRkziwiHqZvwfk+f7FSRc9+fRF5XWLJuiNGW14JMmva9elHztgnLFu6kQADwz07AKyWw2dQI5+Uc3+MYu3Tj3s5Czt3fpvYG6kAx/efp3SVXCwc8xsv9LQlqwEW6iIM79EMwp4yY846GnUfxMsja7mekSV/sgHSpOdIiqkTuLbzJvm/8mPu5ivp7h3URRvTs2lxwh8exHPT5Qz3GdkNYClyuzPE43u00W+ZMXOZQSfumZpDutgRNdvxfZ4wFi7fjap8U7rWLYr3lQ0sP/A4I8P0pCLEefh12g9IfS4wZsqavw/UMlvxfyidCWD9Q8KasjUpYFLApMDnVkAoUZfFHoXpMdwz3aJ7/7aQmi6RjO48lEeGbkFkALDqtOzKqwPLuZ/so3mF1oMY1rxyulEIJbLvWbGmA3Kfy7QeOO1vbUqyQl8zhZKx05cxb+kmFAO/wdJchM/SfUS+P18KIlzHNEAS5s2zWcmASPVy5K2pJvzAdfzOvQFBjuOE2iiB4I3nCbqj37otSwCWtRW5h1VFRDxengep7FY4hRN3fbqIJLb0HNwH4dVpFm40bD0gKKuhHiDGZ8oxw/IKlqh+HYjCPACfEQtTRQxM+9inACxZu87YV3Yh7sl5/GbosVYRqbGd3JqgESn9f4hy58fpx7YQ+xLv4avRpnN2lLhXR/zmJDGpwtJnxbh6n0d6FlgS91JIEh4TfSul5Um+it/TskZRIr3vsGzNbiI/0XHzp7ajQv1+lDK7zMId6QAnkSsTpv5AwpMD/Lxg3ycCLHOaNy7Hjp0pQ8C3+0H3ldicw8vHsPOafhhfoceveJRQ8WDHfOYcMc6596fq8mnPCZj/MBzrPHKCfl+Ged/GhExYSFx6/ENQ4TijH+K41/iMWkV8evyjdG3kby8Q8/ajToJ5URx/b4oo4jk+o9em+7yQowq2DbwJWG746kp6AEukcsfM9QGRtz7aw4hzl8HxxwbEPzuJzx+nDcom5C2E0/CWEPkc75FrU1y1fv9QVgIsXZ46x+4DB/ch8v5BFm65mLmDHyJsxg9DoZaTEBuO79BZZMS+pF83xKFDaeIfH8ZnpuFoqLo6mTWtQ+z2w3rr8jkAlrxeTeLPH0OTzGBVyF8G9ZAGEPgUn3Hr0h360m+qIvK6QswT/VfKxeUa4djGAe8xKxKvXQp5v8JxWAuEGG98flqGNiZ9H1YSCzv6DeyL5PUZ5qw9QayxPq+kNrTv15d8oufMnrOOkDjD5WUHgFWoxXAG1cyH1+lp/Lb+WTLtBYq1G0OfKjkQgPuH/2S2gYh6WQ6wEPiu2whKqjWsnbaExgObsm7WSvwyNsD+UP/iDTrTuIwLCQlaLi2fzeFka5a+Aaa0zcnQvl0g7gXzpq0hPWNvm1yVcQ49y51U0Rjf5/tPW2CpXQuTR/6aS4+TvcsFezyG9CaXLIZ5M2cSHGM4aIHM2Y1vHDUcuf4xmmxKTZwZMsKDPatm88g7CkGqwmNQf3LJtaxZPIsXBv3xfcylROsR9KyWm30rprH3cvJx9Wlvtn/7KRPA+rd7wFS+SQGTAiYFskqBvN+wclIXto3ryi6DZAo8fphNg9w+dOz/m2H/HCIZPy9cShGrICZ2GMTtFO9eKWMnjWLxTxPxSV53ZRFmzR+PfcwTuvb6Sc9XUjNa/7qQ5gWV4J0JgCWI+LZdD75ylHHpwA5O3zXSn4sgoUrjDpTPb8ujs7vYfSHtIS3LAJZIjuO42ihFELb3Ev4X9YeeSg2wRMXzYSEKIuSvJEsFWZPK5CytIvrWHd5u1r+ZkZZxx6WxK7FP7/Bm5XOqVyiSIcDS5a2wcqFt1w5IvS+xeIN+x+6CvDiO0xoQOHkusW8N+6ewHPMTFhZP8B61MYUFlN6N6IBBqAqZJ1lZBGXCb5ZtCRzHf4eYYPwnLiU2IO1lEYl7Zexb58d7dKqoPSIzLEcPxNJJRsjs+UQ8MHBN1s4V2wF1CZ6wLEPfFH9neio8umJTMQchK6YRcSWltYGyU3sSjq0j6tXHA5XUsSiDerXEQpRU6stzG1l+6N7fqYLRz5ao0QmPairG/eyZbpjtUZM9ibmyiRlbDYcll8jcmDx1ENGPtjNuXsoxJ85fjwEVIpm1LiXkyPVNa4a1qorPXweYtGRPmvpLrRz5eeJYrCVkCmAJCldatqiNWVwAR/bu4U2YEacu3YdrqRWNWjbFRhzNiYN7eOabsT+W5JUWF6yL46DyaIMjiHtxhoDFlzPsE4tB/bEqaE345j8JPWHgUKO0wH5iX0ImzSQuMJkZhkiC9bjBmDvICF21kvBLb/SXp7TGZnQPImbNJdbPMFGTf9Mcu9YFCVv+B2FXU5p7yFp1RHJyHZE+yV4QYjOsxgzBwiEe/0lzDPrKU7TpiE1lJ0JmziXiqf61JqsBlk4IubUz3Xp2JubJKVZk0ieWeeduWJfLgTbwOd5j12bYf1g7Y/dzF+TSOPzGeBIXrP/Cm6hoeWzr2uM/Uz8EziqApRo3FKWtLorrfOJSuBozQzWsGWGe64hP8Y6XYDmkD5b5lIQumU34TQPrtlkO7IbXJWTmGjQRaeeVLtCA/ai2hE2fR/QHn4ki5C07YFfdlci9qwneZ/i9LrN1oWPnDlj4XWLhuhPGRxuUq2nZ2YN84tcsXLKZkLj05352AFh2ucswcUQ3iH7G+FF/4J8C8EnpNupXyrhaEhP4hDm/zeDpe19sNqXpXFPByq1nyXqABblLNMGjUVEiAsMJfLibVUeeZjwPkqXIWbgKXZpXJ0GrYbHnDPwiMrC+E2TU7jKIis5yTm1YzKnH+v0Biiyc8Oj4PVsXLMaAW0GyAmCVqN2eRhXzcHbbVI7fTbkOFqvXBsvrGznvmxKO5inbjA71C+N3dQeL998x8MFWRK3WXYi5uI4zz/XMM5EZ3/YaiMXVjWy+9OID6DZ3rMCA7nWIfnaO+euOpWuVKJZZMm7yb1gGX+fnySsJ/cwfxYwaKJlMbAJYmRTKlMykgEkBkwLZXgGLsixY/iPmAU+ZPm40f/np+XQvyc3Uhb/he2QBf2wwfPAEgeoDp9K3igsbpv/AtosfHV0XazCI+haX+GPz+TSSlG7ahxFtq/Hs1CpGz9uf4ku1W432jG/uCralkUfcZ0CfcSQ/96TOzKlGH0a3KI5YgPjw18wcP4mnmeAf7/Mxz1efycO+T3Q8rfu8vOaP8Zx/mfIgkWUACwFZ3Uo4V1GREOSD1/wraFKdWcS5nbCt8xUWucw/RCGU1yyFWchTgq8mnSreAyxd1LfgvVcIupzS94M4tys5OrkjiQvFa8ZZ4mK01MgkwNLlb65z7N6hDXKfiyzZeDyNJYEgd8BxWi8SvO8SsHgvGv+0By8hRwEcRjUnZtNSQs4Y8lL0sTeNssBSWGI7rh9mVhLCN68h9IQeHz42ObEd0hZJyB18p6f1oyLY5cV+dFsk2mCCFmwgOrWvNwsnrPs0JeHyLkJP/A0HNZlYEITi1XDsXZXYs/sJXPfRgk/IXRibJvkI9NybIhdB4UKPAV1x1pFQQBv2iNnT/8TAh+VM1MD4JAUrN2Fg25q8uXWY6Yv3EKPHX5C6ZEtGdC7PtrmTOPvY8DUxQSxlyMTfySPxYfqvf/DiAzwS03bwCJ7vXcj5R6kgo2BBq/4/UCWfGftWzeLAjWQ+XqSWNGzXh4JWUvIXyoHXmbVM2XDBsCWnWEnL/kMpaqMLYgF+904wb2P60dJSKiahYtv+1C+kSvxz5Nu/mLNoO0YsQ2Bti9NvfdEFcwxZvJSIvzLheFeVA7th7ZEpYwhZs5nI1M56zVVY9WiL6N5egg+mvY4ouLjhMLglojhfghZtJOZ5Kks2cxssO7ZAGnyWwA13dfE9DP5EbsVwHNKE+EdH8NVdaXyXVrDPhV3/6gRMXENCaqsYq5zYj/VAHPSQgEW70ASktD6QlKuJvUdFYi/uI/DPGwbL/icAlq4wpWN+2rdrSdzzs6zefjpDSyxp9fo4tCxL7PVD+C/NzFVYEJesiLp7bbQ+DwiYvxtNQEpIKMpXGNtO3xC+4k+iU/fPO0WyCmDJW3tg940LoatXEH7x4/iTVK2PhaM3wVvS9oHIyQ3bYa2QicMIXLCS6EepfJSJrVH92JH4s7sI0+trTYKyaxeUspv4L7qYYowJVmrsf+2JVBuC/29LifVLO6Nk9nlo264VCr9rLF9v/LVB5I40a9+WXMIr1qzeavDaYPLBlx0AFiIFtXqOoJm7mnsnNrFs8wk+xAsQOzNy4gDMtAJqOytC39xj5aJF3PdLoPXAn9Be3cDmsw/+EYAlV+dlSM/26FbSLQs9ue+f1mddem8bibpouOnZAAAReklEQVQAQ3u2Rhz9gpkz12DohnryPETKnHTv7YG9EMq+zZu48TLlfkNk5kDDFs0QP9zLzkuGg7FkBcBS5K5If4/a+N08yMpdHz9CyO3daFO/KGvX7kwTFVAkN6d+u56UzmnG5cMbOXzxaaq1RkTZhm0oJnnJ6l36A0zYFatNn3ouzJq9mvDkAFYkoWHnQZR2lnJ66wpO3kvxOTmZjGJKNRtK99q5WDdjPGcfp+P7NoPtQovBv1KzoG1iqvObR7PmeMYBHozfgWTuCRPAypxOplQmBUwKmBT4AhT4iul/TsRFrCE+PpYrB/dy/flbIqJjEUQSLK2d+L51U8LvHGH2/FV4Z3QKk7jxi+cY8ivD2b9tN6/D47BwLU3NvKFM+WMx+iOki6jSui/dG1ch/Nll9p24TlS8QO7ClSjlEsmMX+YwfslaLCRaQoMDeXntCBMXbdOr7WcDWDOXs+jgIcxbuCOXiQg6dImwGwFoY+XI8tnj1NodUUwI3ptvE/0kGMHeGkVtd9RFrIi5/wz/Y8+JfRdNR9WuMqpCKuJeeBFy1Yf4OC1iMzny4q6YWcYTdtUHi1pFkEsjCdj1GEU5F4I3nCfmHaF4D7DCrzxFcFJDoDcR94PRxouQujhg/bULCX6++K69Quy7/aMxAEsntLlNLtp2bo/MK8mhcXTyr3EyGU5Tf0AQaUmIDifqwhVivULQ6szfxTIk6hwoa7ijuXWeoDXn9PabYK9GbCVN+j+pGVadWmNmLRC5YzfhTwOSDjJaDZrnaTdcsrptsG/sRkKUD8EbT6JN5d9DZGGLsl5l5LYKYs/twv9P/Q6GBXUBVF3rYZbTnJgbN4i+702CFkSqHCirFSLmxH5CDzz8DHNahGWvblgWtSHy7BliXkYgKGxQVMpN2KotxL5Ka81j5ViAeo2+paiLCm3YQzynryNtfLZ/ruouZWszonMTtBoNcRF+nDh+Gp/AMGLjtYhlZti6utOwshuXDqxl0+FbGR7+c5RuxGCPOsT53OPw6RvEJogpVL4GCQ/3snbfNb2hwAWLHLTp2JmvC6m5d/EIfz0LBLEZJSpVRXh+kiX+xZnR7CsS4mMJCQ7l4r6Z7LmoR6XsALCQYjF+GFaqIHzHLUYTlv6Vqfc9KzjmwrpdQ5T5VMTcu03UzdckxCcgUtmjqFSc+JunCNp8zTB4KlgEVas6yB1kRF+/Tswjv3dzwAFF5WLEP7hkcA6nzFSColNHbMrlIOriGWKeBIPcCrPKhYhcv5roJwYsKXK4YdOxPnJVLOGHLhKns76UyJF+VQTzks5EnzxCyO5UPrqU5kickmAhSLBo1QSlztrk6llCTz78YO2pfeuDNsrwlZzMzA7zHAVo16Y52ucnWbY97ceY5HkIrsVR/9iQiFVzCL9i2DI1ZbkC4jIVsGleFalZHJHnrxLnpbunJ0KUJx/KYmrC124h8m5Ka12xqzOCztGRICDOVQrb5iUg9CVBa06giXn3USomBI2XIV+XelovU2Mz0gMzq1jCj5xHExKHSJ0Hs/xaghftIT5C/5gUOebFuvt3KHJYEH39KjH3fdHq1lFbNeY13Ik5upuQ/Q9SFCjYOiC2t0BethxWlQsQe/kgIftvo/FJAniCuQXiHI5Y9miLwgLivR8TsuMCsS+90Ia8W/CtnBMtr+Q+11m18ROiDWJNs25dcdW+YN2f29JEGzQ0PrIFwNKNEKmSdgNGUNHNgRCvh5y79BfRUhuqVnLn/JYFHH6upFuv7pTKbaN7mRKrgbiAW0yftpgQmZqCJWrTqGpeQp+fYuvBG3j5RaF2caba9x0oZCtw6cgurtx+RHBMAjnzFsSj5feIhHAObNzKvZeviNBrMKikcb/BFFd4MctzFeFG+wC3pvXgAaif72DujtuZdh8hss5DsyYNKJjTilf3bnDnmTcabQJmlmpKlS7M2xtH2HU6pZWyubU9VsqkPYhEoaJ5i6ZYSCI5tX0njz742tPg99YvU1FCk8aLiKqNO/FNUQceXj3DQ+9wRHIVJYvn4ezerTzUvyFGJDGjWqNWlC/sQqjXI67ffkxknBaJVEHhMhWQ+d1ky87jpDAMlpjj5GCDrYsb9etUQRl8n1XbjuHlHZj0vhVLyeHoQO5Kjan9lR3aqEBOHDzM47fe+AakBItWucry84+deXV0JbO3X9H7vs3MeqlLYwJYmVXKlM6kgEkBkwImBYxQQE3bzjXZ++cGQuOg4rftqF66IOYyMbqTS2SQD4c3rOHKWyO+nEnsada5Pe657BFpY3lx8zBrtl8gNoMzmNzajU5dW+JiqyRBE8m9c0fYcPgyIomEwb07sXXtWl4YuFbxocGf6wrhnJWsC79PfDIrgvBzfxHp44S6qeNH/RNiCVx6BeqXxdZV9uHv8YF++G599OHfkjw5sKrogtxSmghrtNFRhF16TOTDJN1FDo44NMqPKEFD8IFbRL39SBLfA6zQPZcJuOSPrHR+VMXsEMtFJMTEEH7tKeGpwpobC7B0dZApHalXUs6ecy9TbiQlEiy/L0n47qskIENe6xvMC+VAJBElQSd/b8IPn0HjbfjKkaR+Y1RFdRvrdH4xoQTM3ZZmEytv0QrL3DpPYhn/ok6tJ+Jy+rGoxIWLYV61GFJLMwQS0Pi/IXz3aTSB6Tthzrh0Y1KIkFWvhkWJXIgkoPF+Ruj2M2gjDV9nUary8sPgTgTf2YPn5ivGFPa301rnd6e6K+w6cZMEuYpvmzTBLYcNYpGQCIwCXj9h555DhLw/TGeiRCuX4jRp+A32FnLiokO5dGATF59mFCVS+F979xqb5VnGAfyibw+UstKyZhvgGDBQRrQwpkygyCmaZVKmTDRxiVOTGVzUxMSYbDE6/bjNqB/8YqJm0c1sTGEJEhTYOAQBDS4szAVR3KBlcpRDgTJaMC2UY2n79rD25vm9X+G97+v6XQ99y/99DjFq8pxYUFMdZSW5ONNwOLasWRnbdh+M3NSHY/HtdfHK6r/G6U4uh+jvSwhbee6dFxXj342jS/O/HLTgzg/G0AemRnH54Nb/rDYdORAnV6+Ps3WdfQPR+tMmCqdMibLpH4qiISWt728+ciAa1v4lzu7pzP/KwRZEYU1NlN83NgoKz0fTwbo4sfTVaO5CCYXVU6JsxqQoKiuOlkT6vbq3o2HV1jh34voAqmDCPTF84f2dHlEnXn4lzrzT82//h9w2NmaOK4jVW659SMS1JZRH+WOfjFO//H005XcFaktkE0U106Ns8rgoHFx4wWDvf6JhxZY413j9YuWPPRLFbV8A3EDi/P7tcfi3N354Qrtvy5VF6Wfnx5DRw2PQ+bPRuHN7nFy1ozXU7OyVm/SRGFozKQqHlsaglmPw0L448YfXornh+rO8c/MeiMp777hqyeZ/r4v/Lb9wKWxuQnVULpx63ZaNG1ZEw9/azrDJxaw502Lrus1537C9beH7586J3ZvWdTm8annfQAmw2nr48KyFMe+j46MommP/22/G0uVr4tIVhQVDY+6ixTF1zPBoOLArXnxpRRxtPBdjP/FQzB53+fO38cBb8eLKf8WnH62Nqpaz0S++9r2+ITbWn43PL5jfek+tttfWPz8Xb+1r/xe88imfivlDdsSylvt+duN1z7xFUfHPZbG5rmsh/pVbDB81MaZPq46qYUNaP8uPH6qPrRs3Rf2x638ITaypjY+Pv7WTCg/F8udWxNG8SimIu6pnxozqcVFSGHH8v7tj7bpNcaydf8fXbl40bGTUzPhYjKyqiKJcxJmGo/HG1vXx5t52zq+umhRfXDAtLv+W2XL6795YunRttGbNQ2+NL32uNi7eaeDSVg31b8TLqy9/qVFYWhVf+c4TMfbMtvjhj1+IPD6y27Wb+4WvxezqCXFbZWlsfP7J+N2mfD5DunHAdPAWZ2D1rqfVCBAgQCAhgcuXEL4QJ0937YlIfdne1QFW+/d8uHb/7gRYfdmDtXsuUDl6Tnzrq7Njxc9/EtsO9t8viT3vxAoECBBIQ2CgBVhpqKlyQAoMysWDS74X80Yciye+/9Nee+rgZ775VMwfeSp+8OTTcSSv8K93lQRYvetpNQIECBBISECAldCwMlJqUeWdsWTJl6OkfkP87Dfro4OHZmVERJsECBDoewEBVt8b2+H9EZj9yLfjwbvPxDPP/iIOnerZ5daXKs5NjKee+UbsWfPr+NXKK57K/f60dNUuAqx+QLclAQIECAwMgYEWYJU8PCtGTi6Phj/9PQ5uuuLm1R1wOQNrYBxLvVHF7XffFw/Vzo9ze7fE88s2xOkuXN7TG/tagwABAlkXEGBl/Qi4efqvHDEmCk++GwePd3ybhXw6nlj79Xh85i3x9I+ejboOboGQz5rd/bsCrO7KeR8BAgQIJC8wUAKs3IgPRFXt6Bg8oiIKWh67eK45Gvcfi/d27o7Dr97o6TIX+AVYPT8MSxcvitK7bun2Qk07/hjHV3X+RMbONhh2x9gYM6wptu+88aPlO1vDnxMgQIBA/gICrPzNvINAfwgIsPpD3Z4ECBAgMCAEBkqA1RMMAVZP9LyXAAECBAgMvJu4mwkBAu0LCLAcGQQIECCQWQEBVmZHr3ECBAgQIHBJwBlYDgYCaQgIsNKYkyoJECBAoA8EBFh9gGpJAgQIECCQmIAAK7GBKTezAgKszI5e4wQIECAgwHIMECBAgAABAgIsxwCBNAQEWGnMSZUECBAg0AcCbQHWa+s2xNmm5j7Yoe+XvGtUVezfsyte37y+7zezAwECBAgQuAkFBFg34VC1dFMKCLBuyrFqigABAgS6IlBcMjgeffy7cexIx0/668pa/fl36t/ZHbv+sb0/S7A3AQIECBBIVkCAlezoFJ4xAQFWxgauXQIECBC4WqC4uDgqKiqwECBAgAABAhkVEGBldPDaTk5AgJXcyBRMgAABAr0pIMDqTU1rESBAgACB9AQEWOnNTMXZFBBgZXPuuiZAgACBiwICLIcCAQIECBDItoAAK9vz1306AgKsdGalUgIECBAgQIAAAQIECBAgQIBAJgUEWJkcu6YJECBAgAABAgQIECBAgAABAukICLDSmZVKCRAgQIAAAQIECBAgQIAAAQKZFBBgZXLsmiZAgAABAgQIECBAgAABAgQIpCMgwEpnViolQIAAAQIECBAgQIAAAQIECGRSQICVybFrmgABAgQIECBAgAABAgQIECCQjoAAK51ZqZQAAQIECBAgQIAAAQIECBAgkEkBAVYmx65pAgQIECBAgAABAgQIECBAgEA6AgKsdGalUgIECBAgQIAAAQIECBAgQIBAJgUEWJkcu6YJECBAgAABAgQIECBAgAABAukICLDSmZVKCRAgQIAAAQIECBAgQIAAAQKZFBBgZXLsmiZAgAABAgQIECBAgAABAgQIpCMgwEpnViolQIAAAQIECBAgQIAAAQIECGRSQICVybFrmgABAgQIECBAgAABAgQIECCQjoAAK51ZqZQAAQIECBAgQIAAAQIECBAgkEkBAVYmx65pAgQIECBAgAABAgQIECBAgEA6AgKsdGalUgIECBAgQIAAAQIECBAgQIBAJgUEWJkcu6YJECBAgAABAgQIECBAgAABAukICLDSmZVKCRAgQIAAAQIECBAgQIAAAQKZFBBgZXLsmiZAgAABAgQIECBAgAABAgQIpCMgwEpnViolQIAAAQIECBAgQIAAAQIECGRSQICVybFrmgABAgQIECBAgAABAgQIECCQjoAAK51ZqZQAAQIECBAgQIAAAQIECBAgkEkBAVYmx65pAgQIECBAgAABAgQIECBAgEA6AgKsdGalUgIECBAgQIAAAQIECBAgQIBAJgUEWJkcu6YJECBAgAABAgQIECBAgAABAukICLDSmZVKCRAgQIAAAQIECBAgQIAAAQKZFBBgZXLsmiZAgAABAgQIECBAgAABAgQIpCMgwEpnViolQIAAAQIECBAgQIAAAQIECGRS4P9zkHMQUdUNOAAAAABJRU5ErkJggg==;" vertex="1" parent="WIyWlLk6GJQsqaUBKTNV-1">
          <mxGeometry x="430" y="440" width="204.55" height="60" as="geometry" />
        </mxCell>
      </root>
    </mxGraphModel>
  </diagram>
</mxfile>
